<svg enable-background="new 0 0 88 88" height="88" viewBox="0 0 88 88" width="88" xmlns="http://www.w3.org/2000/svg"><g fill="#585857"><path d="m44.792 74.124c-1.746 0-3.372-.18-4.776-.574-2.191-.573-9.106-2.67-14.764-5.52-4.116-2.055-8.584-5.786-8.721-9.115 0-.394.137-.702.394-1.001.531-.531 1.489-.796 3.064-.796 3.158 0 8.113 1.01 10.92 1.977 3.809 1.31 11.957 2.448 12.966 2.585 2.978-.531 24.538-4.468 26.198-4.468h.094c1.447.086 2.277.607 2.542 1.489.788 3.106-7.445 9.191-8.593 9.894-2.67 1.669-9.021 4.125-13.539 4.913-2.104.436-4.03.616-5.785.616zm-24.802-15.645c-1.832 0-2.14.394-2.14.394.085 2.021 2.841 5.435 7.977 8.02 5.563 2.799 12.358 4.861 14.498 5.435 1.318.343 2.807.522 4.468.522 1.668 0 3.551-.18 5.529-.522 4.33-.753 10.467-3.115 13.061-4.732 2.884-1.798 8.404-6.881 8.011-8.465-.086-.394-.959-.479-1.318-.521-1.181 0-16.21 2.679-26.069 4.476-.085 0-.128 0-.223 0-.342-.051-9.157-1.232-13.317-2.679-2.672-.969-7.533-1.928-10.477-1.928z"/><path d="m41.506 33.197-.214-1.318s0 0-.043 0c0 0 .223-.086.257-.531.137-.788 0-1.353 0-1.404-.085-.342.137-.693.479-.787.359-.086.702.137.796.488 0 .042.18.881 0 1.883-.128 1.138-.882 1.583-1.275 1.669z"/><path d="m47.865 33.111c-.095 0-.18 0-.266-.052-.086-.042-.925-.437-1.232-1.403-.257-.873-.034-1.832 0-1.926.094-.351.445-.573.796-.479.351.086.573.437.479.788-.043.214-.129.83 0 1.224.128.394.487.616.487.616.343.137.479.53.309.873-.094.222-.359.359-.573.359z"/><path d="m34.719 61.457c-.094 0-.18 0-.265-.043-.351-.128-.479-.521-.351-.83 0 0 .796-1.935 1.139-3.902.137-.616.265-1.232.394-1.841.308-1.36.616-2.679.659-3.988.043-1.053-.042-1.669-.128-2.285-.086-.513-.137-1.044-.137-1.831 0-1.754.18-3.466.531-4.861.171-.753.351-1.892.531-2.944.12-.916.299-1.797.428-2.448.223-1.01-.085-2.414-.214-3.116-.043-.256-.094-.437-.094-.53-.034-.342.223-.65.573-.702.266-.034 2.542-.342 3.201-.342.488 0 .745.171.916.479.051.042.086.171.616.351 1.267.488 2.362.608 3.424.351 1.044-.223 1.703-1.053 1.746-1.053.137-.18.394-.265.616-.214l3.243.428c.18.052.351.137.437.274.086.128.137.342.137.522 0 0-.394 2.063-.308 3.809.085 1.712 1.267 4.647 1.31 4.69.042.085.042.171.042.308 0 .085-.521 7.317.181 11.879.744 4.639 1.001 6.967 1.001 6.967.051.343-.214.702-.565.702-.351.034-.701-.223-.701-.573 0-.043-.257-2.285-.959-6.882-.701-4.382-.308-10.912-.223-12.05-.265-.659-1.232-3.244-1.36-4.955-.086-1.267.094-2.619.214-3.415l-2.226-.299c-.394.342-1.146.958-2.19 1.215-1.318.308-2.67.18-4.211-.394-.702-.257-1.01-.522-1.181-.736-.394 0-1.403.128-2.242.214.18.881.445 2.234.18 3.415-.128.667-.265 1.489-.437 2.414-.171 1.095-.351 2.242-.565 3.029-.308 1.31-.488 2.927-.488 4.554 0 .65.043 1.138.128 1.66.085.667.18 1.36.137 2.499-.051 1.455-.351 2.893-.659 4.254-.128.573-.266 1.181-.394 1.797-.394 2.062-1.189 4.031-1.189 4.116-.218.136-.432.307-.697.307z"/><path d="m17.097 58.564c-.564 0-1.181-.043-1.917-.137-1.677-.172-2.55-1.002-2.807-1.746-.137-.445-.085-.839.171-1.053.394-.394.873-.214 1.403-.086.394.129.873.266 1.446.266.479 0 .479 0 .745-.223.223-.223.531-.53 1.181-.873.702-.394 1.232-.753 1.84-1.146.659-.437 1.403-.873 2.456-1.532 2.191-1.31 4.604-3.158 4.861-3.681.137-.521.394-1.138.753-1.883.12-.265.257-.607.394-.915.522-1.276 2.276-4.605 3.149-6.146.839-1.438 3.329-5.255 4.733-6.213 1.361-.882 2.234-.967 2.319-.967.359-.042.659.266.702.608 0 .359-.257.667-.616.702-.034 0-.65.094-1.66.753-1.053.702-3.423 4.117-4.339 5.734-.916 1.669-2.584 4.861-3.072 6.008-.12.343-.257.65-.394.959-.299.702-.564 1.275-.65 1.669-.351 1.31-5.392 4.425-5.478 4.468-1.01.616-1.711 1.053-2.413 1.497-.616.394-1.139.736-1.883 1.182-.53.308-.745.521-.958.701-.445.429-.753.608-1.711.565-.137 0-.266 0-.394-.043.128.043.223.043.343.043 1.891.171 2.858.137 4.082-.223.659-.171 2.277-1.353 3.723-2.362 1.138-.787 2.234-1.574 3.03-2.02 1.181-.65 1.968-1.353 2.584-1.883.342-.309.608-.565.916-.745.351-.299 1.797-2.85 2.893-4.732 2.713-4.69 3.021-5.127 3.5-5.255.616-.171 1.318-.308 1.318-.308.351-.086.702.171.745.53.094.342-.18.702-.522.736 0 0-.573.085-1.095.265-.445.488-1.849 2.893-2.85 4.69-2.105 3.68-2.85 4.869-3.287 5.126-.223.137-.488.394-.796.659-.65.573-1.523 1.31-2.799 2.062-.745.394-1.84 1.182-2.936 1.926-1.66 1.182-3.244 2.276-4.125 2.542-.822.345-1.618.481-2.585.481z"/><path d="m72.146 58.564c-.976 0-1.763-.137-2.636-.394s-2.448-1.353-4.117-2.542c-1.053-.745-2.19-1.532-2.936-1.926-1.318-.753-2.19-1.489-2.807-2.062-.309-.266-.565-.479-.788-.659-.444-.309-1.138-1.489-3.286-5.118-1.01-1.797-2.414-4.211-2.85-4.69-.437-.137-.702-.137-.702-.137-.351-.042-.607-.351-.607-.702.034-.351.342-.616.701-.616.034 0 .428.051 1.044.223.479.137.788.565 3.51 5.254 1.053 1.849 2.542 4.434 2.893 4.742.257.171.564.428.873.735.616.531 1.403 1.232 2.585 1.883.787.445 1.883 1.232 3.029 2.021 1.438 1.01 3.063 2.148 3.723 2.362 1.225.359 2.191.394 4.074.222.128 0 .266-.042.351-.042-.137 0-.265.042-.394.042-.924.052-1.267-.171-1.712-.564-.171-.18-.437-.394-.958-.702-.702-.444-1.275-.787-1.883-1.181-.668-.445-1.37-.882-2.414-1.489-.051-.052-5.135-3.115-5.478-4.476-.085-.437-.351-.968-.658-1.669-.129-.3-.266-.608-.395-.959-.487-1.138-2.147-4.339-3.072-6.008-.916-1.617-3.235-5.032-4.33-5.734-1.062-.702-1.669-.745-1.669-.745-.352-.043-.608-.351-.608-.702.034-.351.343-.616.702-.616.086 0 .959.094 2.311.967 1.404.924 3.954 4.776 4.741 6.222.873 1.532 2.628 4.861 3.15 6.136.137.343.265.65.394.916.308.744.573 1.318.753 1.892.257.479 2.67 2.362 4.861 3.68 1.044.608 1.797 1.096 2.447 1.523.574.394 1.147.753 1.849 1.147.65.394.959.701 1.182.873.257.222.257.265.736.222.581-.051 1.061-.171 1.454-.265.522-.129 1.011-.309 1.404.094.257.257.308.65.171 1.044-.257.745-1.139 1.626-2.808 1.755-.65 0-1.317.043-1.83.043z"/><path d="m43.782 69.168h-.034-.18c-.967-.043-3.192-.18-5.083-1.395-.702-.445-1.096-.668-1.447-.839-.616-.309-1.181-.565-2.721-1.755-1.969-1.446-3.372-1.84-5.204-2.37-.36-.086-.753-.214-1.096-.3-2.328-.702-4.562-1.01-4.562-1.01-.351-.043-.608-.394-.574-.745.051-.351.394-.616.753-.564.085 0 2.319.342 4.724 1.044.394.137.753.223 1.096.309 1.883.53 3.466 1.01 5.614 2.584 1.489 1.096 1.968 1.361 2.533 1.626.402.172.839.395 1.583.925 1.532 1.001 3.552 1.13 4.425 1.181h.171c.36.034.668.343.616.702.002.342-.254.607-.614.607z"/><path d="m48.609 73.858c-.351 0-.616-.266-.659-.607 0 0-.085-1.062-.394-2.191-.214-.976-1.139-1.797-1.139-1.797-.171-.138-.265-.359-.222-.573.051-.223.171-.402.351-.522.043-.052.487-.223 2.233-.702.839-.223 1.275-.53 2.021-1.061.701-.479 1.626-1.13 3.286-2.012 1.926-1.001 2.447-1.224 2.893-1.403.343-.129.565-.214 1.438-.693 2.07-1.147 6.881-1.712 7.061-1.764.351-.034.701.223.744.574s-.223.701-.564.744c-.052 0-4.741.565-6.573 1.575-.924.53-1.232.616-1.583.787-.394.18-.916.394-2.765 1.369-1.575.822-2.447 1.438-3.149 1.917-.787.574-1.353.968-2.414 1.232-.479.138-.83.257-1.129.352.342.437.65 1.001.821 1.669.308 1.224.394 2.319.394 2.361.052.352-.214.702-.564.702-.044.043-.087.043-.087.043z"/><path d="m42.781 74.038c-1.84-.094-4.168-.839-5.298-1.189-.137-.043-.274-.086-.359-.129-.616-.171-.788-.616-.736-1.01.086-.924 1.523-1.353 2.893-1.446.787-.043 1.267-.043 1.703 0 .607.043.881.043 1.489-.266.437-.214.607-.616.787-1.044.18-.445.488-1.096 1.224-1.096.701 0 2.328.309 2.499.309.359.034.616.394.53.736-.051.359-.394.616-.744.53-.437-.086-1.532-.266-2.148-.309-.043.086-.085.223-.137.309-.214.53-.565 1.318-1.438 1.746-.924.445-1.455.394-2.105.359-.394 0-.839-.052-1.541 0-.394.034-.702.086-.958.128 1.138.352 3.03.916 4.425.968.351 0 .659.308.616.701-.043.43-.351.703-.702.703z"/><path d="m44.621 31.134c-2.584 0-4.775-2.405-5.221-5.743-.034-.346.223-.697.573-.745.351-.042.702.223.745.574.351 2.67 2.02 4.604 3.903 4.604 2.054 0 3.766-2.285 3.937-5.131.052-.351.36-.659.702-.616.359.047.668.351.616.702-.223 3.591-2.499 6.355-5.255 6.355z"/><path d="m38.75 26.007c-.085 0-.171 0-.265-.042-.18-.09-.3-.223-.351-.351-.043-.09-.924-2.366-.565-4.472.522-3.197 3.107-5.169 5.298-5.388 3.551-.351 5.786.745 6.966 3.462 1.096 2.584.573 5.478.522 5.563-.034.175-.12.351-.3.441-.18.085-.351.128-.521.042-.095-.042-1.849-.569-3.988-1.711-1.276-.655-2.328-1.532-2.979-2.144-.222.698-.582 1.622-.976 2.234-.916 1.446-2.533 2.191-2.584 2.234-.034.132-.129.132-.257.132zm5.34-8.982c-.342 0-.702 0-1.095.043-1.703.175-3.714 1.84-4.117 4.292-.18 1.095.094 2.281.265 3.025.437-.308 1.01-.745 1.353-1.356.488-.792.976-2.367 1.095-2.94.051-.218.274-.437.488-.479s.488 0 .659.176c0 0 1.489 1.622 3.458 2.627 1.181.616 2.327 1.095 2.978 1.361.086-.92.086-2.589-.564-4.031-.788-1.888-2.192-2.718-4.52-2.718z"/><path d="m46.897 17.244c-.043 0-.085 0-.128 0-.352-.09-.573-.441-.522-.788.034-.308.171-1.228 0-1.844-.137-.522-.976-.873-1.669-.92-.573-.043-1.617.351-1.711 1.143-.085 1.005 0 1.313 0 1.313.094.351-.085.702-.437.788-.351.09-.702-.133-.839-.479-.034-.132-.12-.573-.034-1.754.128-1.622 1.926-2.456 3.064-2.366 1.181.085 2.499.659 2.842 1.84.308 1.01.051 2.324 0 2.452 0 .439-.257.615-.566.615z"/></g></svg>