<svg enable-background="new 0 0 88 88" viewBox="0 0 88 88" xmlns="http://www.w3.org/2000/svg"><path d="m37.6 58.2c-.4 0-.6-.2-.6-.6-.1-.4.1-.7.5-.7 0 0 .9-.2 1.1-1.7.4-1.8 0-3.3 0-3.3-.1-.4.1-.7.5-.9.4-.1.7.1.9.5 0 .1.4 1.7 0 3.8-.5 2.5-2.2 2.8-2.2 2.8-.2.1-.2.1-.2.1z" fill="#575756"/><path d="m51.6 57.9c-.1 0-.2 0-.2-.1-.1 0-1.7-.7-2.2-2.6-.5-1.7 0-3.8 0-3.8.1-.4.5-.6.9-.5s.6.5.5.9c0 0-.4 1.7 0 3.1.4 1.2 1.5 1.7 1.5 1.7.4.1.5.6.4.9-.4.3-.6.4-.9.4z" fill="#575756"/><path d="m44.6 53.6c-5.3 0-9.7-5-10.6-11.9 0-.4.2-.7.6-.7s.7.2.7.6c.9 6.1 4.7 10.7 9.2 10.7 4.9 0 9-5.3 9.3-11.9 0-.4.4-.6.7-.6s.6.4.6.7c-.3 7.5-4.8 13.1-10.5 13.1z" fill="#575756"/><path d="m31.9 42.6c-.1 0-.1 0-.2 0-.1-.1-.4-.2-.4-.4-.1-.2-2-4.9-1.2-9.3 1-6.6 6.4-10.7 10.9-11 7.4-.7 11.9 1.5 14.4 7.1 2.3 5.4 1.2 11.4 1.1 11.7 0 .2-.1.4-.4.5-.1.1-.4.1-.5.1s-3.9-1.2-8.5-3.7c-3.3-1.7-5.9-4.1-7.2-5.4-.5 1.5-1.4 4.2-2.3 5.9-1.8 2.9-5.2 4.5-5.3 4.5-.2 0-.3 0-.4 0zm11.6-19.7c-.7 0-1.6 0-2.5.1-5.2.6-9 5.5-9.7 9.9-.5 3.1.4 6.4.9 7.9 1-.6 2.8-1.8 4.1-3.7 1.4-2.2 2.5-6.5 2.5-6.6 0-.2.2-.5.5-.5s.5 0 .6.2c0 0 3.3 3.7 7.7 5.9 3.3 1.7 6.1 2.8 7.5 3.3.2-1.7.5-6.3-1.1-10.2-1.9-4.3-5.2-6.3-10.5-6.3z" fill="#575756"/><path d="m49.6 23.6c-.5-.1-.7-.5-.6-.9 0 0 .5-2.6 0-4.3-.5-1.5-2.5-2.3-4.3-2.5-1.5-.1-4.3 1-4.5 3.2-.1 2.3 0 3.1 0 3.1.1.4-.1.7-.5.9-.4.1-.7-.1-.9-.5 0-.1-.2-.9 0-3.6.2-2.9 3.6-4.5 5.9-4.4 2.2.1 4.9 1.2 5.5 3.4.6 2.1 0 4.9 0 5 0 .3-.3.6-.6.6z" fill="#575756"/><path d="m36.3 37.2c1.4-2.2 2.5-6.5 2.5-6.6 0-.2.2-.5.5-.5s.5 0 .6.2c0 0 3.3 3.7 7.7 5.9 3.3 1.7 6.1 2.8 7.5 3.3.2-1.7.5-6.3-1.1-10.2-1.8-4.4-5.2-6.4-10.4-6.4-.7 0-1.6 0-2.5.1-5.2.6-9 5.5-9.7 9.9-.5 3.1.4 6.4.9 7.9.9-.5 2.8-1.8 4-3.6z" fill="none"/><path d="m39.9 32.2c-.5 1.5-1.4 4.2-2.3 5.9-.7 1.2-1.8 2.2-2.7 2.9.4 0 .6.2.6.6.9 6.1 4.7 10.7 9.2 10.7 4.8 0 8.8-5.2 9.3-11.5-1.6-.6-4.1-1.6-6.9-3.2-3.3-1.8-5.9-4.1-7.2-5.4z" fill="none"/><path d="m48.9 18.4c-.5-1.5-2.5-2.3-4.3-2.5-1.5-.1-4.3 1-4.5 3.2-.1 1.6 0 2.5 0 2.8.2 0 .6-.1.9-.1 3.2-.4 5.8-.1 8 .7.1-.4.3-2.6-.1-4.1z" fill="none"/><path d="m22.5 67.6c-.1 4.1.4 8.7 1.4 13.9 2.2 1.5 4.7 2.7 7.1 3.7-.1-1.6-.2-3.1-.2-4.1-.2-4.9-1.6-10.3-1.6-10.3-.1-.2 0-.5.1-.6.2-1.2.5-4.4-.1-11.4-.8.2-6.5 2.9-6.7 8.8z" fill="none"/><path d="m65.5 62.7c-2.7-3.3-4.7-3.8-5.4-3.9-.2 1.5-.6 4.8-.5 7.7.2 3.9 2.2 8.7 2.2 8.7v.2s-.1 3.4-.1 8.1c2.5-1.2 4.8-2.8 7-4.5-.2-2.6-.2-4.7-.4-6.3-.2-4.6-.2-6.7-2.8-10z" fill="none"/><path d="m60.4 75.7c-.4-.9-2.1-5.3-2.3-9.1-.2-3.2.2-6.6.5-8.1l-6-.9c-.6.6-2.2 2.2-4.7 2.7-2.8.6-5.5.4-8.7-.9-1.6-.6-2.1-1.1-2.3-1.6 0 0-.1 0-.2 0-1 0-4.3.4-6 .6.5 6.1.5 10.2.1 12.2v.1c.2 1.2 1.5 5.9 1.6 10.3 0 1 .2 2.8.4 4.5.9.2 1.8.6 2.8.9.7-.9 1.5-1.7 2.2-2.6 2.3-2.6 4.4-5 5-6.4.7-1.6.7-2.2.7-2.9s.1-1.5.7-2.8c.9-1.7 2-2.3 2.7-2.5.5 0 1 .2 1.1.6.2.4.2.9-.1 1.5-.4.6-.5 1.7-.4 2.1.1 0 .2-.1.4-.2l.4-.4c2.2-2.3 4.3-4.3 5.9-4.3.5 0 1 .1 1.4.5 1.8 1.8.1 7.5-1.4 9.3-.9 1-1.6 1.5-2.7 2.1-1 .6-2.2 1.4-3.9 2.8-.9.7-2 2.3-3.2 4.3h.4c5.5 0 10.9-1.2 15.6-3.3-.2-4.3 0-7.7 0-8.5z" fill="none"/><path d="m22.3 80.4c-.9-4.7-1.2-9-1.1-12.8.1-7.2 7.4-9.9 7.6-10.1h.5c.1-.1.2-.2.5-.4.2 0 5.4-.7 6.9-.7.5 0 .9.1 1 .2.2-.1.7-.6 1-1.6.4-1.8 0-3.3 0-3.3-.1-.2 0-.4.1-.5-2.5-2.1-4.2-5.5-4.7-9.6 0-.1 0-.1 0-.2-1 .7-1.8 1.1-1.8 1.1-.1 0-.2 0-.4 0-.1 0-.1 0-.2 0-.1-.1-.4-.2-.4-.4-.1-.2-2-4.9-1.2-9.3.9-5.5 4.8-9.3 8.7-10.6 0-.4-.1-1.4 0-3.3.2-2.9 3.6-4.5 5.9-4.4 2.2.1 4.9 1.2 5.5 3.4.6 2.1 0 4.9 0 5 2.3 1.2 3.9 3.1 5.2 5.9 2.3 5.4 1.2 11.4 1.1 11.7 0 .2-.1.4-.4.5-.1.1-.4.1-.5.1 0 0-.1 0-.4-.1-.4 4.3-2.2 8-4.8 10.2.1.1.1.2 0 .5 0 0-.4 1.7 0 3.1.4 1.1 1.1 1.6 1.4 1.7.1-.1.4-.2.6-.2l7.1 1h.2c1 0 3.4.4 6.6 4.5 2.8 3.6 2.9 6 3.1 10.8.1 1.5.1 3.3.2 5.4" fill="none"/><path d="m46.6 82.1c1.8-1.6 3.1-2.3 4.2-2.9 1-.6 1.7-1 2.3-1.8 1.6-2 2.3-6.5 1.5-7.5-.1-.1-.2-.1-.4-.1-1.2 0-3.7 2.6-4.9 3.9l-.4.3c-1.1 1.1-1.8.9-2.1.6-1-.7-.6-2.8-.1-3.9-.4.1-.9.6-1.4 1.6-.5 1.2-.5 1.7-.6 2.3 0 .7-.1 1.6-.9 3.4-.7 1.6-2.8 3.9-5.3 6.8-.6.6-1.2 1.4-1.7 2 2 .4 3.8.6 5.9.7 1.6-2.4 2.9-4.5 3.9-5.4z" fill="none"/><path d="m49.2 55.2c-.2-1-.2-2.1-.1-2.8-1.4.7-2.8 1.2-4.4 1.2s-3.2-.5-4.5-1.4c.1.7.1 1.7-.1 2.9-.2 1.4-.9 2.1-1.5 2.5.2.1.6.4 1.4.6 2.9 1.1 5.4 1.4 7.9.9 1.4-.4 2.5-1 3.2-1.6-.8-.3-1.5-1-1.9-2.3z" fill="none"/><g fill="#575756"><path d="m36.9 86.8c-.5-.1-1-.2-1.5-.4"/><path d="m44.3 87.7c-.5 0-1.1 0-1.6 0"/><path d="m23.9 81.5c-.5-.4-1.1-.7-1.6-1.1"/><path d="m38.1 57.2c.1.1.1.2.4.5.5-.4 1.1-1.1 1.5-2.5.2-1.2.1-2.2.1-2.9-.5-.2-1-.6-1.4-1-.1.1-.1.4-.1.5 0 0 .4 1.5 0 3.3-.1 1.1-.6 1.5-1 1.6.3.1.4.3.5.5z"/><path d="m49.2 55.2c.4 1.2 1.1 2 1.7 2.3.6-.5 1-1 1-1-.2-.1-1.1-.6-1.4-1.7-.4-1.4 0-3.1 0-3.1 0-.1 0-.4 0-.5-.5.4-1 .7-1.5 1.1-.1.9-.1 2 .2 2.9z"/><path d="m61.8 75.5s0-.1 0-.2c0 0-2-4.8-2.2-8.7-.2-2.9.2-6.3.5-7.7-.2 0-.4 0-.4 0-.4.1-.7-.1-.9-.5-.1-.4.1-.7.5-.9.1 0 .2 0 .5-.1-.1 0-.1 0-.2 0l-7.1-1c-.2 0-.4.1-.6.2h.1c.4.1.5.6.4.9-.2.4-.5.5-.7.5-.1 0-.2 0-.2-.1 0 0-.2-.1-.5-.2-.7.6-1.8 1.2-3.2 1.6-2.5.5-4.9.2-7.9-.9-.6-.2-1.1-.5-1.4-.6-.4.2-.7.4-.7.4-.1.1-.1.1-.1.1-.4 0-.6-.2-.6-.6-.1-.4.1-.7.5-.7 0 0 .1 0 .1-.1-.2-.1-.5-.2-1-.2-1.5 0-6.6.7-6.9.7-.2.1-.4.2-.5.4.1 0 .4.1.4.4.1.4 0 .7-.4.9 0 0 0 0-.1 0 .5 7 .4 10.1.1 11.4.1-.1.2-.2.4-.2.4-.1.7.1.9.5 0 0 0 .1.1.4v-.1c.4-2 .4-6-.1-12.2 1.7-.2 5-.6 6-.6h.2c.2.5.7 1 2.3 1.6 3.2 1.2 5.9 1.5 8.7.9 2.5-.5 4.1-2.1 4.7-2.7l6 .9c-.2 1.5-.7 4.9-.5 8.1.2 3.8 2 8.2 2.3 9.1 0 .7-.1 4.2-.1 8.6.5-.2 1-.5 1.5-.7 0-5.2.1-8.6.1-8.6z"/><path d="m37 57.6c0 .4.2.6.6.6 0 0 0 0 .1-.1 0 0 .4-.1.7-.4-.2-.2-.4-.4-.4-.5-.1-.2-.2-.4-.5-.5 0 .1-.1.1-.1.1-.2 0-.5.4-.4.8z"/><path d="m50.9 57.6c.2.1.5.2.5.2 0 .1.1.1.2.1.2 0 .5-.1.7-.5.1-.2 0-.7-.4-.9 0 0 0 0-.1 0 .1.1-.3.6-.9 1.1z"/><path d="m39.1 50.9c.4-.1.7.1.9.5 0 0 .1.4.1.9 1.4.9 2.9 1.4 4.5 1.4s3.1-.5 4.4-1.2c.1-.6.1-1 .1-1 .1-.4.5-.6.9-.5.2.1.4.2.5.4 2.6-2.2 4.3-5.9 4.8-10.2-.2-.1-.7-.2-1.4-.5-.5 6.5-4.4 11.5-9.3 11.5-4.5 0-8.3-4.5-9.2-10.7 0-.4-.4-.6-.6-.6-.2.1-.5.4-.6.5v.2c.5 4.1 2.2 7.4 4.7 9.6-.2-.1.1-.3.2-.3z"/><path d="m40 51.4c-.1-.4-.5-.6-.9-.5-.1 0-.4.1-.4.4.5.4.9.7 1.4 1 0-.5-.1-.9-.1-.9z"/><path d="m50 50.9c-.4-.1-.7.1-.9.5 0 0-.1.4-.1 1 .5-.2 1-.6 1.5-1.1-.1-.1-.2-.2-.5-.4z"/><path d="m34.7 41c1-.7 2.1-1.7 2.8-2.9 1-1.7 1.8-4.4 2.3-5.9 1.4 1.4 3.9 3.7 7.2 5.4 2.8 1.5 5.3 2.6 6.9 3.2 0-.1 0-.2 0-.4 0-.4.4-.6.7-.6.4 0 .6.4.6.7 0 .2 0 .5-.1.6.1 0 .2.1.4.1.1 0 .4 0 .5-.1.2-.1.4-.2.4-.5.1-.2 1.2-6.3-1.1-11.7-1.2-2.7-2.9-4.7-5.2-5.9 0 .2-.2.5-.6.5h-.1c-.4-.1-.6-.5-.5-.9 0 0 0 0 0-.1-2.2-.9-4.8-1.1-8-.7-.2 0-.6.1-.9.1v.2c.1.4-.1.7-.5.9-.4.1-.7-.1-.9-.5 0 0 0-.1 0-.2-3.9 1.2-7.9 5-8.7 10.6-.7 4.4 1.1 9.1 1.2 9.3 0 .1.2.2.4.4h.2.4s.9-.4 1.8-1.1c.3-.3.6-.5.8-.5zm-2.5-.1c-.5-1.5-1.4-4.8-.9-7.9.7-4.4 4.5-9.3 9.7-9.9.9-.1 1.7-.1 2.5-.1 5.3 0 8.6 2 10.4 6.4 1.6 3.9 1.4 8.5 1.1 10.2-1.4-.5-4.2-1.6-7.5-3.3-4.4-2.2-7.7-5.9-7.7-5.9-.1-.2-.4-.2-.6-.2s-.5.2-.5.5c0 .1-1.1 4.4-2.5 6.6-1.1 1.7-3 3-4 3.6z"/><path d="m34.7 41c-.2 0-.5.2-.6.5.2-.1.5-.3.6-.5z"/><path d="m54.7 39.8c-.4 0-.7.2-.7.6v.4c.6.2 1 .4 1.4.5 0-.2 0-.4.1-.6-.2-.6-.4-.9-.8-.9z"/><path d="m40.1 19.1c.2-2.2 3.1-3.3 4.5-3.2 1.8.1 3.8 1 4.3 2.5.4 1.5.1 3.7 0 4.2.4.1.9.4 1.2.5 0-.1.6-2.9 0-5-.6-2.2-3.3-3.3-5.5-3.4-2.3-.1-5.6 1.5-5.9 4.4-.1 2-.1 2.9 0 3.3.5-.1.9-.2 1.4-.4 0-.4-.1-1.3 0-2.9z"/><path d="m39.6 23.1c.4-.1.6-.5.5-.9 0 0 0-.1 0-.2-.5.1-.9.2-1.4.4v.2c.2.3.5.6.9.5z"/><path d="m48.9 22.7c-.1.4.1.7.5.9h.1c.4 0 .6-.2.6-.5-.4-.2-.7-.4-1.2-.5z"/><path d="m47.5 83.4c1.7-1.5 2.9-2.2 3.9-2.8 1.1-.6 1.8-1.1 2.7-2.1 1.5-1.8 3.2-7.5 1.4-9.3-.4-.4-.9-.5-1.4-.5-1.6 0-3.7 2-5.9 4.3l-.4.4c-.1.1-.2.2-.4.2-.1-.4 0-1.5.4-2.1s.4-1.1.1-1.5c-.1-.4-.6-.6-1.1-.6-.7.1-1.8.7-2.7 2.5-.6 1.4-.7 2.1-.7 2.8s0 1.4-.7 2.9c-.6 1.4-2.7 3.8-5 6.4-.7.9-1.5 1.7-2.2 2.6.5.1 1 .2 1.5.4.6-.7 1.2-1.4 1.7-2 2.5-2.8 4.5-5.2 5.3-6.8.7-1.8.9-2.7.9-3.4.1-.6.1-1.1.6-2.3.5-1 1-1.5 1.4-1.6-.5 1.1-.9 3.2.1 3.9.2.2 1 .5 2.1-.6l.4-.4c1.2-1.4 3.7-3.9 4.9-3.9.1 0 .2 0 .4.1.9 1 .1 5.5-1.5 7.5-.6.9-1.4 1.2-2.3 1.8-1.1.6-2.3 1.4-4.2 2.9-1 .9-2.3 2.9-3.9 5.5h1.6c1-2 2.1-3.6 3-4.3z"/><path d="m22.5 67.6c.1-5.9 5.9-8.6 6.6-8.8 0-.1 0-.4 0-.5v-.4c0-.1 0-.2.1-.4-.1 0-.4 0-.5 0-.2.1-7.5 2.8-7.6 10.1-.1 3.8.4 8.1 1.1 12.8.5.4 1.1.7 1.6 1.1-.9-5.1-1.4-9.8-1.3-13.9z"/><path d="m29.2 58.3v.5h.1c.4-.1.5-.5.4-.9-.1-.2-.2-.4-.4-.4-.1.1-.1.2-.1.4z"/><path d="m29.2 70.8s1.4 5.4 1.6 10.3c0 1 .1 2.5.2 4.1.5.2 1 .4 1.5.5-.1-1.7-.4-3.6-.4-4.5-.2-4.5-1.4-9.1-1.6-10.3-.1.4-.5.5-.9.4s-.6-.5-.5-.9v-.1c.1 0 0 .3.1.5z"/><path d="m29.8 71.2c.4.1.6-.1.9-.4 0-.2-.1-.4-.1-.4-.1-.4-.5-.6-.9-.5-.1 0-.2.1-.4.2v.1c-.1.5.1.9.5 1z"/><path d="m66.5 61.9c-3.2-4.1-5.6-4.5-6.6-4.5.1 0 .2.1.2.2.1.1.1.4.1.5 0 0 0 .2-.1.7.7.1 2.8.6 5.4 3.9s2.6 5.4 2.8 10.1c.1 1.6.2 3.7.4 6.3.4-.4.7-.6 1.1-1-.1-2.1-.2-3.9-.2-5.4-.2-4.8-.3-7.3-3.1-10.8z"/><path d="m58.9 58.3c.1.4.5.6.9.5h.4c.1-.5.1-.7.1-.7 0-.1 0-.4-.1-.5s-.1-.1-.2-.2c-.2 0-.4 0-.5.1-.5.1-.7.4-.6.8z"/></g></svg>