<svg enable-background="new 0 0 88 88" height="88" viewBox="0 0 88 88" width="88" xmlns="http://www.w3.org/2000/svg"><g fill="#585857"><path d="m49.602 46.765c-.129 0-.266-.051-.394-.137-.043-.043-.095-.086-.129-.086-.137.138-.273.172-.445.172-.257 0-.479-.129-.565-.343-.359-.659-.137-1.182 0-1.542.043-.034.043-.128.043-.171 0 0 0 0 0-.043-.094.085-.18.18-.308.265l-.043.035c-.086.137-.352.445-.788.445-.137 0-.266-.051-.445-.085-.257-.138-.428-.446-.342-.754.034-.257.128-.522.171-.784.137-.616.257-1.271.437-1.888.437-1.4 1.361-2.363 2.68-2.847.034 0 .086-.043.129-.043.18-.047.394-.047.573-.047 1.49 0 2.449 1.01 3.237 1.931.359.394.308.878.308 1.271v.261.484.175.086c0 .09-.043.223-.043.308-.042.351-.085.698-.214 1.092-.051.18-.18.308-.359.359-.034.035-.129.035-.214.035-.266.531-.659.976-1.19 1.37-.214.12-.479.172-.702.034-.086-.034-.171-.128-.257-.214-.257.214-.565.437-.873.608-.054.053-.14.053-.267.053zm.179-2.586c.086 0 .171 0 .214.034.18.094.309.223.395.402.094-.128.18-.266.265-.437.129-.223.343-.355.565-.355.223 0 .445.133.574.355.042-.137.128-.309.18-.484.034-.223.214-.398.428-.484 0-.09.052-.218.052-.308 0-.043 0-.128 0-.176 0-.128 0-.218 0-.351 0-.128 0-.261 0-.394s0-.304 0-.351c-.84-1.006-1.542-1.576-2.552-1.447-.874.351-1.49 1.053-1.79 2.017-.094.223-.128.484-.223.702.043-.043.095-.086.129-.128.137-.133.359-.351.753-.351.086 0 .215 0 .309.042.565.219.565.788.565.963 0 .266-.043.484-.086.698.129.053.17.053.222.053z"/><path d="m45.218 49.394c-.522 0-.745-.309-.831-.488-.086-.171-.266-.702.308-1.13.788-.882 1.268-1.884 1.49-3.031.034-.128.085-.257.085-.308.086-.171.223-.309.395-.394.085-.043.128-.043.222-.043.035-.042.035-.042.086-.085.223-.218.437-.441.651-.702.137-.133.308-.308.444-.437.129-.133.343-.351.737-.351.094 0 .222 0 .308.042.574.219.574.788.574.963 0 .266-.043.484-.086.698.128-.034.266 0 .351.052.172.085.309.214.395.394.085-.137.171-.265.257-.445.137-.214.359-.347.573-.347.223 0 .437.133.574.347.043-.128.128-.304.171-.479.052-.218.223-.394.445-.479.214-.09.428 0 .607.128.129.133.215.266.266.398.172.175.257.398.223.655-.53 2.278-1.978 3.768-4.478 4.607-1.139.342-2.278.394-3.417.394h-.266c.001.041-.041.041-.084.041zm0-1.311v.651zm2.191-2.808c-.214 1.01-.616 1.926-1.224 2.808.83-.051 1.661-.094 2.405-.359 1.054-.343 1.893-.83 2.458-1.438-.086-.051-.172-.137-.266-.223-.266.223-.574.437-.882.617-.214.128-.514.128-.693-.052-.043-.043-.095-.086-.129-.086-.137.138-.273.172-.445.172-.257 0-.479-.129-.565-.343-.359-.659-.137-1.182 0-1.542.043-.034.043-.128.043-.171 0 0 0 0 0-.043-.094.085-.18.18-.308.265l-.043.035c.001.095-.136.274-.351.36z"/><path d="m53.635 40.36c-.223 0-.445-.086-.66-.219-.521-.351-1.181-.788-1.841-1.271-.616-.394-.479-.963-.437-1.229.3-1.49 1.097-2.714 1.841-3.9.172-.261.352-.569.531-.831 2.929-4.692 6.088-9.166 9.419-13.242.265-.308.53-.526.839-.702.214-.133.522-.133.702.043l.12.09c.273.175.359.484.223.745-.129.351-.257.702-.395 1.053-.257.788-.564 1.532-.873 2.32-1.798 4.692-4.033 9.427-6.576 14.119-.616 1.139-1.489 2.017-2.277 2.719-.137.176-.394.305-.616.305zm-1.661-2.496c.607.394 1.182.788 1.618 1.096.659-.616 1.361-1.361 1.841-2.239 2.5-4.645 4.692-9.38 6.49-13.982.034-.133.128-.309.171-.441-2.809 3.553-5.437 7.368-7.929 11.358-.18.304-.359.569-.573.874-.702 1.053-1.362 2.063-1.618 3.334z"/><path d="m50.304 40.099c-.129 0-.309-.043-.437-.176-.266-.218-.309-.659-.086-.92.3-.394.702-1.139.822-1.404.137-.351.53-.479.882-.304.351.128.488.522.309.873-.043.133-.522 1.096-1.011 1.713-.086.128-.265.218-.479.218z"/><path d="m52.676 41.546c-.138 0-.274-.042-.402-.133-.3-.218-.352-.612-.129-.92l.925-1.182c.214-.308.607-.351.916-.132.3.218.352.612.129.92l-.925 1.182c-.121.175-.3.265-.514.265z"/><path d="m47.804 75.911c-.18 0-.395-.085-.522-.214l-33.942-40.551c-.214-.265-.171-.702.094-.92.266-.218.702-.175.917.085l33.41 39.939 18.238-24.197-10.438-11.183c-.265-.261-.214-.702.043-.92.266-.261.702-.218.925.043l10.789 11.581c.214.214.214.565.034.822l-19.061 25.301c-.051.129-.273.214-.487.214.043 0 .043 0 0 0z"/><path d="m13.871 35.364c-.257 0-.479-.132-.617-.394-.171-.309 0-.702.308-.878l26.784-12.625c.274-.133.574-.09.753.132l12.184 12.36c.266.266.266.66 0 .921-.266.265-.659.265-.916 0l-11.842-12.008-26.39 12.45c-.093.042-.179.042-.264.042z"/><path d="m37.28 52.33c-.351 0-.702-.085-1.045-.308-.882-.565-2.372-1.713-2.5-3.151-.051-.531.085-1.318.959-2.106.085-.085.223-.18.351-.266-.18 0-.308 0-.437 0h-.394-.788c-1.011 0-2.158-.042-3.117-.573-.925-.479-1.233-1.618-.788-2.629-.042 0-.085 0-.085 0-1.627 0-2.852-.394-3.553-1.182-.522-.569-.788-1.229-.745-1.974.043-.963.565-1.974 1.404-2.804 1.533-1.447 3.63-2.234 6.405-2.457 1.13-.086 1.918.702 1.969 1.798.043.659-.266 1.404-.874 1.798.086 0 .171-.043.257-.043 1.404-.351 2.809-.702 4.298-.745h.343c1.892 0 3.074.655 3.562 1.927.565 1.537-.488 3.331-1.764 3.904-.034.043-.12.043-.171.086.531.488.873 1.096.924 1.798.043.968-.359 1.884-1.147 2.543-.479.437-1.002.745-1.524 1.011.428.479.565 1.139.394 1.832-.359.925-1.095 1.541-1.934 1.541zm-1.181-7.192c.616 0 1.139.052 1.533.086.265.052.488.266.522.531.052.257-.085.564-.342.702-.085.042-.137.085-.223.085-.043.043-.137.043-.171.086-.223.086-.394.223-.616.309-.479.222-.925.444-1.268.744-.394.352-.531.659-.531 1.011.043.607.788 1.447 1.884 2.149.137.085.223.128.351.128.308 0 .522-.266.608-.573.051-.214.051-.522-.3-.736-.128-.086-.308-.18-.437-.309-.223-.137-.308-.351-.266-.616.043-.223.18-.437.394-.531h.043c.085-.034.137-.034.171-.085.668-.309 1.37-.702 1.978-1.182.437-.395.702-.959.702-1.49 0-.309-.128-.702-.574-1.01-.257-.171-.616-.309-1.01-.437-.3-.085-.522-.351-.479-.655 0-.309.266-.569.574-.617.608-.085 1.139-.261 1.576-.437.745-.351 1.361-1.447 1.096-2.282-.18-.437-.574-1.049-2.277-1.049-.094 0-.214 0-.309 0-1.361.043-2.671.394-4.033.698-.925.223-1.884.483-2.843.616l-.402.086c-.608.09-1.361.222-2.063.222-.309 0-.608-.047-.874-.09-.223-.042-.437-.218-.479-.437-.085-.223-.051-.484.128-.659.308-.351.659-.612.968-.788.925-.616 2.192-.967 3.819-1.096.565-.047.693-.527.65-.792 0-.218-.085-.569-.531-.569 0 0-.034 0-.085 0-2.449.175-4.298.877-5.608 2.106-.608.57-.968 1.272-1.002 1.884 0 .394.12.745.394 1.053.608.655 1.969.92 3.896.702.265-.047.522.086.659.351.128.261.085.527-.086.745-.222.218-.394.479-.531.788-.171.347-.128.741.223.963.702.394 1.661.445 2.5.445h.788.394.702c.221-.05.479-.05.787-.05z"/></g></svg>