<svg enable-background="new 0 0 88 88" height="88" viewBox="0 0 88 88" width="88" xmlns="http://www.w3.org/2000/svg"><g fill="#585857"><path d="m59.358 89.146c-.043 0-.043 0 0 0-.396 0-.661-.31-.661-.704.138-2.721-1.271-8.084-3.69-12.083l-.789-1.227c-2.283-3.647-3.776-6.102-3.861-8.299-.052-1.407.703-3.519 1.493-5.758.566-1.622 1.184-3.339 1.355-4.522.138-.885.181-1.588.223-2.249.086-1.407.172-2.506 1.142-3.861.704-.97 1.931-1.674 2.986-2.248.918-.523 1.896-1.099 2.068-1.579.172-.566 0-.704-.532-1.099-.257-.172-.48-.344-.703-.618-.48-.609-.523-1.532-.523-2.145 0-.133 0-.266 0-.352-.129 0-.353 0-.575.043-.344.043-.738.043-1.271.086-1.013.047-1.802 0-1.974-.657-.086-.352.086-.704.438-.879.215-.176 1.279-1.013 1.931-1.493.267-.219.446-.395.481-.442l-.035-.043c-.094-.086-.488-.352-.755-.485-.48-.262-.927-.523-1.142-.875-.789-1.099.215-1.978.799-2.42.429-.395.429-1.27.3-1.536-.395-.043-1.099-.086-1.845-.086-.532 0-1.099-.047-1.665-.047-1.459-.043-2.282-.395-2.814-1.142-.224-.352-.704-1.056-2.025-2.24-1.185-1.099-5.535-3.119-6.059-3.295-.352-.133-.532-.528-.395-.836.128-.352.523-.528.832-.395.043 0 5.003 2.154 6.496 3.562 1.407 1.317 1.939 2.107 2.197 2.458.095.133.36.485 1.768.571.566.043 1.133.043 1.622.043.97.047 1.759.047 2.197.133.438.09.789.485.97 1.099.214.879.034 2.111-.79 2.768-.446.352-.575.528-.618.57 0 0 0 .047.043.047.086.129.48.352.747.48.48.266.927.528 1.142.88l.128-.043c.661.922 0 1.626-.737 2.24-.275.176-.575.438-.884.661.309 0 .608-.047.832-.047.875-.085 1.802-.128 1.974.97 0 .176.052.395.052.614 0 .485.043 1.099.257 1.412.086.086.267.215.446.343.523.395 1.536 1.099 1.013 2.644-.36.961-1.493 1.621-2.686 2.325-1.004.575-2.017 1.142-2.549 1.888-.79 1.056-.832 1.846-.927 3.167-.034.652-.086 1.407-.215 2.325-.215 1.313-.832 3.081-1.45 4.789-.746 2.017-1.493 4.127-1.45 5.277.095 1.837 1.588 4.308 3.647 7.638l.789 1.278c2.644 4.266 4.051 9.843 3.913 12.83-.043.306-.309.564-.661.564z"/><path d="m27.237 87.214c-.309 0-.566-.214-.652-.48 0-.043-.755-3.029-1.407-7.561-.704-4.788.747-7.731 2.197-10.538.927-1.888 2.24-2.986 3.733-4.308.918-.789 1.845-1.579 2.858-2.678 2.506-2.771 3.244-5.853 3.295-5.887.085-.36.438-.583.79-.489.352.086.566.438.48.79-.043.129-.833 3.476-3.553 6.462-1.064 1.141-2.068 2.025-2.952 2.814-1.442 1.228-2.592 2.231-3.424 3.861-1.364 2.764-2.677 5.406-2.068 9.801.669 4.479 1.364 7.423 1.364 7.423.095.352-.128.703-.48.789-.095.001-.129.001-.181.001z"/><path d="m20.432 37.304c-.094 0-.18 0-.223-.042-1.622-.618-2.892-1.893-3.562-3.562-.789-1.978-.609-4.394.395-6.458.927-1.845 2.472-3.163 4.359-3.78 1.974-.656 4.085-.48 6.016.528.3.176.438.571.3.879-.171.309-.566.438-.875.309-1.579-.837-3.381-.97-5.012-.442-1.579.528-2.849 1.626-3.596 3.119-.884 1.716-1.013 3.737-.352 5.359.532 1.364 1.493 2.33 2.815 2.815.343.133.523.527.395.832-.136.267-.36.443-.66.443z"/><path d="m35.106 56.329c-1.845 0-3.647-.309-4.308-.446-3.819-.738-7.028-3.201-9.088-7.02-2.025-3.741-2.686-8.354-1.802-12.924 1.622-8.479 7.989-14.631 15.198-14.631.747 0 1.536.09 2.283.223 2.377.438 4.042 1.888 5.192 4.346.12.266.034.571-.18.747-.043.047-3.338 3.077-5.012 7.736-1.004 2.811.575 5.797 1.45 7.38.309.613.481.879.532 1.141.034.395-.086.618-.223.747-.086.09-.309.309-.661.309-.395 0-.918-.219-1.622-.528-.223-.086-.446-.219-.704-.309-.395-.176-.755-.085-.875.176-.137.223-.137.528 0 .832.481 1.013 1.579 1.716 2.541 2.334l.309.172c.97.617 1.013 3.604.172 8.873-.035.274-.215.446-.48.532-.739.224-1.666.31-2.722.31zm0-33.7c-6.462 0-12.435 5.844-13.885 13.619-.833 4.261-.214 8.53 1.673 12.04 1.836 3.424 4.737 5.673 8.169 6.325 1.322.266 2.849.395 4.042.395.747 0 1.399-.043 1.931-.172.48-3.072.704-6.548.309-7.165l-.257-.181c-1.064-.652-2.377-1.493-3.038-2.849-.352-.747-.309-1.493.042-2.111.489-.79 1.536-1.099 2.549-.657.266.086.48.219.704.305.086.047.172.09.258.133-.875-1.669-2.678-5.05-1.493-8.393 1.458-4.085 4.05-6.985 5.011-7.951-.918-1.845-2.197-2.858-3.999-3.209-.703-.086-1.354-.129-2.016-.129z"/><path d="m64.765 46.486c-.129 0-.31-.043-.438-.181l-6.248-5.226c-.12-.128-.214-.304-.214-.48s.094-.352.214-.485l7.209-6.724c.266-.219.66-.219.927 0 .086.09 2.592 2.549 3.467 4.132.18.309.052.704-.258.879-.309.176-.703.043-.884-.266-.575-1.051-2.068-2.634-2.771-3.381l-6.23 5.754 5.664 4.75c.266.215.309.652.086.919-.173.266-.345.309-.524.309z"/><path d="m76.323 79.748c-.223 0-.445-.129-.574-.309-1.493-2.592-3.476-11.165-5.192-18.717-1.004-4.479-2.196-9.534-2.592-10.108-.961-1.322-2.316-1.803-4.033-2.369l-.309-.086c-1.364-.446-1.545-1.098-1.45-1.587.129-.833 1.278-1.313 3.115-1.313 1.407 0 2.857-.223 3.741-1.759.704-1.146-.309-4.836-1.064-6.9-.12-.352.052-.704.396-.836.36-.129.703.047.841.399.223.614 2.196 5.973.961 8.032-1.27 2.163-3.295 2.42-4.874 2.42-.79 0-1.271.086-1.579.223.086.043.172.086.352.138l.309.086c1.846.609 3.476 1.184 4.694 2.849.532.755 1.322 4.137 2.815 10.59 1.63 7.122 3.655 15.953 5.054 18.33.181.301.095.695-.214.875-.182-.001-.268.042-.397.042z"/><path d="m84.407 75.44c-.309 0-.574-.181-.669-.489-.79-3.115-2.54-6.848-4.394-10.847-1.219-2.678-2.54-5.449-3.596-8.17-.353-.875-.704-1.545-1.056-2.154-.747-1.312-1.407-2.506-1.099-4.745.395-3.072-.258-8.35-1.536-9.753-1.407-1.583-3.698-3.472-4.042-3.647-.309-.176-.446-.571-.309-.879.172-.309.566-.442.875-.309.575.309 3.038 2.33 4.445 3.956 1.665 1.931 2.231 7.775 1.837 10.805-.215 1.854.223 2.677.97 3.956.352.617.746 1.364 1.141 2.325 1.056 2.729 2.369 5.458 3.604 8.135 1.888 3.999 3.647 7.818 4.479 11.07.086.353-.129.704-.48.79-.084-.044-.136-.044-.17-.044z"/></g></svg>