<svg enable-background="new 0 0 88 88" height="88" viewBox="0 0 88 88" width="88" xmlns="http://www.w3.org/2000/svg"><g fill="#585857"><path d="m59.057 38.761c-.099 0-.146 0-.244 0-1.803-.102-3.5-1.297-3.598-1.351-.351-.248-.448-.697-.194-1.047.255-.347.702-.449 1.043-.199s1.451.999 2.847 1.101c1.2.097 2.097-.751 2.097-.751.301-.297.75-.297 1.054 0 .292.302.292.751 0 1.047-.099.05-1.251 1.2-3.005 1.2z"/><path d="m57.214 51.186c-.204 0-.352-.049-.497-.194-.304-.254-.351-.751-.06-1.054 1.112-1.248 4.7-5.537 5.148-8.53.351-2.549-.849-4.646-.897-4.694-.155-.249-.155-.497 0-.75l3.296-6.185c.098-.2.292-.302.498-.352.206-.049.448 0 .593.097.061 0 3.103 2.1 6.748 3.246.39.103.593.55.497.951-.107.4-.556.6-.946.497-2.846-.897-5.295-2.248-6.443-2.993l-2.738 5.089c.39.848 1.188 2.848.837 5.294-.448 3.34-3.987 7.627-5.479 9.325-.11.204-.312.253-.557.253z"/><path d="m65.15 31.025c-.098 0-.206 0-.304-.053-.351-.146-.547-.595-.39-.995.039-.054.74-1.701 3.432-3.646 2.008-1.448 3.15-1.297 4.895-1.097.75.097 1.657.2 2.797.2.4 0 .751.346.751.745 0 .4-.351.751-.751.751-1.248 0-2.192-.15-2.992-.249-1.599-.2-2.302-.302-3.792.799-2.35 1.696-2.993 3.041-2.993 3.041-.098.354-.352.504-.653.504z"/><path d="m44.979 48.64c-1.542 0-3.296-.204-5.187-.651-.4-.098-.644-.488-.546-.896.097-.391.497-.645.897-.547 5.284 1.249 12.226.751 14.272-4.737.995-2.646-.546-6.839-2.593-9.389-.255-.298-.194-.794.098-1.047.302-.249.799-.2 1.054.103 2.301 2.896 4.036 7.584 2.788 10.83-1.092 3.186-4.583 6.334-10.783 6.334z"/><path d="m38.145 48.437c-2.837 0-5.137-.448-6.736-1.384-5.245-3.003-7.644-7.644-6.395-12.436 2.106-7.984 6.648-9.685 11.484-10.83.955-.199 1.891-.351 2.895-.351 7.838 0 14.126 7.087 14.879 7.989.145.146.242.347.242.546 0 .4-.352.751-.74.751-.098 0-.255-.048-.351-.103-.06-.048-5.597-2.896-9.789-2.896-1.394 0-2.437.302-3.139.951-2.944 2.594-5.597 6.688-6.542 8.184 1.15.848 3.646 2.749 4.942 4.451 1.891 2.495 3.393 3.391 3.393 3.391.253.147.4.488.352.799-.048.294-.302.547-.604.596-.099.049-1.738.342-3.891.342zm1.199-23.505c-.849 0-1.696.102-2.544.301-4.689 1.146-8.492 2.544-10.382 9.735-1.092 4.09 1.053 8.087 5.693 10.729 1.394.799 3.441 1.2 5.986 1.2.702 0 1.345-.049 1.891-.049-.643-.595-1.443-1.452-2.339-2.603-1.551-1.989-5.147-4.485-5.187-4.538-.351-.2-.409-.648-.205-.995.146-.253 3.394-5.742 7.244-9.134.995-.848 2.34-1.301 4.133-1.301 2.204 0 4.699.702 6.687 1.447-2.535-2.146-6.533-4.792-10.977-4.792z"/><path d="m19.535 57.629c-.156 0-.351-.048-.507-.204-.146-.099-3.1-2.69-3.042-5.439 0-1.189.546-2.193 1.6-3.041 3.841-3.103 6.337-4.096 17.266-2.301 5.547.895 9.981.7 13.579.505 4.29-.254 7.137-.409 8.336 1.892 1.94 3.695.302 7.838.244 8.033-.147.409-.595.555-.995.409-.401-.156-.546-.604-.401-1.004 0-.049 1.453-3.695-.205-6.736-.69-1.347-2.885-1.307-6.93-1.103-3.442.205-8.18.458-13.873-.498-10.841-1.793-12.781-.701-16.076 1.999-.692.545-1.004 1.2-1.043 1.901 0 1.733 1.794 3.684 2.535 4.289.313.254.351.74.107 1.045-.147.146-.352.253-.595.253z"/><path d="m60.206 57.522c-.194 0-.447-.098-.604-.245-.245-.302-.195-.799.108-1.042.049-.06 4.298-3.597 6.386-6.396 1.307-1.793 1.793-3.295 2.302-4.893.292-.947.604-1.946 1.091-3.091.557-1.248.956-3.993 1.307-6.688.594-4.446 1.042-7.239 2.085-8.141 1.307-1.146 1.561-1.249 2.848-1.345.351 0 .76-.049 1.305-.097 2.089-.254 3.238 0 5.588.546.652.151 1.354.302 2.193.449.409.103.654.501.604.901-.099.4-.507.648-.896.6-.859-.199-1.599-.351-2.253-.501-2.244-.497-3.248-.696-5.089-.497-.595.048-1.043.097-1.396.097-.955.048-.955.048-1.997.951-.704.6-1.249 4.591-1.599 7.239-.401 2.891-.8 5.64-1.452 7.088-.449 1.047-.74 1.993-1.044 2.901-.556 1.734-1.043 3.392-2.495 5.332-2.192 2.992-6.443 6.54-6.639 6.688-.001.047-.197.144-.353.144z"/><path d="m15.586 76.748c-.4 0-.751-.353-.751-.751v-12.878c0-3.938 3.198-7.088 7.087-7.088h62.792c.4 0 .751.352.751.75 0 .391-.352.741-.751.741h-62.742c-3.09 0-5.586 2.494-5.586 5.595v12.878c-.05.401-.352.753-.8.753z"/><path d="m15.586 78.59c-.4 0-.751-.342-.751-.749v-58.3c0-.395.351-.746.751-.746.399 0 .75.351.75.746v58.298c0 .409-.302.751-.75.751z"/><path d="m42.191 46c-.195 0-.449-.098-.604-.303-.244-.341-.195-.8.156-1.044 1.054-.8 1.249-2.35.449-3.397-.254-.351-.195-.799.146-1.047.351-.248.8-.199 1.044.151 1.306 1.696 1.004 4.14-.692 5.484-.148.095-.304.156-.499.156z"/><path d="m43.244 38.562c-.205 0-.449-.103-.605-.302-.253-.297-.195-.794.098-1.047.507-.396.799-.995.848-1.642.048-.653-.146-1.249-.546-1.75-.245-.298-.206-.799.097-1.047.302-.249.799-.2 1.043.103.653.794.955 1.842.857 2.842-.097 1.047-.604 1.998-1.403 2.646-.097.147-.254.197-.389.197z"/></g></svg>