<svg enable-background="new 0 0 88 88" height="88" viewBox="0 0 88 88" width="88" xmlns="http://www.w3.org/2000/svg"><g fill="#585857"><path d="m31.248 68.721c-.307 0-.561-.211-.646-.518-.085-.35.17-.695.519-.74.043 0 1.088-.305 1.394-2.09.392-2.176 0-3.826 0-3.826-.093-.355.127-.697.476-.781.349-.086.698.127.791.475 0 .086.425 1.914 0 4.354-.484 2.738-2.355 3.127-2.448 3.127-.001-.034-.035-.001-.086-.001z"/><path d="m47.347 68.467c-.085 0-.169 0-.254-.051-.083-.033-1.87-.865-2.481-2.908-.612-1.922-.043-4.223 0-4.35.085-.359.442-.572.781-.479.358.086.57.424.478.783 0 0-.478 2.039 0 3.654.441 1.479 1.784 2.092 1.784 2.125.306.18.485.529.306.877-.127.214-.392.349-.614.349z"/><path d="m14.535 139.238c-.086 0-.17 0-.255-.041-.356-.137-.484-.529-.356-.834 0-.037 1.964-4.914 2.873-9.877.305-1.523.663-3.045.96-4.525.791-3.484 1.522-6.791 1.607-10.184.093-2.703-.128-4.309-.341-5.832-.179-1.266-.357-2.568-.357-4.438 0-4.268.442-8.492 1.31-11.969.475-1.92.918-4.744 1.351-7.449.349-2.26.697-4.436 1.088-6.092.569-2.697-.178-6.225-.57-8.137-.128-.611-.213-.961-.213-1.225-.042-.34.213-.646.57-.695.255-.043 6.138-.867 7.873-.826.918.043 1.258.307 1.53.783.17.262.425.652 1.998 1.266 3.391 1.309 6.222 1.564 9.138.91 3.011-.654 4.881-2.916 4.881-2.959.126-.178.391-.264.604-.213l8.101 1.088c.17.035.342.129.427.256.092.137.136.348.136.527 0 .035-1.005 5.219-.741 9.707.264 4.438 3.308 11.971 3.308 12.004.041.086.041.178.041.305 0 .18-1.35 18.373.486 29.908 1.819 11.621 2.431 17.275 2.481 17.357.034.357-.221.699-.569.699-.348.051-.697-.213-.697-.562 0-.041-.613-5.693-2.438-17.273-1.787-11.102-.646-28.258-.527-30.041-.426-1.09-3.087-7.924-3.351-12.311-.211-3.74.392-7.795.664-9.359l-7.108-.961c-.645.697-2.565 2.482-5.345 3.137-3.138.689-6.266.391-9.888-.961-1.819-.697-2.295-1.258-2.651-1.828-.035-.043-.035-.084-.086-.127 0 0-.085-.051-.39-.051-1.259-.033-5.356.484-6.963.697.043.137.043.307.085.441.433 2.006 1.182 5.695.57 8.654-.357 1.615-.698 3.748-1.046 6.01-.434 2.748-.909 5.568-1.395 7.531-.824 3.35-1.267 7.49-1.267 11.664 0 1.742.178 2.969.357 4.268.213 1.607.425 3.266.34 6.045-.085 3.537-.867 6.885-1.649 10.455-.349 1.48-.655 2.959-.961 4.471-.961 5.053-2.865 9.932-2.958 10.102-.13.356-.394.485-.657.485z"/><path d="m-29.424 132.055c-1.351 0-2.873-.084-4.744-.256-3.697-.357-5.618-2.27-6.18-3.791-.264-.697-.17-1.311.169-1.648.528-.527 1.352-.307 2.534.035 1.037.303 2.295.662 3.825.746 1.649.084 1.828-.135 2.61-.834.518-.518 1.267-1.213 2.788-2.09 1.743-1.039 3.137-1.912 4.616-2.873 1.606-1.037 3.477-2.213 6.044-3.781 5.704-3.393 12.276-8.443 12.582-9.703.297-1.266.959-2.744 1.786-4.572.296-.695.654-1.48.994-2.346 1.361-3.146 5.662-11.461 7.796-15.234 2.354-4.182 8.399-13.059 11.536-15.148 3.179-2.092 5.22-2.262 5.305-2.262.357-.051.663.254.697.604 0 .35-.254.654-.612.697-.035 0-1.819.18-4.65 2.047-2.917 1.913-8.833 10.704-11.094 14.708-2.354 4.131-6.529 12.232-7.752 15.098-.349.875-.697 1.615-1.046 2.354-.783 1.785-1.438 3.223-1.692 4.354-.569 2.219-9.538 8.312-13.193 10.49-2.567 1.521-4.353 2.66-6.052 3.748-1.48.953-2.874 1.82-4.608 2.875-1.395.816-2.048 1.426-2.568 1.904-.961.875-1.445 1.266-3.527 1.182-1.701-.096-3.086-.484-4.141-.791-.391-.121-.867-.256-1.172-.297.051.176.136.475.441.875.425.562 1.692 1.904 4.692 2.209 4.879.479 7.362.357 10.541-.561 1.82-.527 5.782-3.316 9.615-6.002 2.831-2.006 5.526-3.875 7.49-5.016 3.001-1.691 4.999-3.434 6.613-4.826.825-.699 1.521-1.346 2.219-1.787.825-.561 4.48-6.963 7.49-12.096 5.525-9.582 7.259-12.404 8.178-12.666 1.53-.393 3.179-.74 3.264-.74.348-.086.697.17.74.527.093.338-.179.695-.519.73 0 0-1.657.307-3.094.697-.867.652-4.522 7.004-7.447 12.055-4.217 7.488-6.826 12.021-7.83 12.666-.604.391-1.3 1.004-2.083 1.701-1.573 1.35-3.706 3.219-6.835 4.963-1.921 1.039-4.659 3-7.362 4.914-4.089 2.873-7.965 5.619-10.014 6.225-2.125.611-3.995.916-6.35.916z"/><path d="m107.944 132.055c-2.347 0-4.184-.305-6.309-.916-2.059-.605-5.882-3.303-10.016-6.225-2.701-1.914-5.49-3.875-7.36-4.914-3.13-1.744-5.263-3.613-6.834-4.963-.783-.697-1.479-1.26-2.083-1.701-1.004-.697-3.656-5.221-7.882-12.531-2.915-5.092-6.57-11.408-7.446-12.055-1.387-.355-2.177-.441-2.177-.441-.337-.033-.604-.342-.604-.697.044-.342.35-.604.698-.604.043 0 .961.086 2.473.477.876.262 2.662 3.086 8.195 12.666 2.96 5.143 6.649 11.535 7.482 12.098.696.482 1.394 1.088 2.218 1.783 1.605 1.396 3.612 3.139 6.621 4.828 1.955 1.09 4.651 3.012 7.481 5.018 3.825 2.695 7.786 5.475 9.623 6.002 3.171.918 5.653 1.088 10.524.562 2.958-.299 4.269-1.652 4.71-2.213.254-.393.39-.697.426-.873-.298.041-.784.176-1.175.305-1.037.305-2.431.697-4.13.781-2.092.094-2.61-.297-3.521-1.172-.484-.484-1.182-1.088-2.576-1.914-1.741-1.053-3.137-1.922-4.615-2.873-1.691-1.088-3.436-2.229-6.045-3.74-3.662-2.176-12.624-8.279-13.185-10.492-.306-1.18-.918-2.564-1.7-4.35-.306-.75-.654-1.48-1.045-2.355-1.218-2.875-5.4-10.926-7.745-15.107-2.263-3.959-8.187-12.75-11.101-14.705-2.874-1.871-4.618-2.049-4.659-2.049-.35-.043-.613-.35-.613-.699.051-.348.306-.602.698-.602.085 0 2.132.127 5.312 2.26 3.138 2.09 9.139 10.967 11.537 15.148 2.125 3.783 6.476 12.098 7.784 15.234.352.824.698 1.609 1.004 2.346.833 1.828 1.48 3.309 1.785 4.574.308 1.217 6.878 6.309 12.582 9.707 2.608 1.566 4.438 2.738 6.054 3.785 1.479.959 2.863 1.826 4.607 2.865 1.521.873 2.262 1.57 2.787 2.092.731.695.952.916 2.609.83 1.521-.084 2.779-.439 3.835-.748 1.216-.338 1.997-.561 2.518-.033.355.342.39.953.177 1.65-.519 1.529-2.481 3.4-6.179 3.791-1.869.086-3.397.17-4.74.17z"/><path d="m39.221 63.545c-3.399 0-6.41-1.605-8.67-4.701-1.956-2.609-3.3-6.266-3.826-10.268-.052-.35.22-.699.561-.742.357-.041.698.213.748.572.816 6.434 4.259 13.838 11.187 13.838h.035c5.619-.051 10.405-6.096 10.881-13.805.05-.34.357-.605.696-.605.358.043.657.35.613.699-.526 8.525-5.746 14.969-12.19 15.012z"/><path d="m24.676 50.836c-.085 0-.179 0-.263-.043-.171-.086-.306-.211-.34-.348-.085-.223-2.177-5.616-1.394-10.576 1.173-7.486 7.226-12.101 12.36-12.624 4.965-.522 8.748.175 11.621 2.091.296.217.391.608.178.914-.223.302-.612.391-.918.175-2.618-1.744-6.138-2.352-10.795-1.875-5.917.569-10.321 6.312-11.137 11.493-.578 3.656.561 7.659 1.088 9.228 1.088-.611 3.383-2.09 4.829-4.352 1.564-2.526 2.823-7.575 2.823-7.618.049-.221.262-.438.475-.48.221-.042.485 0 .664.174.033.043 3.825 4.179 8.874 6.835 3.827 2 7.227 3.264 8.75 3.786.092-1.436.211-4.483-.128-7.356-.052-.348.22-.696.559-.74.359-.042.698.216.749.565.425 4.046.087 8.267.034 8.447 0 .213-.127.391-.306.475-.17.129-.34.129-.562.094-.169-.051-4.574-1.441-9.75-4.141-3.868-2.001-6.962-4.832-8.399-6.222-.485 1.696-1.479 4.917-2.694 6.876-2.143 3.393-5.884 5.092-6.054 5.178-.086.001-.17.044-.264.044z"/><path d="m44.221 28.947c-.043 0-.087 0-.137 0-.34-.09-.562-.439-.511-.787 0-.042.604-3.001 0-5.002-.527-1.743-2.924-2.831-5.05-2.963-1.75-.128-5.1 1.088-5.27 3.787-.22 2.742-.051 3.527 0 3.571.085.348-.136.697-.477.782-.356.089-.696-.084-.782-.434-.05-.132-.272-1.045-.05-4.004.264-3.307 4.046-5.139 6.665-4.965 2.482.175 5.475 1.437 6.223 3.877.695 2.304.042 5.525 0 5.657-.051.305-.307.481-.611.481z"/><path d="m48.759 42.212c-.96 0-1.923-.216-2.746-.654-.306-.174-.484-.565-.306-.872l.221-.434c-.306-.174-.57-.391-.824-.654l-.391.305c-.136.09-.308.175-.486.132-.179 0-.349-.089-.434-.263-.611-.739-1.004-1.607-1.224-2.525-.034-.169 0-.345.094-.476.085-.132.213-.263.39-.306l.435-.084c-.042-.349-.042-.697 0-1.046l-.435-.089c-.347-.085-.568-.434-.483-.783.22-.914.663-1.785 1.224-2.525.085-.131.254-.216.434-.258.178 0 .35.042.486.127l.305.264c.255-.264.511-.48.817-.697l-.17-.349c-.087-.174-.087-.349-.043-.476.043-.174.179-.306.348-.395.866-.392 1.786-.608 2.736-.608.181 0 .358.084.486.174.126.132.178.307.178.48v.392c.341.042.688.127 1.037.259l.171-.349c.092-.175.221-.259.39-.348.18-.043.357-.043.485.046.875.392 1.606.999 2.22 1.738.22.264.169.697-.086.914l-.349.264c.177.302.349.608.435.957l.44-.089c.341-.085.697.131.783.479.213.956.213 1.918 0 2.832-.086.349-.442.565-.783.476l-.484-.127c-.127.301-.262.65-.484.914l.398.301c.265.221.35.654.086.914-.604.74-1.353 1.352-2.217 1.742-.172.085-.35.085-.478.043-.18-.043-.308-.174-.393-.348l-.22-.477c-.171.042-.348.085-.476.128-.18.047-.358.089-.528.089v.522c.085.435-.219.74-.559.74zm-1.566-1.567c.298.088.605.173.909.216v-.434c0-.348.298-.654.656-.654.306 0 .56-.042.865-.085.306-.042.562-.174.835-.306.296-.175.688 0 .866.306l.171.392c.263-.175.526-.348.739-.608l-.349-.265c-.128-.126-.221-.259-.254-.433 0-.174.033-.349.126-.48.39-.433.655-.999.782-1.564.095-.348.434-.569.782-.48l.399.084c.035-.301.035-.649 0-.956l-.355.09c-.172.042-.342 0-.478-.09-.136-.084-.254-.259-.306-.391v-.043c-.128-.565-.393-1.087-.738-1.568-.213-.26-.18-.698.092-.914l.254-.217c-.22-.217-.474-.438-.738-.608l-.128.259c-.085.174-.221.259-.391.349-.18.042-.356.042-.527-.043-.526-.264-1.13-.395-1.735-.395-.356 0-.662-.302-.662-.65v-.306c-.308.042-.604.131-.909.217l.129.263c.177.306 0 .697-.307.871-.52.26-.995.65-1.395 1.131-.086.131-.256.217-.425.26-.18 0-.359-.043-.486-.128l-.263-.174c-.171.259-.307.566-.391.868l.306.088c.348.085.57.434.475.783-.127.565-.127 1.131 0 1.7v.084c.052.174 0 .349-.085.481-.083.127-.22.259-.39.301h-.222c.136.306.271.57.392.872l.305-.259c.273-.216.698-.174.92.085.391.438.83.829 1.393 1.088.172.089.254.217.349.391.042.174.042.348-.041.523zm1.566-2.569c-1.09 0-2.007-.739-2.264-1.785-.135-.607-.05-1.22.299-1.738.349-.523.823-.872 1.437-1.003.17-.042.35-.042.528-.042 1.088 0 1.996.739 2.259 1.785.13.608.045 1.216-.304 1.738-.349.523-.833.872-1.437 1.003-.178.042-.349.042-.518.042zm0-3.264c-.087 0-.136 0-.223.043-.254.046-.475.216-.611.438-.126.216-.169.476-.126.739.126.522.653.871 1.172.74.263-.042.483-.217.612-.438.128-.217.177-.476.128-.739-.087-.477-.478-.783-.952-.783z"/><path d="m61.943 39.646c-.177 0-.307 0-.484 0-.17 0-.341-.09-.426-.221-.136-.128-.178-.302-.178-.477l.042-.955c-.647-.09-1.343-.265-1.956-.481l-.39.872c-.085.175-.221.259-.358.349-.17.042-.337.042-.476 0-.61-.264-1.172-.612-1.698-1.004-.12-.084-.215-.259-.257-.433-.041-.174 0-.349.137-.481l.562-.782c-.528-.438-.962-.914-1.352-1.479l-.826.518c-.306.175-.696.089-.916-.216-.342-.566-.647-1.131-.868-1.786-.043-.173-.043-.344 0-.476.085-.175.221-.263.348-.349l.961-.349c-.179-.655-.306-1.304-.357-1.959h-.994c-.348 0-.654-.307-.654-.651 0-.654.085-1.309.221-1.959.086-.349.434-.566.782-.522l.953.217c.178-.655.44-1.263.779-1.871l-.814-.566c-.136-.088-.272-.263-.272-.437-.035-.175 0-.349.093-.476.393-.569.783-1.045 1.268-1.526.257-.259.646-.259.911 0l.688.697c.525-.434 1.087-.83 1.664-1.131l-.356-.872c-.084-.174-.084-.348 0-.48.085-.175.178-.302.356-.349.257-.127.562-.216.816-.302.358-.131.698-.216 1.054-.263.17-.042.341 0 .478.09.126.084.254.259.254.39l.18.914c.696-.085 1.35-.132 2.048-.042l.17-.872c.043-.173.135-.306.263-.433.129-.089.298-.132.478-.089.655.132 1.302.306 1.912.522.357.132.526.524.357.829l-.307.825c.605.306 1.216.654 1.734 1.088l.612-.608c.256-.264.655-.264.919-.047.476.438.908.961 1.299 1.483.095.128.128.302.128.476-.033.175-.128.307-.254.438l-.697.476c.255.392.433.829.646 1.262l.791-.259c.349-.132.688.085.823.434.139.391.265.829.308 1.263.042.216.085.437.085.654 0 .175-.043.349-.128.477-.093.131-.265.221-.434.264l-.834.084c.053.697-.041 1.394-.169 2.049l.823.217c.349.085.569.434.434.782-.168.612-.391 1.263-.697 1.829-.083.174-.211.263-.391.348-.169.042-.339.042-.475-.043l-.782-.39c-.347.607-.781 1.13-1.258 1.611l.56.649c.223.265.223.697-.041.914-.484.438-1.046.83-1.606 1.178-.136.085-.358.127-.485.085-.178-.042-.305-.127-.392-.301l-.434-.787c-.347.174-.746.306-1.139.438-.254.084-.519.174-.816.217l.118.914c.054.348-.169.697-.56.739-.529.085-1.038.132-1.524.132zm-3.357-3.657c.094 0 .177 0 .271.043.867.391 1.785.65 2.737.697.349 0 .654.301.61.693l-.049.914h.441l-.136-.867c-.033-.174 0-.348.136-.48.085-.131.255-.216.434-.259.434-.047.875-.175 1.266-.264.477-.174.953-.391 1.429-.65.306-.174.698-.089.876.217l.435.74c.136-.089.219-.175.347-.263l-.569-.608c-.127-.132-.17-.306-.17-.481 0-.173.085-.348.221-.433.731-.655 1.301-1.394 1.734-2.262.18-.306.572-.438.868-.306l.748.349c.043-.132.085-.264.126-.39l-.781-.222c-.178-.042-.307-.173-.389-.302-.095-.131-.095-.349-.044-.48.255-.914.34-1.87.22-2.831-.05-.344.213-.693.561-.74l.783-.084c-.042-.132-.042-.265-.085-.392l-.74.26c-.348.132-.694-.085-.823-.434-.223-.74-.569-1.437-1.054-2.045-.085-.132-.121-.307-.121-.48.036-.175.121-.306.256-.438l.655-.475c-.095-.09-.18-.218-.265-.307l-.562.612c-.262.259-.662.259-.916.042-.697-.655-1.521-1.178-2.398-1.526-.169-.043-.306-.175-.341-.349-.093-.175-.093-.344 0-.519l.307-.787c-.135-.042-.271-.084-.399-.127l-.18.825c-.031.349-.391.607-.729.522-.959-.174-1.923-.131-2.832.042-.178.042-.349 0-.483-.085-.129-.089-.255-.264-.306-.438l-.17-.867c-.085.043-.17.043-.255.085-.053 0-.086.042-.136.042l.347.83c.129.349 0 .697-.347.872-.867.391-1.651.913-2.305 1.564-.128.132-.307.174-.483.174-.17 0-.342-.085-.478-.174l-.645-.651c-.094.085-.179.218-.271.302l.79.523c.298.217.391.612.178.914-.529.786-.875 1.654-1.089 2.567-.051.174-.135.306-.305.396-.136.085-.308.127-.485.085l-.908-.217c0 .132-.053.259-.053.434h.961c.35 0 .655.306.655.654 0 .782.084 1.611.349 2.35.043.132.085.26.126.392.053.174.053.349 0 .481-.083.173-.219.258-.34.348l-.875.344c.042.132.127.264.178.395l.783-.522c.128-.09.307-.132.474-.09.172.043.308.132.393.307.476.782 1.13 1.479 1.912 2.044.308.216.349.612.128.913l-.56.74c.136.089.219.131.347.222l.393-.83c.092-.174.211-.26.349-.348.083.132.168.089.253.089zm3.398-4.441c-1.046 0-1.912-.739-2.134-1.743-.083-.565 0-1.131.351-1.606.306-.48.832-.787 1.394-.914.136-.046.255-.046.39-.046 1.047 0 1.922.739 2.135 1.743.085.565 0 1.13-.349 1.611-.306.476-.833.781-1.394.913-.128-.001-.256.042-.393.042zm0-3.005c-.041 0-.083 0-.169 0-.221.046-.443.174-.569.348-.128.174-.178.395-.128.655.087.434.519.782 1.003.697.215-.043.426-.174.562-.348.136-.175.17-.392.136-.655-.051-.433-.39-.697-.835-.697z"/></g></svg>