<svg enable-background="new 0 0 88 88" height="88" viewBox="0 0 88 88" width="88" xmlns="http://www.w3.org/2000/svg"><g fill="#585857"><path d="m41.36 54.425c-.207 0-.464-.133-.547-.348-.174-.298-.041-.679.249-.845.05-.041.34-.248.216-.978-.125-1.06-.548-1.772-.548-1.772-.174-.297-.091-.678.208-.894.298-.165.678-.083.853.216.041.033.547.928.72 2.285.166 1.309-.472 2.036-.895 2.252-.041.035-.124.084-.256.084z"/><path d="m49.334 51.751c-.042 0-.042 0-.083 0s-1.192-.174-1.912-1.185c-.638-.936-.721-2.252-.721-2.295-.041-.338.257-.633.596-.678.341-.042.638.256.679.596 0 .295.166 1.144.506 1.648.381.555 1.025.645 1.025.645.333.033.59.382.547.713-.041.349-.34.556-.637.556z"/><path d="m46.361 87.277c-.207 0-.506-.082-.672-.596-.049-.133-.049-.257 0-.381-.131-1.109-.812-5.175-2.078-10.73-.215-.844-1.15-2.284-2.037-3.685-1.184-1.821-2.293-3.519-2.376-4.711-.082-1.01-.298-2.45-.505-3.858-.173-1.176-.34-2.325-.423-3.211-.132-1.358-1.06-3.016-1.531-3.817-.166-.299-.249-.474-.297-.597-.124-.291 0-.68.297-.803.299-.134 2.973-1.44 3.816-1.656.506-.125.804-.084 1.143.216.092.081.257.215 1.019.247 1.822.084 3.222-.206 4.538-.926 1.275-.764 1.821-2.08 1.821-2.08.083-.207.257-.34.464-.381l2.119-.381c.215-.041.431.043.562.174.084.084 2.5 2.535 3.387 4.869.804 2.119 3.47 5.342 3.47 5.342.132.123 1.356 1.613 3.229 7.459 2.418 7.593 1.572 16.328 1.523 16.709-.042.33-.34.596-.682.547-.33-.041-.594-.34-.545-.68 0-.084.845-8.859-1.489-16.195-1.772-5.598-2.966-7.037-2.966-7.037-.131-.124-2.84-3.387-3.726-5.715-.646-1.705-2.294-3.566-2.882-4.205l-1.439.257c-.299.555-.985 1.655-2.211 2.377-1.481.894-3.181 1.226-5.217 1.101-1.061-.041-1.44-.298-1.697-.505h-.041c-.506.125-2.037.845-3.006 1.31.546.977 1.481 2.674 1.647 4.238.091.844.257 1.954.422 3.139.216 1.439.431 2.923.514 3.981.041.854 1.184 2.584 2.161 4.074 1.018 1.572 1.995 3.015 2.202 4.073.853 3.643 1.399 6.566 1.656 8.006.679 3.686.638 3.816 0 3.982.004.001-.078.049-.17.049z"/><path d="m31.822 102.878c-.505 0-.928-.134-1.226-.299-.422-.256-.679-.597-.679-.978.042-.545.547-.845 1.143-1.144.464-.255 1.102-.545 1.656-1.019.546-.472.546-.555.596-1.019.042-.381.083-.927.331-1.862.298-1.019.514-1.83.77-2.716.248-.969.547-2.077.969-3.562 1.019-3.352 1.656-7.327 1.44-7.924-.332-.594-.587-1.405-.927-2.418-.133-.379-.257-.812-.423-1.226-.596-1.655-1.871-6.407-2.376-8.61-.555-2.377-.464-8.396.042-10.35.505-2.027 3.139-4.189 3.221-4.271.256-.215.679-.174.894.082.207.248.166.681-.091.896-.671.546-2.46 2.235-2.791 3.595-.472 1.82-.554 7.549-.049 9.752.513 2.202 1.78 6.873 2.334 8.479.166.464.299.894.423 1.274.34.928.596 1.688.853 2.244.721 1.315-.977 7.676-1.316 8.899-.422 1.489-.72 2.551-.978 3.521-.256.885-.463 1.737-.761 2.756-.216.763-.257 1.227-.298 1.574-.042.762-.166 1.143-1.059 1.902-.679.547-1.317.895-1.822 1.145.463.041 1.225-.084 2.12-.763 1.995-1.489 2.88-2.418 3.775-3.858.464-.812 1.019-3.344 1.524-5.598.38-1.779.761-3.428 1.101-4.578.555-1.697.721-3.055.845-4.113.091-.547.133-1.062.216-1.476.082-.554-.763-4.372-1.4-7.129-1.399-6.358-1.606-7.46-1.267-7.973.166-.29.588-.382.886-.207.257.174.34.472.257.761-.041.68.803 4.414 1.399 7.13 1.102 4.868 1.523 7.037 1.399 7.708-.091.34-.132.803-.215 1.358-.124 1.102-.299 2.592-.887 4.362-.339 1.06-.721 2.799-1.109 4.455-.546 2.584-1.101 5-1.688 5.978-.978 1.573-1.955 2.633-4.116 4.198-.977.767-1.954 1.024-2.716 1.024z"/><path d="m59.17 60.908c-.38 0-.638-.299-.638-.68 0-.123.382-11.235-.679-17.889-.598-3.73-6.689-14.328-7.461-15.007-.289-.256-.637-.597-1.019-.936-.72-.721-1.565-1.61-2.922-2.5-.896-.592-2.12-1.61-3.396-2.67-1.606-1.357-3.478-2.881-4.239-3.179-1.439-.551-2.583-.679-4.876-.633-.845 0-1.399.252-1.739.463.472-.083 1.06-.169 1.739-.169 1.06.041 1.4.256 1.871.807.207.252.506.55 1.101.973.803.55 1.44 1.06 2.12 1.527.762.592 1.563 1.188 2.707 1.991 1.15.808 5.771 4.327 6.021 5.681.09.551.338 1.229.637 2.078.133.34.256.721.381 1.147.472 1.399 2.169 5.34 3.096 7.419.936 1.95 1.357 5.129 1.061 7.923-.215 2.119-.547 3.345-.597 3.396-.083.34-.464.547-.795.422-.349-.082-.556-.473-.431-.803 0 0 .341-1.188.547-3.14.265-2.545-.116-5.509-.928-7.248-.895-1.867-2.633-6.02-3.18-7.547-.133-.422-.257-.807-.381-1.143-.34-.936-.596-1.656-.679-2.289-.216-.555-2.882-3.009-5.474-4.877-1.184-.849-1.986-1.44-2.749-1.991-.679-.509-1.274-.977-2.077-1.528-.721-.509-1.06-.89-1.317-1.143-.298-.339-.34-.339-.977-.385-.679 0-1.267.087-1.78.216-.637.124-1.143.252-1.523-.17-.256-.298-.256-.679-.083-1.147.339-.762 1.44-1.693 3.345-1.739 2.46-.042 3.734.129 5.34.721.978.384 2.757 1.826 4.62 3.395 1.192.973 2.459 2.033 3.271 2.583 1.44.978 2.417 1.95 3.129 2.67.349.339.646.637.896.849 1.143.931 7.295 12.039 7.933 15.814 1.095 6.781.712 17.679.712 18.142.052.297-.247.596-.587.596z"/><path d="m43.141 50.814c-2.667 0-5.382-1.991-6.863-5.211-.174-.34 0-.68.297-.85.339-.125.679 0 .845.298 1.522 3.263 4.454 5.083 6.913 4.28 2.624-.85 3.981-4.45 3.006-8.181-.083-.339.134-.678.472-.761.34-.087.67.125.763.463 1.142 4.497-.556 8.652-3.859 9.713-.515.167-1.021.249-1.574.249z"/><path d="m35.3 46.579h-.042c-.166 0-.34-.086-.423-.215-.083-.082-2.037-2.5-2.417-5.17-.638-4.069 1.739-7.418 4.322-8.519 1.655-.721 3.097-1.06 4.455-1.06 2.078 0 3.817.849 5.299 2.587 2.326 2.67 2.798 6.441 2.798 6.57 0 .17-.041.339-.174.509-.124.124-.298.21-.464.21-.299 0-2.674 0-5.555-.508-1.987-.34-3.727-1.102-4.787-1.569 0 .977-.041 2.417-.297 3.436-.555 2.121-2.203 3.602-2.294 3.643-.123.041-.248.086-.421.086zm5.812-13.735c-1.151 0-2.459.34-3.949.974-2.161.935-4.066 3.858-3.561 7.166.256 1.61 1.192 3.179 1.739 3.987.471-.556 1.101-1.446 1.398-2.506.381-1.44.216-4.11.216-4.11 0-.253.083-.468.298-.592.207-.128.463-.128.629 0 .05 0 2.55 1.44 5.391 1.95 1.945.339 3.642.463 4.536.509-.256-1.147-.895-3.436-2.375-5.175-1.234-1.524-2.633-2.203-4.322-2.203z"/><path d="m36.062 34.074c-.207 0-.423-.087-.547-.298-.083-.083-.339-.551-.679-2.079-.422-1.863 1.317-3.519 2.757-3.854 1.399-.339 3.18-.17 4.023 1.06.763 1.102.937 2.84.937 2.922.041.34-.215.679-.555.679-.34.042-.679-.211-.72-.55-.042-.427-.258-1.656-.722-2.376-.463-.675-1.697-.762-2.674-.551-.762.17-2.07 1.188-1.821 2.331.298 1.317.513 1.656.513 1.698.207.298.124.679-.173.89-.082.086-.207.128-.339.128z"/></g></svg>