<svg enable-background="new 0 0 88 88" height="88" viewBox="0 0 88 88" width="88" xmlns="http://www.w3.org/2000/svg"><g fill="#585857"><path d="m87.572 35.69c-.052 0-.166 0-.209-.062-.062 0-3.725-1.11-6.972-1.64-.737-.104-1.534-.27-2.283-.436-2.542-.478-5.146-.996-9.182-1.11-2.812-.104-3.88-.363-5.26-.737-1.225-.332-2.76-.748-6.329-1.121-3.072-.322-5.79-.955-8.229-1.494-2.977-.634-5.571-1.215-6.794-.685-2.284 1.017-4.202 2.76-4.202 2.822-.322.311-.841.259-1.111-.063-.322-.311-.27-.851.052-1.12.104-.104 2.127-1.951 4.68-3.071 1.638-.748 4.243-.167 7.75.633 2.396.528 5.052 1.109 8.02 1.442 3.674.414 5.26.851 6.537 1.162 1.327.374 2.284.581 4.887.685 4.142.166 6.858.644 9.451 1.183.748.146 1.495.259 2.232.414 3.352.581 7.013 1.649 7.128 1.702.415.104.623.581.52 1.017-.002.261-.314.479-.686.479z"/><path d="m26.16 57.997c-.104 0-.219 0-.322-.062-.416-.146-.58-.624-.416-1.058.374-.956 4.025-4.295 5.894-5.729.903-.695 2.179-1.493 3.507-2.345 1.908-1.225 4.14-2.603 5.519-3.932 1.39-1.277 2.282-2.541 3.134-3.663.581-.851 1.173-1.598 1.807-2.23.27-.259.478-.478.694-.633.104-.114.218-.218.259-.27-.041-.104-.103-.269-.154-.477l-.156-.426c0-.052-.063-.113-.063-.113-.311-.155-1.213.219-1.69.374-.748.27-1.329.477-1.805.166-.374-.27-.426-.747-.155-1.12.207-.27.518-.374.851-.312.146-.062.415-.166.581-.218.892-.322 2.012-.737 2.926-.322.416.219.736.58.891 1.058l.167.435c.415 1.225.375 1.598-.58 2.438-.166.156-.373.322-.643.591-.58.581-1.059 1.266-1.65 2.064-.841 1.174-1.806 2.501-3.29 3.879-1.535 1.434-3.776 2.874-5.789 4.142-1.277.798-2.501 1.597-3.352 2.242-2.282 1.741-5.094 4.501-5.416 5.094-.159.261-.429.427-.749.427z"/><path d="m41.359 45.403c-.218 0-.435-.042-.591-.208-.052-.103-2.386-2.449-5.531-6.692-1.266-1.701-2.542-3.247-3.714-4.576-2.334-2.697-3.071-3.715-2.812-4.617.426-1.328 2.334-2.126 4.089-1.701 1.598.426 2.075.694 3.621 1.701.259.156.52.322.851.53 2.386 1.494 7.968 8.922 8.59 9.773.271.374.219.851-.145 1.12-.374.27-.851.207-1.119-.167-1.652-2.221-6.373-8.279-8.137-9.401-.312-.208-.632-.374-.852-.528-1.536-.956-1.806-1.111-3.174-1.484-.965-.271-1.92.155-2.179.529.207.53 1.369 1.909 2.438 3.186 1.109 1.328 2.5 2.926 3.767 4.668 3.03 4.15 5.375 6.495 5.375 6.495.311.312.311.789 0 1.109-.062.221-.269.263-.477.263z"/><path d="m35.943 48.494c-.271 0-.488-.114-.644-.331 0 0-1.225-1.587-3.238-4.4-1.018-1.433-2.926-3.715-4.575-5.748-1.692-2.064-3.186-3.871-3.663-4.67-1.328-2.012-.478-3.03.685-4.088 1.494-1.328 4.461-.374 5.582.271.374.208.539.685.322 1.059-.218.374-.694.528-1.069.312-1.162-.685-3.133-.996-3.767-.478-.964.851-1.11 1.017-.425 2.024.478.747 2.012 2.552 3.61 4.513 1.65 2.023 3.56 4.357 4.628 5.79 2.012 2.761 3.236 4.357 3.236 4.357.271.374.208.852-.166 1.121-.205.206-.371.268-.516.268z"/><path d="m30.517 53.641c-.259 0-.529-.104-.696-.374-.042-.104-7.491-11.786-9.451-15.086-1.649-2.759-1.483-3.776-.478-4.938.115-.167.259-.271.374-.426 1.005-1.546 3.828-.737 4.409-.593.426.115.643.593.528 1.017-.104.426-.591.644-1.006.53-1.017-.322-2.345-.426-2.604-.052-.155.207-.322.425-.477.581-.489.538-.696.799.633 3.091 1.972 3.278 9.359 14.92 9.399 15.023.218.374.104.851-.259 1.12-.051.055-.217.107-.372.107z"/><path d="m26.585 57.416c-.104 0-.27-.062-.374-.104-.155-.061-3.611-1.918-5.727-5.685-1.66-3.03-1.972-5.583-2.294-8.301-.052-.685-.155-1.433-.259-2.168-.219-1.38.042-2.438.748-3.143.997-.996 2.49-.788 2.656-.788.415.052.737.477.622.902-.041.426-.477.738-.892.634-.271-.042-.955-.042-1.329.322-.435.425-.374 1.172-.322 1.753.104.747.218 1.495.26 2.231.27 2.553.592 4.947 2.075 7.707 1.867 3.395 5.042 5.045 5.042 5.045.374.207.539.683.332 1.059.001.371-.269.536-.538.536z"/><path d="m28.286 61.557c-.478 0-.955-.052-1.432-.259-2.284-.811-2.075-2.397-1.909-3.405 0-.165.041-.321.041-.477.063-.435.436-.747.913-.694.415.052.748.425.685.902 0 .166-.051.373-.051.529-.157 1.005-.219 1.327.85 1.7 1.588.592 3.663-.592 6.268-2.064 1.006-.591 1.805-1.181 2.604-1.764 1.329-.956 2.708-1.909 4.939-2.968 3.082-1.433 5.261-2.449 9.088-2.387.955 0 1.962.104 2.968.146 2.875.219 6.164.436 9.361-.416 1.586-.435 2.696-1.059 3.816-1.649 1.91-1.007 3.714-2.023 7.221-1.588 5.156.633 14.132 4.027 14.505 4.193.425.155.642.643.478 1.007-.156.426-.632.631-1.007.478-.103-.052-9.139-3.454-14.131-4.089-2.979-.373-4.41.425-6.267 1.381-1.11.58-2.397 1.277-4.14 1.752-3.455.956-6.909.737-9.877.479-1.017-.052-2.034-.156-2.928-.156-3.454-.062-5.375.852-8.341 2.23-2.126 1.009-3.403 1.859-4.73 2.812-.789.58-1.641 1.172-2.708 1.805-2.335 1.432-4.359 2.502-6.216 2.502z"/><path d="m19.301 61.235c-.363 0-.686-.104-1.111-.313-1.545-.808-1.752-1.224-1.38-2.769.104-.529.321-1.277.425-2.501.374-3.984 2.231-5.945 2.282-6.049.322-.321.8-.321 1.109-.053.332.312.332.788.063 1.12-.063.042-1.535 1.692-1.867 5.097-.104 1.276-.312 2.125-.416 2.708-.062.206-.103.425-.103.578.155.104.519.324.684.427.748.375 1.598-.694 2.604-2.023.322-.478.633-.892.955-1.163.696-.683.696-1.225.696-1.276-.063-.426.259-.849.685-.901s.852.271.903.684c0 .115.155 1.329-1.11 2.616-.218.207-.478.579-.799 1.005-.964 1.216-2.127 2.813-3.62 2.813z"/><path d="m13.252 39.83c-2.283 0-5.686-.155-7.273-.27-6.598-.363-6.743-.53-7.013-.736-.322-.322-.322-.81 0-1.122.207-.207.581-.27.851-.166 1.006.218 11.786.964 14.764.748 3.03-.208 4.576-.416 4.576-.416.415-.063.852.259.892.685.062.426-.259.852-.685.903-.062 0-1.597.219-4.669.426-.375-.052-.852-.052-1.443-.052z"/><path d="m16.708 59.533c-.062 0-.167 0-.208-.053-.062 0-3.983-1.173-6.162-1.753-1.598-.416-3.091-.529-4.731-.633-.582-.051-1.173-.051-1.754-.113-2.334-.208-5.209-.633-5.313-.633-.426-.051-.748-.479-.696-.901.062-.428.478-.75.913-.687.042 0 2.967.479 5.199.635.59.052 1.171.052 1.753.104 1.701.112 3.299.155 5.042.693 2.242.633 6.163 1.743 6.225 1.805.415.106.685.582.519 1.007-.145.26-.476.529-.787.529z"/><path d="m35.881 29.682c-.271 0-.529-.114-.644-.374-.259-.374-.145-.852.218-1.11 1.069-.748 6.537-4.357 8.187-4.576l.311-.052c1.546-.207 3.506-.425 4.089 1.226.539 1.483-.685 3.133-.789 3.341-.271.373-.746.436-1.12.166-.375-.27-.416-.748-.156-1.12.259-.374.799-1.329.592-1.858-.166-.426-1.122-.322-2.397-.155l-.322.052c-.956.104-4.939 2.604-7.491 4.305-.156.103-.312.155-.478.155z"/><path d="m28.121 61.919c-.52 0-1.111-.04-1.848-.207-3.03-.477-4.731-1.266-4.794-1.329-.363-.207-.581-.684-.363-1.058s.696-.581 1.057-.374 1.598.747 4.358 1.163c2.064.331 2.126.331 5.634-.996 3.444-1.329 7.387-4.463 7.428-4.523.332-.271.851-.208 1.121.103.271.322.208.851-.103 1.122-.167.165-4.192 3.341-7.864 4.772-2.553 1.016-3.506 1.327-4.626 1.327z"/></g></svg>