<svg enable-background="new 0 0 30 30" viewBox="0 0 30 30" xmlns="http://www.w3.org/2000/svg"><path d="m15 22.8h-4.6c-.5 0-1-.2-1.3-.7-.1-.2-.2-.5-.2-.7-.1-.6-.2-1.1-.5-1.6-.2-.3-.4-.5-.7-.8-1.9-1.7-3-3.9-3.4-6.3-.1-.6-.1-1.1-.1-1.7.1-2.7.9-5.1 2.6-7.1 1.6-1.9 3.8-3.1 6.2-3.6.6-.2 1.3-.3 1.9-.3 2.6 0 5 .8 7 2.4 1.9 1.6 3.1 3.6 3.6 6 .2.9.3 1.8.3 2.7-.1 1.5-.4 2.8-1 4.3-.5 1.1-1.2 2.1-2.1 3l-.4.4c-.4.3-.7.8-.8 1.2-.2.4-.3.8-.3 1.2 0 .1 0 .2-.1.4-.2.6-.7 1-1.4 1-1.7.2-3.2.2-4.7.2zm0-3h3.2c.1 0 .2 0 .2-.1.2-.6.4-1.1.7-1.6.3-.4.6-.9 1-1.2.8-.7 1.5-1.5 1.9-2.4.7-1.4 1-3 .8-4.7-.2-1.9-1.1-3.6-2.6-4.9-1.8-1.5-3.9-2.1-6.2-1.8-1.9.2-3.5 1.1-4.9 2.6-1.1 1.3-1.7 2.9-1.8 4.7 0 .8 0 1.7.3 2.5.4 1.3 1 2.4 1.9 3.4l.6.6c.1.1.2.2.2.3s.1.1.1.2c.2.2.3.5.5.7.3.5.5 1 .6 1.6 0 .2 0 .2.2.2 1.2-.1 2.3-.1 3.3-.1zm0 6.3h4.5c.2 0 .4 0 .5.2.4.4.2 1-.3 1.1h-9.3c-.3 0-.6-.1-.7-.4-.2-.4.1-.9.6-.9zm0-2.4h4.6c.2 0 .4.1.6.3s.2.4.1.7c-.1.2-.3.4-.6.4h-9.1c-.3 0-.5-.1-.6-.3-.3-.4 0-1 .5-1h.2c1.4-.1 2.8-.1 4.3-.1zm.1 6.3h-1.9c-.5 0-.8-.5-.6-.9.1-.2.3-.4.5-.4h3.6c.2 0 .4 0 .5.1.2.2.3.5.2.8s-.3.4-.6.4z" fill="#979797"/></svg>