<svg enable-background="new 0 0 30 30" viewBox="0 0 30 30" xmlns="http://www.w3.org/2000/svg"><g fill="#979797"><path d="m21.8 16.5h-6.1c-.4 0-.7.3-.7.7v6.1c0 .4.3.7.7.7h6.1c.4 0 .7-.3.7-.7v-6.1c.1-.4-.3-.7-.7-.7z"/><path d="m24.8 3c-.4 0-.8-.3-.8-.8v-1.5c0-.4-.3-.7-.7-.7h-1.5c-.4 0-.7.3-.7.7v1.5c0 .4-.3.7-.7.7h-10.7c-.3.1-.8-.2-.8-.7v-1.5c0-.4-.3-.7-.7-.7h-1.5c-.4 0-.7.3-.7.7v2.3h-1.5c-1.7 0-3 1.4-3 3v21c0 1.7 1.4 3 3 3h20.3c2 0 3.7-1.7 3.7-3.7v-19.6c0-2-1.7-3.7-3.7-3.7zm.7 23.3c0 .4-.3.7-.7.7h-19.6c-.4 0-.7-.3-.7-.7v-13.5c0-.4.3-.7.7-.7h19.6c.4 0 .7.3.7.7zm0-18.1c0 .4-.3.7-.7.7h-19.6c-.4 0-.7-.3-.7-.7v-1.5c0-.4.3-.7.7-.7h19.6c.4 0 .7.3.7.7z"/></g></svg>