<svg enable-background="new 0 0 30 30" viewBox="0 0 30 30" xmlns="http://www.w3.org/2000/svg"><g fill="#969696"><path d="m22.8 29.1h-5.5v-7.6h-4.4v7.6h-5.7c-2 0-3.6-1.6-3.6-3.6v-7.3c0-.4.1-.8.4-1l10-10c.5-.5 1.5-.5 2 0l10 10c.3.3.4.6.4 1v7.3c0 2-1.6 3.6-3.6 3.6zm-4.4-1.1h4.4c1.4 0 2.5-1.1 2.5-2.5v-7.3c0-.1 0-.1-.1-.3l-10-10c-.1-.1-.3-.1-.4 0l-10 10s-.1.1-.1.3v7.3c0 1.4 1.1 2.5 2.5 2.5h4.4v-7.6h6.8z"/><path d="m29.5 13.4-4.5-4.6v-5.2c0-1-.8-1.8-1.8-1.8s-1.8.8-1.8 1.8v1.9l-3.4-3.4c-1.8-1.6-4.5-1.6-6.3 0l-11.2 11.4c-.6.6-.6 1.8 0 2.4s1.8.6 2.4 0l11.3-11.4c.4-.4 1-.4 1.4 0l11.4 11.4c.4.4.8.5 1.3.5s.9-.1 1.3-.5c.6-.7.6-1.8-.1-2.5z"/></g></svg>