<svg enable-background="new 0 0 30 30" viewBox="0 0 30 30" xmlns="http://www.w3.org/2000/svg"><g fill="#979796"><path d="m25.1 30h-20.8c-2.4 0-4.3-1.9-4.3-4.3v-19.2c0-1.1.5-2.3 1.3-3s1.9-1.1 3-1.1h6.6c.7 0 1.2.5 1.2 1.2s-.5 1.2-1.2 1.2h-6.6c-.8 0-1.7.6-1.7 1.7v19.3c0 .8.6 1.7 1.7 1.7h20.8c.8 0 1.7-.6 1.7-1.7v-6.6c0-.7.5-1.2 1.2-1.2.6 0 1.1.4 1.4 1.1v6.7c0 2.3-2 4.2-4.3 4.2z"/><path d="m27.3 6.2-3.4-3.4.8-.8c.7-.7 1.9-.7 2.6 0l.8.8c.7.7.7 1.9 0 2.6zm-16.1 9.8 2.8 2.8-3.9 1zm.7-1.4 10.8-10.7 3.4 3.4-8.6 8.7-2.1 2.1zm16.3-13.7c-1.2-1.3-3.4-1.3-4.7 0l-13.2 13.3c-.1.1-.1.2-.2.3l-1.8 6.2c-.1.2 0 .5.2.7s.4.3.7.2l6.3-1.8c.1 0 .2-.1.3-.2l13.3-13c1.2-1.4 1.2-3.4 0-4.7z"/></g></svg>