<svg viewBox="0 0 190 190" xmlns="http://www.w3.org/2000/svg"><path d="M26 156.3c5.4 6 14.7 14.4 26.9 20.6 4.4 2.2 9.2 4.3 14.1 5.9 11.4 4 23.6 6.5 36.4 5.6 8.5-.6 16.6-2.7 24.7-6.4 2.8-1.3 6-1.7 8.7-3 4.2-2 11.3-8 14.2-11 6.9-6.7 14-13.6 19.4-21.6 10.3-15.4 16.2-32.8 17.7-49.6.5-4.7 1.9-18.3.7-25.5-.7-4.8-2.5-7.1-3.2-11-3-16.2-11.6-29.4-24.4-40.8C137.9-1.2 102.5.6 85.6 2.7c-4.2.6-9 3-12.9 2.4-4-.6-8.7 3.4-11.7 5.3-5 3-10.4 6.1-15.4 9.7-11.9 8.4-23.5 17.1-30.8 29.8C3.3 69.7-3.6 90.8 1.9 112.7c.2 1.1.6 2.1 1 3.1 3 9.7 3.2 19.5 23.1 40.5z" fill="#E76B00"/><path d="M94.4 150c24.2 0 43.6-17.4 43.6-39.8 0-16.7-8.9-27.7-27.3-33.5 12.1-4.5 20.9-13.3 20.9-24.7 0-14.9-12.4-24.7-34-24.7-22 0-38.8 10.9-41.1 27-.7 4.3 3.6 5.8 5.8 2.3 6-9.3 13.4-13.6 22.5-13.6 11.6 0 17.6 6.5 17.6 17.4 0 9.1-6.1 17.1-18.9 20.2-4.3 1-4.3 7.3 0 7.8 16.6 2 25.4 11.4 25.4 23.5 0 13.6-9.1 22.5-26 22.5-12.3 0-18.9-5-24.7-14.1-2.5-3.8-7.3-1.2-6 3.1C57.1 140 72 150 94.4 150z" fill="#fcfcfc"/></svg>
