<svg enable-background="new 0 0 190 190" viewBox="0 0 190 190" xmlns="http://www.w3.org/2000/svg"><path d="m26.1 156.4c5.4 6 14.8 14.4 27 20.6 4.4 2.2 9.2 4.3 14.2 5.9 11.4 4 23.6 6.5 36.5 5.6 8.5-.6 16.7-2.7 24.7-6.4 2.8-1.3 6-1.7 8.8-3 4.2-2 11.3-8 14.3-11 7-6.7 14-13.6 19.4-21.7 10.3-15.4 16.2-32.9 17.8-49.7.5-4.7 1.9-18.3.7-25.6-.7-4.9-2.5-7.1-3.2-11-3-16.2-11.6-29.5-24.5-40.8-23.6-20.7-59.1-18.9-76-16.8-4.2.6-9 3-13 2.4s-8.8 3.4-11.8 5.3c-5 3-10.4 6.2-15.5 9.7-11.9 8.4-23.5 17.2-30.8 29.8-11.4 19.9-18.3 41.1-12.8 63 .2 1.1.6 2.1 1 3.1 3 9.7 3.2 19.5 23.2 40.6z" fill="#00a3e0"/><path d="m129 83.4c-2.8 3.7-5.3 5.6-9.6 6.6v-64.4c0-7.1-9.1-7.8-14.1-2l-64.4 77.4c-2.8 3.5-1.3 7.1 3.2 7.1h47.2v14.3c0 10.3-11 8.6-11 13.8 0 2 1.5 3.5 5.6 3.5h35.9c4.2 0 5.6-1.5 5.6-3.5 0-5.1-8-3.5-8-13.8v-14.3h2.5c4.8 0 7.1-1.5 8.6-6l5-15.8c1.5-4.7-3.8-6.2-6.5-2.9zm-66.4 7.6 28.6-33.9v33.9z" fill="#fcfcfc"/></svg>
