<svg enable-background="new 0 0 190 190" viewBox="0 0 190 190" xmlns="http://www.w3.org/2000/svg"><path d="m26 156.3c-10-10.7-15-18.4-17.9-24.6-2-4.4-3-8-4-11.6-.4-1.5-.8-3-1.3-4.5v-.1-.1c-.3-.9-.7-1.9-.9-2.9-5.4-21.5 1.3-42.5 12.9-62.6 7.2-12.5 18.7-21.2 30.8-29.8 5.1-3.6 10.5-6.8 15.6-9.8.6-.4 1.3-.8 1.9-1.3.2-.2.5-.3.7-.5.9-.6 1.9-1.3 2.9-1.8 2-1.2 3.8-1.7 5.1-1.5 2.6.3 5.2-.2 7.4-.8.7-.2 1.3-.4 1.9-.5 1.6-.5 3.1-.9 4.5-1.1 8.5-1.1 21.7-2 35.6-.2 13.9 1.9 28.5 6.6 40 16.8 12.8 11.4 21.3 24.5 24.3 40.5.4 2 1 3.6 1.6 5.1.1.2.1.3.2.5.6 1.6 1.2 3.3 1.5 5.6.6 3.4.5 8.6.3 13.5-.3 4.7-.7 9.1-1 11.6v.4c-1.6 16.8-7.4 34.3-17.8 49.7-5.4 8-12.4 14.9-19.5 21.8-1.5 1.5-4 3.7-6.7 5.8-2.7 2.2-5.4 4.1-7.3 5-1.2.6-2.6 1-4.1 1.4h-.1c-1.5.4-3.1.9-4.7 1.6-8 3.6-16.1 5.7-24.5 6.3-12.7.9-24.9-1.5-36.3-5.6-4.9-1.7-9.7-3.7-14.2-5.9-12.1-6-21.5-14.4-26.9-20.4z" fill="#fbce53" stroke="#f5f5f5"/><path d="m65.3 148.6h63.5c4.9 0 7.4-1.7 8.8-6.1l10-32.8c1.4-4.4-3.7-6.1-6.4-2.2-8.6 12.5-12.2 14-27.8 14h-16c-3.7 0-5.1-3.2-2.4-5.6l13.9-12.9c21.8-20.3 28.9-31.3 28.9-45.2 0-19.6-15.1-32-38.9-32-23.7 0-42 13.4-44.5 31.6-.7 4.7 4.1 5.8 6.1 2.2 5.6-10 14-15.4 25.2-15.4 14 0 21.3 8.1 21.3 23.7 0 13.9-5.9 25.7-21.5 43l-23.4 26.1c-5 5.8-3.4 11.6 3.2 11.6z" fill="#fcfcfc"/><path d="m137.5 142.5 3.9 1.2zm10-32.8-3.9-1.2zm-6.4-2.2-3.3-2.3zm-46.1 8.4 2.7 3zm13.9-12.8 2.7 3zm-54.5-45.6 4 .6zm6.1 2.2 3.5 2zm25.1 51.3-3-2.7zm-23.4 26.1-3-2.7zm3.1 15.5h63.5v-8.1h-63.5zm63.4 0c2.9 0 5.7-.5 8-2.1 2.4-1.7 3.8-4.1 4.6-6.8l-7.7-2.4c-.5 1.7-1.1 2.3-1.5 2.6-.5.3-1.4.7-3.5.7v8zm12.7-8.9 10-32.8-7.7-2.3-10 32.8zm10-32.8c.6-1.9.6-3.8-.2-5.6s-2.3-3-4-3.6c-3.4-1.2-7.1.4-9.3 3.5l6.6 4.6c.5-.7.7-.3.1-.5-.3-.1-.6-.3-.7-.7-.2-.4 0-.5-.1-.1zm-13.6-5.7c-4.3 6.3-6.9 9-9.8 10.4-3 1.5-6.8 1.9-14.7 1.9v8.1c7.7 0 13.4-.3 18.3-2.7 4.9-2.5 8.5-6.8 12.8-13zm-24.5 12.3h-15.9v8.1h15.9zm-15.9 0c-.4 0-.4-.1-.4 0 .1.1.3.2.5.6s.1.7.1.9c-.1.2-.1.2.1 0l-5.3-6.1c-2.3 2-3.6 5.2-2.3 8.3 1.3 3 4.4 4.4 7.3 4.4zm.4 1.4 13.9-12.9-5.5-5.9-13.9 12.9zm13.9-12.9c21.8-20.3 30.2-32.4 30.2-48.1h-8.1c0 12-5.8 21.9-27.7 42.2zm30.2-48.1c0-10.9-4.2-20.1-12-26.5-7.7-6.3-18.4-9.5-31-9.5v8.1c11.3 0 20 2.9 25.9 7.7 5.8 4.7 9 11.5 9 20.2zm-43-36c-25 0-45.6 14.2-48.5 35.1l8 1.1c2.2-15.7 18.1-28.2 40.5-28.2zm-48.5 35.1c-.5 3.8 1.1 7.5 4.9 8.6 3.5 1 6.9-.8 8.7-3.9l-7-4c-.1.2-.2.2-.1.2s.3-.1.7 0 .6.4.7.6 0 .2.1-.4zm13.6 4.7c4.9-8.8 12.1-13.3 21.7-13.3v-8.1c-12.7 0-22.5 6.3-28.7 17.5zm21.7-13.3c6.2 0 10.3 1.8 12.9 4.7 2.7 3 4.4 7.8 4.4 15h8.1c0-8.3-1.9-15.4-6.4-20.4-4.6-5.1-11.1-7.3-18.9-7.3v8zm17.3 19.6c0 12.4-5.1 23.3-20.5 40.3l6 5.4c15.8-17.5 22.5-30.3 22.5-45.7zm-20.4 40.3-23.4 26.1 6 5.4 23.4-26.1zm-23.4 26.1c-3 3.4-4.8 7.6-3.7 11.6 1.2 4.5 5.3 6.6 9.8 6.6v-8.1c-1.1 0-1.6-.2-1.8-.4-.1-.1-.2-.1-.2-.2-.1-.3-.1-1.8 2-4.2z" fill="#f5f5f5"/></svg>
