<svg height="190" width="190" xmlns="http://www.w3.org/2000/svg"><path d="M190 181.786c0 4.535-3.877 8.215-8.656 8.215H8.654C3.875 190 0 186.321 0 181.786V8.216C0 3.679 3.875 0 8.654 0h172.689C186.123 0 190 3.679 190 8.216z" fill="#bdbdbd"/><path d="M94.564 123.526h-3.248c.369-6.656 1.199-12.163 2.496-16.521 1.293-4.357 3.975-10.42 8.043-18.186 3.168-5.968 5.229-10.55 6.18-13.748a33.86 33.86 0 0 0 1.428-9.707c0-6.708-1.783-12.044-5.35-16.007-3.566-3.962-7.938-5.943-13.115-5.943-4.596 0-8.215 1.083-10.855 3.249-2.643 2.167-3.963 4.517-3.963 7.052 0 1.955.793 4.358 2.379 7.211 1.584 2.853 2.377 5.02 2.377 6.498 0 1.901-.609 3.5-1.822 4.794-1.217 1.295-2.695 1.941-4.438 1.941-2.219 0-4.24-1.096-6.062-3.289-1.822-2.191-2.734-5.242-2.734-9.152 0-5.969 2.562-11.252 7.688-15.848 5.123-4.596 12.07-6.894 20.84-6.894 10.881 0 18.885 3.169 24.01 9.509 3.805 4.649 5.705 9.8 5.705 15.452 0 3.857-.859 7.819-2.574 11.886-1.719 4.068-4.98 8.848-9.787 14.342-7.66 8.664-12.35 14.805-14.064 18.423-1.722 3.621-2.765 8.599-3.134 14.938zm-1.109 9.826c2.482 0 4.582.859 6.301 2.576 1.715 1.717 2.574 3.816 2.574 6.299 0 2.431-.871 4.505-2.615 6.221-1.742 1.716-3.83 2.575-6.26 2.575s-4.504-.859-6.221-2.575-2.574-3.79-2.574-6.221c0-2.482.857-4.582 2.574-6.299s3.791-2.576 6.221-2.576z" fill="#fff"/></svg>