<svg width="240" height="237" viewBox="0 0 240 237" fill="none" xmlns="http://www.w3.org/2000/svg">
<path d="M32.9498 196.174C39.7762 203.809 51.6087 214.439 67.0819 222.224C72.6947 225.068 78.7626 227.613 84.9822 229.709C99.3936 234.799 114.867 237.943 131.098 236.746C141.869 235.997 152.184 233.302 162.348 228.661C165.837 227.014 169.933 226.565 173.422 224.918C178.732 222.373 187.682 214.738 191.474 210.995C200.273 202.462 209.223 193.778 216.049 183.598C229.095 164.135 236.529 141.978 238.501 120.719C239.107 114.731 240.928 97.5139 239.411 88.3815C238.501 82.2434 236.225 79.3989 235.315 74.4584C231.522 53.9479 220.6 37.1802 204.369 22.8079C174.787 -3.39155 129.885 -1.14588 108.495 1.54892C103.186 2.29748 97.1181 5.29171 92.1121 4.54315C87.106 3.7946 81.0381 8.88478 77.2457 11.2802C70.8743 15.0229 64.0479 19.0652 57.6766 23.5565C42.6585 34.186 27.9438 45.2647 18.6902 61.2838C4.12722 86.4353 -4.51956 113.234 2.45855 140.93C2.76194 142.278 3.21704 143.625 3.67213 144.823C7.46458 157.099 7.76798 169.525 32.9498 196.174Z" fill="#00B2A8"/>
<path d="M221 121.5C221 141.245 214.749 160.484 203.143 176.458C191.537 192.432 175.172 204.322 156.393 210.424C137.614 216.525 117.386 216.525 98.6069 210.424C79.828 204.322 63.4629 192.432 51.8569 176.458C40.2509 160.484 34 141.245 34 121.5C34 101.755 40.2509 82.5163 51.8569 66.5421C63.4629 50.5678 79.8281 38.6778 98.6069 32.5762C117.386 26.4746 137.614 26.4746 156.393 32.5762L143.638 71.8337C133.149 68.4258 121.851 68.4258 111.362 71.8337C100.874 75.2416 91.7336 81.8825 85.2513 90.8045C78.7691 99.7266 75.2777 110.472 75.2777 121.5C75.2777 132.528 78.7691 143.273 85.2513 152.195C91.7336 161.118 100.874 167.758 111.362 171.166C121.851 174.574 133.149 174.574 143.638 171.166C154.126 167.758 163.266 161.118 169.749 152.195C176.231 143.273 179.722 132.528 179.722 121.5H221Z" fill="#E07000"/>
<path d="M155.854 32.4028C174.881 38.4578 191.469 50.4446 203.191 66.6085C214.913 82.7724 221.153 102.264 220.997 122.231L179.843 121.909C179.93 110.731 176.437 99.819 169.874 90.7699C163.312 81.7209 154.025 75.0102 143.373 71.6204L155.854 32.4028Z" fill="#F6D5B3"/>
<path d="M104.13 59.168C103.607 59.168 103.136 59.0887 102.716 58.93C102.305 58.7713 101.955 58.5567 101.666 58.286C101.377 58.006 101.153 57.6887 100.994 57.334C100.845 56.97 100.77 56.5827 100.77 56.172C100.77 55.9387 100.798 55.7053 100.854 55.472C100.91 55.2293 100.994 55.0053 101.106 54.8C101.227 54.5853 101.377 54.394 101.554 54.226C101.731 54.058 101.946 53.932 102.198 53.848C101.759 53.652 101.451 53.3627 101.274 52.98C101.097 52.5973 101.008 52.21 101.008 51.818C101.008 51.4447 101.078 51.09 101.218 50.754C101.358 50.4087 101.563 50.11 101.834 49.858C102.105 49.606 102.431 49.4053 102.814 49.256C103.197 49.1067 103.635 49.032 104.13 49.032C104.615 49.032 105.049 49.1067 105.432 49.256C105.824 49.4053 106.151 49.6107 106.412 49.872C106.683 50.124 106.888 50.418 107.028 50.754C107.168 51.09 107.238 51.4447 107.238 51.818C107.238 52.21 107.149 52.5973 106.972 52.98C106.795 53.3627 106.487 53.652 106.048 53.848C106.3 53.932 106.515 54.058 106.692 54.226C106.869 54.394 107.014 54.5853 107.126 54.8C107.247 55.0147 107.336 55.2433 107.392 55.486C107.448 55.7193 107.476 55.948 107.476 56.172C107.476 56.564 107.397 56.942 107.238 57.306C107.089 57.6607 106.869 57.978 106.58 58.258C106.3 58.538 105.95 58.762 105.53 58.93C105.119 59.0887 104.653 59.168 104.13 59.168ZM104.13 53.316C104.363 53.316 104.573 53.2787 104.76 53.204C104.947 53.12 105.101 53.0127 105.222 52.882C105.353 52.7513 105.451 52.602 105.516 52.434C105.591 52.2567 105.628 52.0747 105.628 51.888C105.628 51.7013 105.591 51.524 105.516 51.356C105.451 51.188 105.353 51.0387 105.222 50.908C105.101 50.7773 104.947 50.6747 104.76 50.6C104.573 50.516 104.363 50.474 104.13 50.474C103.887 50.474 103.673 50.5113 103.486 50.586C103.299 50.6607 103.141 50.7633 103.01 50.894C102.889 51.0247 102.791 51.1787 102.716 51.356C102.651 51.524 102.618 51.7013 102.618 51.888C102.618 52.084 102.651 52.2707 102.716 52.448C102.791 52.616 102.889 52.7653 103.01 52.896C103.141 53.0267 103.299 53.1293 103.486 53.204C103.673 53.2787 103.887 53.316 104.13 53.316ZM104.13 57.726C104.401 57.726 104.643 57.684 104.858 57.6C105.073 57.516 105.255 57.404 105.404 57.264C105.553 57.1147 105.665 56.9467 105.74 56.76C105.824 56.5733 105.866 56.3773 105.866 56.172C105.866 55.976 105.829 55.7847 105.754 55.598C105.679 55.402 105.567 55.234 105.418 55.094C105.269 54.9447 105.087 54.828 104.872 54.744C104.657 54.6507 104.41 54.604 104.13 54.604C103.85 54.604 103.598 54.646 103.374 54.73C103.159 54.814 102.977 54.9307 102.828 55.08C102.679 55.22 102.567 55.388 102.492 55.584C102.417 55.7707 102.38 55.9667 102.38 56.172C102.38 56.3867 102.417 56.5873 102.492 56.774C102.576 56.9607 102.693 57.124 102.842 57.264C102.991 57.404 103.173 57.516 103.388 57.6C103.612 57.684 103.859 57.726 104.13 57.726ZM108.86 52.462C108.86 52.0047 108.939 51.5707 109.098 51.16C109.266 50.74 109.499 50.3713 109.798 50.054C110.097 49.7367 110.456 49.4893 110.876 49.312C111.296 49.1253 111.767 49.032 112.29 49.032C112.813 49.032 113.284 49.1253 113.704 49.312C114.133 49.4893 114.497 49.7367 114.796 50.054C115.104 50.3713 115.337 50.74 115.496 51.16C115.664 51.5707 115.748 52.0047 115.748 52.462V55.738C115.748 56.2047 115.664 56.6433 115.496 57.054C115.337 57.4647 115.104 57.8287 114.796 58.146C114.497 58.4633 114.133 58.7153 113.704 58.902C113.284 59.0793 112.813 59.168 112.29 59.168C111.767 59.168 111.296 59.0793 110.876 58.902C110.456 58.7153 110.097 58.4633 109.798 58.146C109.499 57.8287 109.266 57.4647 109.098 57.054C108.939 56.6433 108.86 56.2047 108.86 55.738V52.462ZM114.138 52.462C114.138 52.1913 114.091 51.9393 113.998 51.706C113.914 51.4633 113.793 51.2533 113.634 51.076C113.475 50.8893 113.279 50.7447 113.046 50.642C112.822 50.53 112.57 50.474 112.29 50.474C112.01 50.474 111.758 50.53 111.534 50.642C111.31 50.7447 111.119 50.8893 110.96 51.076C110.801 51.2533 110.68 51.4633 110.596 51.706C110.512 51.9393 110.47 52.1913 110.47 52.462V55.738C110.47 56.0087 110.512 56.2653 110.596 56.508C110.68 56.7413 110.801 56.9513 110.96 57.138C111.119 57.3153 111.31 57.46 111.534 57.572C111.758 57.6747 112.01 57.726 112.29 57.726C112.57 57.726 112.822 57.6747 113.046 57.572C113.279 57.46 113.475 57.3153 113.634 57.138C113.793 56.9513 113.914 56.7413 113.998 56.508C114.091 56.2653 114.138 56.0087 114.138 55.738V52.462ZM128.517 57.194C128.517 57.4553 128.466 57.7027 128.363 57.936C128.27 58.1693 128.135 58.3747 127.957 58.552C127.78 58.72 127.565 58.8553 127.313 58.958C127.061 59.0607 126.777 59.112 126.459 59.112C126.142 59.112 125.857 59.0607 125.605 58.958C125.353 58.8553 125.139 58.72 124.961 58.552C124.784 58.3747 124.649 58.1693 124.555 57.936C124.462 57.7027 124.415 57.4553 124.415 57.194V55.416C124.415 55.1547 124.462 54.912 124.555 54.688C124.649 54.4547 124.784 54.2493 124.961 54.072C125.139 53.8947 125.353 53.7547 125.605 53.652C125.857 53.5493 126.142 53.498 126.459 53.498C126.777 53.498 127.061 53.5493 127.313 53.652C127.565 53.7547 127.78 53.8947 127.957 54.072C128.135 54.2493 128.27 54.4547 128.363 54.688C128.466 54.912 128.517 55.1547 128.517 55.416V57.194ZM125.647 57.194C125.647 57.4367 125.722 57.6467 125.871 57.824C126.021 57.992 126.217 58.076 126.459 58.076C126.711 58.076 126.912 57.992 127.061 57.824C127.211 57.6467 127.285 57.4367 127.285 57.194V55.416C127.285 55.1733 127.211 54.968 127.061 54.8C126.912 54.6227 126.711 54.534 126.459 54.534C126.217 54.534 126.021 54.6227 125.871 54.8C125.722 54.968 125.647 55.1733 125.647 55.416V57.194ZM117.499 52.784V51.006C117.499 50.7447 117.546 50.502 117.639 50.278C117.733 50.0447 117.868 49.8393 118.045 49.662C118.223 49.4847 118.437 49.3447 118.689 49.242C118.941 49.1393 119.226 49.088 119.543 49.088C119.861 49.088 120.145 49.1393 120.397 49.242C120.649 49.3447 120.864 49.4847 121.041 49.662C121.219 49.8393 121.354 50.0447 121.447 50.278C121.55 50.502 121.601 50.7447 121.601 51.006V52.784C121.601 53.0453 121.55 53.2927 121.447 53.526C121.354 53.7593 121.219 53.9647 121.041 54.142C120.864 54.31 120.649 54.4453 120.397 54.548C120.145 54.6507 119.861 54.702 119.543 54.702C119.226 54.702 118.941 54.6507 118.689 54.548C118.437 54.4453 118.223 54.31 118.045 54.142C117.868 53.9647 117.733 53.7593 117.639 53.526C117.546 53.2927 117.499 53.0453 117.499 52.784ZM120.369 51.006C120.369 50.7633 120.295 50.558 120.145 50.39C119.996 50.2127 119.795 50.124 119.543 50.124C119.301 50.124 119.105 50.2127 118.955 50.39C118.806 50.558 118.731 50.7633 118.731 51.006V52.784C118.731 53.0267 118.806 53.2367 118.955 53.414C119.105 53.582 119.301 53.666 119.543 53.666C119.795 53.666 119.996 53.582 120.145 53.414C120.295 53.2367 120.369 53.0267 120.369 52.784V51.006ZM125.353 48.472L126.571 49.172L120.453 59.714L119.235 59.014L125.353 48.472Z" fill="#004539"/>
<path d="M176.658 89C176.658 88.2253 176.723 87.5767 176.854 87.054C176.985 86.5313 177.167 86.088 177.4 85.724C177.633 85.36 177.909 85.052 178.226 84.8C178.553 84.548 178.903 84.3007 179.276 84.058C179.491 83.9273 179.71 83.792 179.934 83.652C180.167 83.512 180.377 83.358 180.564 83.19C180.751 83.0127 180.905 82.8167 181.026 82.602C181.147 82.378 181.208 82.1167 181.208 81.818C181.208 81.342 181.073 81.0013 180.802 80.796C180.531 80.5813 180.195 80.474 179.794 80.474C179.374 80.474 179.015 80.6047 178.716 80.866C178.417 81.118 178.268 81.5287 178.268 82.098H176.658C176.658 81.6033 176.742 81.1647 176.91 80.782C177.087 80.3993 177.321 80.082 177.61 79.83C177.909 79.5687 178.245 79.3727 178.618 79.242C179.001 79.102 179.397 79.032 179.808 79.032C180.228 79.032 180.62 79.0927 180.984 79.214C181.357 79.3353 181.679 79.522 181.95 79.774C182.221 80.0167 182.431 80.3247 182.58 80.698C182.739 81.062 182.818 81.4867 182.818 81.972C182.818 82.42 182.711 82.8213 182.496 83.176C182.281 83.5307 182.029 83.8433 181.74 84.114C181.451 84.3753 181.157 84.5993 180.858 84.786C180.569 84.9727 180.345 85.122 180.186 85.234C179.831 85.486 179.542 85.7053 179.318 85.892C179.103 86.0787 178.935 86.256 178.814 86.424C178.693 86.592 178.609 86.7647 178.562 86.942C178.525 87.1193 178.506 87.3247 178.506 87.558H182.762V89H176.658ZM183.999 82.462C183.999 82.0047 184.078 81.5707 184.237 81.16C184.405 80.74 184.638 80.3713 184.937 80.054C185.235 79.7367 185.595 79.4893 186.015 79.312C186.435 79.1253 186.906 79.032 187.429 79.032C187.951 79.032 188.423 79.1253 188.843 79.312C189.272 79.4893 189.636 79.7367 189.935 80.054C190.243 80.3713 190.476 80.74 190.635 81.16C190.803 81.5707 190.887 82.0047 190.887 82.462V85.738C190.887 86.2047 190.803 86.6433 190.635 87.054C190.476 87.4647 190.243 87.8287 189.935 88.146C189.636 88.4633 189.272 88.7153 188.843 88.902C188.423 89.0793 187.951 89.168 187.429 89.168C186.906 89.168 186.435 89.0793 186.015 88.902C185.595 88.7153 185.235 88.4633 184.937 88.146C184.638 87.8287 184.405 87.4647 184.237 87.054C184.078 86.6433 183.999 86.2047 183.999 85.738V82.462ZM189.277 82.462C189.277 82.1913 189.23 81.9393 189.137 81.706C189.053 81.4633 188.931 81.2533 188.773 81.076C188.614 80.8893 188.418 80.7447 188.185 80.642C187.961 80.53 187.709 80.474 187.429 80.474C187.149 80.474 186.897 80.53 186.673 80.642C186.449 80.7447 186.257 80.8893 186.099 81.076C185.94 81.2533 185.819 81.4633 185.735 81.706C185.651 81.9393 185.609 82.1913 185.609 82.462V85.738C185.609 86.0087 185.651 86.2653 185.735 86.508C185.819 86.7413 185.94 86.9513 186.099 87.138C186.257 87.3153 186.449 87.46 186.673 87.572C186.897 87.6747 187.149 87.726 187.429 87.726C187.709 87.726 187.961 87.6747 188.185 87.572C188.418 87.46 188.614 87.3153 188.773 87.138C188.931 86.9513 189.053 86.7413 189.137 86.508C189.23 86.2653 189.277 86.0087 189.277 85.738V82.462ZM203.656 87.194C203.656 87.4553 203.605 87.7027 203.502 87.936C203.409 88.1693 203.273 88.3747 203.096 88.552C202.919 88.72 202.704 88.8553 202.452 88.958C202.2 89.0607 201.915 89.112 201.598 89.112C201.281 89.112 200.996 89.0607 200.744 88.958C200.492 88.8553 200.277 88.72 200.1 88.552C199.923 88.3747 199.787 88.1693 199.694 87.936C199.601 87.7027 199.554 87.4553 199.554 87.194V85.416C199.554 85.1547 199.601 84.912 199.694 84.688C199.787 84.4547 199.923 84.2493 200.1 84.072C200.277 83.8947 200.492 83.7547 200.744 83.652C200.996 83.5493 201.281 83.498 201.598 83.498C201.915 83.498 202.2 83.5493 202.452 83.652C202.704 83.7547 202.919 83.8947 203.096 84.072C203.273 84.2493 203.409 84.4547 203.502 84.688C203.605 84.912 203.656 85.1547 203.656 85.416V87.194ZM200.786 87.194C200.786 87.4367 200.861 87.6467 201.01 87.824C201.159 87.992 201.355 88.076 201.598 88.076C201.85 88.076 202.051 87.992 202.2 87.824C202.349 87.6467 202.424 87.4367 202.424 87.194V85.416C202.424 85.1733 202.349 84.968 202.2 84.8C202.051 84.6227 201.85 84.534 201.598 84.534C201.355 84.534 201.159 84.6227 201.01 84.8C200.861 84.968 200.786 85.1733 200.786 85.416V87.194ZM192.638 82.784V81.006C192.638 80.7447 192.685 80.502 192.778 80.278C192.871 80.0447 193.007 79.8393 193.184 79.662C193.361 79.4847 193.576 79.3447 193.828 79.242C194.08 79.1393 194.365 79.088 194.682 79.088C194.999 79.088 195.284 79.1393 195.536 79.242C195.788 79.3447 196.003 79.4847 196.18 79.662C196.357 79.8393 196.493 80.0447 196.586 80.278C196.689 80.502 196.74 80.7447 196.74 81.006V82.784C196.74 83.0453 196.689 83.2927 196.586 83.526C196.493 83.7593 196.357 83.9647 196.18 84.142C196.003 84.31 195.788 84.4453 195.536 84.548C195.284 84.6507 194.999 84.702 194.682 84.702C194.365 84.702 194.08 84.6507 193.828 84.548C193.576 84.4453 193.361 84.31 193.184 84.142C193.007 83.9647 192.871 83.7593 192.778 83.526C192.685 83.2927 192.638 83.0453 192.638 82.784ZM195.508 81.006C195.508 80.7633 195.433 80.558 195.284 80.39C195.135 80.2127 194.934 80.124 194.682 80.124C194.439 80.124 194.243 80.2127 194.094 80.39C193.945 80.558 193.87 80.7633 193.87 81.006V82.784C193.87 83.0267 193.945 83.2367 194.094 83.414C194.243 83.582 194.439 83.666 194.682 83.666C194.934 83.666 195.135 83.582 195.284 83.414C195.433 83.2367 195.508 83.0267 195.508 82.784V81.006ZM200.492 78.472L201.71 79.172L195.592 89.714L194.374 89.014L200.492 78.472Z" fill="#004539"/>
<path d="M131.527 107.997C130.39 108 129.257 107.921 128.155 107.762C127.919 107.719 127.722 107.625 127.607 107.501C127.492 107.376 127.469 107.23 127.542 107.096C127.577 107.03 127.635 106.968 127.712 106.915C127.789 106.862 127.884 106.817 127.991 106.785C128.099 106.753 128.216 106.733 128.337 106.726C128.458 106.72 128.58 106.727 128.696 106.748V106.748C130.599 107.068 132.627 107.057 134.52 106.718C136.413 106.378 138.084 105.725 139.318 104.842C139.389 104.786 139.48 104.738 139.584 104.702C139.688 104.666 139.804 104.641 139.925 104.631C140.046 104.62 140.17 104.624 140.288 104.641C140.407 104.658 140.518 104.688 140.616 104.73C140.716 104.771 140.8 104.823 140.865 104.884C140.929 104.944 140.971 105.01 140.99 105.08C141.008 105.149 141.002 105.22 140.972 105.289C140.942 105.357 140.888 105.421 140.815 105.477C139.731 106.287 138.323 106.938 136.708 107.376C135.093 107.814 133.317 108.027 131.527 107.997V107.997Z" fill="#004131" stroke="#004131" stroke-width="3"/>
<path d="M107.916 118.121C106.775 118.124 105.639 117.966 104.532 117.651C104.295 117.567 104.097 117.379 103.982 117.131C103.867 116.882 103.844 116.592 103.917 116.324C103.952 116.192 104.01 116.069 104.088 115.963C104.165 115.857 104.26 115.769 104.368 115.704C104.476 115.64 104.594 115.6 104.715 115.587C104.836 115.574 104.959 115.589 105.075 115.63C106.993 116.262 109.036 116.228 110.936 115.533C112.837 114.837 114.508 113.512 115.733 111.729C115.889 111.531 116.106 111.407 116.34 111.38C116.574 111.354 116.809 111.427 116.997 111.586C117.186 111.745 117.315 111.978 117.358 112.239C117.402 112.5 117.358 112.77 117.234 112.995C116.16 114.631 114.752 115.951 113.13 116.843C111.508 117.735 109.72 118.174 107.916 118.121V118.121Z" fill="#004131" stroke="#004131" stroke-width="3"/>
<path d="M127.552 158.625C118.211 158.638 109.207 155.129 102.338 148.798C95.4695 142.466 91.2401 133.778 90.4937 124.466C89.7474 115.154 92.5391 105.903 98.3118 98.5586C104.085 91.214 112.414 86.3156 121.639 84.8407C130.863 83.3658 140.305 85.4228 148.08 90.6013C155.855 95.7798 161.392 103.699 163.586 112.779C165.781 121.86 164.471 131.434 159.919 139.591C155.366 147.749 147.906 153.89 139.026 156.79C135.323 158.005 131.45 158.624 127.552 158.625V158.625ZM127.633 86.2096C123.909 86.2297 120.211 86.8324 116.674 87.9958C110.051 90.1834 104.222 94.2784 99.9181 99.767C95.6143 105.256 93.0276 111.893 92.4827 118.847C91.9378 125.8 93.4589 132.76 96.8551 138.852C100.251 144.944 105.371 149.897 111.573 153.089C117.801 156.221 124.815 157.444 131.735 156.606C138.656 155.768 145.175 152.905 150.475 148.376C155.775 143.848 159.62 137.855 161.528 131.15C163.436 124.446 163.323 117.327 161.201 110.686V110.686C158.892 103.604 154.408 97.4303 148.386 93.0444C142.365 88.6586 135.114 86.2837 127.665 86.2579L127.633 86.2096Z" fill="#004131" stroke="#004131" stroke-width="3"/>
<path d="M127.018 145.125C122.65 145.118 118.394 143.77 114.853 141.272C111.311 138.775 108.664 135.254 107.285 131.207C107.224 131.017 107.243 130.81 107.338 130.633C107.433 130.456 107.596 130.323 107.791 130.263C107.984 130.203 108.194 130.22 108.375 130.31C108.556 130.399 108.693 130.555 108.758 130.742C110.337 135.466 113.773 139.384 118.311 141.635C122.849 143.885 128.117 144.284 132.956 142.742C137.795 141.201 141.809 137.847 144.114 133.417C146.419 128.987 146.827 123.844 145.249 119.12C145.217 119.025 145.206 118.924 145.214 118.824C145.223 118.725 145.251 118.627 145.298 118.538C145.345 118.449 145.41 118.37 145.488 118.306C145.566 118.241 145.657 118.192 145.755 118.161C145.852 118.131 145.955 118.119 146.057 118.128C146.16 118.136 146.259 118.164 146.351 118.21C146.442 118.256 146.523 118.319 146.589 118.395C146.655 118.471 146.706 118.56 146.737 118.655C147.747 121.692 148.007 124.918 147.494 128.071C146.982 131.224 145.712 134.214 143.788 136.796C141.865 139.378 139.343 141.479 136.428 142.926C133.513 144.374 130.289 145.127 127.018 145.125V145.125Z" fill="#004131" stroke="#004131" stroke-width="3"/>
</svg>
