<svg width="271" height="240" viewBox="0 0 271 240" fill="none" xmlns="http://www.w3.org/2000/svg">
<path d="M45.9498 198.657C52.7762 206.389 64.6087 217.153 80.0819 225.036C85.6947 227.917 91.7626 230.494 97.9822 232.617C112.394 237.771 127.867 240.955 144.098 239.742C154.869 238.984 165.184 236.255 175.348 231.556C178.837 229.888 182.933 229.433 186.422 227.765C191.732 225.188 200.682 217.456 204.474 213.666C213.273 205.024 222.223 196.231 229.049 185.922C242.095 166.213 249.529 143.775 251.501 122.247C252.107 116.183 253.928 98.7483 252.411 89.5003C251.501 83.2844 249.225 80.4039 248.315 75.4009C244.522 54.6308 233.6 37.6509 217.369 23.0966C187.787 -3.43448 142.885 -1.16039 121.495 1.56853C116.186 2.32656 110.118 5.35869 105.112 4.60066C100.106 3.84263 94.0381 8.99725 90.2457 11.423C83.8743 15.2131 77.0479 19.3065 70.6766 23.8547C55.6585 34.6187 40.9438 45.8376 31.6902 62.0595C17.1272 87.5294 8.48044 114.667 15.4585 142.714C15.7619 144.079 16.217 145.443 16.6721 146.656C20.4646 159.088 20.768 171.671 45.9498 198.657Z" fill="#F7A34C"/>
<path d="M213.443 126.887C243.512 126.887 267.887 102.512 267.887 72.4434C267.887 42.3751 243.512 18 213.443 18C183.375 18 159 42.3751 159 72.4434C159 102.512 183.375 126.887 213.443 126.887Z" fill="#F9E2CC" stroke="#00483A" stroke-width="6" stroke-miterlimit="10"/>
<path d="M213.443 117.619C238.393 117.619 258.619 97.3935 258.619 72.4434C258.619 47.4934 238.393 27.2673 213.443 27.2673C188.493 27.2673 168.267 47.4934 168.267 72.4434C168.267 97.3935 188.493 117.619 213.443 117.619Z" stroke="#00483A" stroke-width="6" stroke-miterlimit="10"/>
<path d="M208.781 86.4194C211.069 86.4125 213.272 85.558 214.966 84.021L228.466 93.0241L231.056 89.1442L217.556 80.1463C217.912 79.1679 218.1 78.1362 218.111 77.0952C218.103 75.0341 217.412 73.0337 216.147 71.4067C214.882 69.7797 213.113 68.6177 211.117 68.1024V42.1395H206.455V68.1128C204.288 68.7058 202.408 70.0613 201.161 71.9299C199.914 73.7986 199.383 76.0548 199.667 78.2836C199.95 80.5123 201.029 82.5637 202.705 84.0604C204.38 85.5571 206.54 86.3985 208.786 86.4298L208.781 86.4194ZM208.781 72.433C209.703 72.433 210.605 72.7065 211.371 73.2188C212.138 73.731 212.736 74.4592 213.089 75.3111C213.441 76.1629 213.534 77.1003 213.354 78.0047C213.174 78.9091 212.73 79.7398 212.078 80.3918C211.426 81.0438 210.595 81.4878 209.691 81.6677C208.786 81.8476 207.849 81.7553 206.997 81.4024C206.145 81.0496 205.417 80.452 204.905 79.6853C204.393 78.9186 204.119 78.0173 204.119 77.0952C204.119 75.8587 204.61 74.6729 205.485 73.7986C206.359 72.9242 207.545 72.433 208.781 72.433Z" fill="#00483A"/>
<g clip-path="url(#clip0)">
<path d="M150 95.4034L135.292 86.3233L110.813 125.316L92.2364 72L-0.0202637 103.941L45.6144 235.02L137.871 203.079L118.146 146.67L150 95.4034ZM48.9994 116.718L79.7449 106.091C80.5508 105.809 81.5379 106.512 81.9409 107.678C82.3439 108.843 81.9409 110.008 81.2156 110.289L50.4701 120.876C49.6642 121.157 48.677 120.434 48.2741 119.269C47.8711 118.104 48.1935 116.999 48.9994 116.718ZM32.0752 127.807L27.159 124.894C26.9621 124.778 26.8085 124.602 26.7213 124.392C26.634 124.182 26.6178 123.949 26.6755 123.728C26.7159 123.566 26.7934 123.415 26.902 123.288C27.0106 123.16 27.1473 123.059 27.3014 122.993C27.4556 122.927 27.6231 122.897 27.7906 122.906C27.9582 122.916 28.1212 122.963 28.2673 123.045L30.6647 124.492C30.8101 124.578 30.9738 124.63 31.1426 124.642C31.3114 124.655 31.4809 124.628 31.6374 124.563C31.7939 124.499 31.9333 124.399 32.0442 124.272C32.1552 124.144 32.2347 123.992 32.2766 123.829L34.4326 114.91C34.4745 114.746 34.554 114.594 34.665 114.467C34.776 114.339 34.9153 114.24 35.0718 114.175C35.2283 114.111 35.3976 114.084 35.5664 114.096C35.7352 114.109 35.8989 114.16 36.0443 114.247C36.2412 114.362 36.395 114.538 36.4823 114.748C36.5696 114.959 36.5855 115.192 36.5278 115.412L33.6869 127.184C33.6402 127.344 33.5571 127.491 33.4441 127.614C33.3311 127.737 33.1913 127.832 33.0354 127.892C32.8795 127.953 32.7118 127.976 32.5452 127.961C32.3787 127.946 32.2179 127.893 32.0752 127.807ZM39.3889 144.982L34.4727 142.029C34.2758 141.914 34.1222 141.738 34.0349 141.528C33.9476 141.317 33.9314 141.084 33.9892 140.864C34.0257 140.699 34.1012 140.546 34.209 140.416C34.3169 140.286 34.4542 140.183 34.6097 140.116C34.7651 140.05 34.9342 140.021 35.103 140.032C35.2719 140.043 35.4357 140.094 35.5809 140.181L37.9784 141.628C38.1237 141.714 38.2874 141.766 38.4562 141.778C38.6251 141.79 38.7946 141.763 38.9511 141.699C39.1076 141.635 39.2469 141.535 39.3579 141.407C39.4688 141.28 39.5484 141.128 39.5903 140.965L41.746 132.045C41.7879 131.882 41.8677 131.73 41.9787 131.603C42.0896 131.475 42.2289 131.375 42.3854 131.311C42.542 131.247 42.7112 131.219 42.88 131.232C43.0489 131.244 43.2125 131.296 43.3579 131.382C43.5548 131.497 43.7086 131.674 43.7959 131.884C43.8832 132.094 43.8992 132.327 43.8414 132.547L40.9806 144.319C40.9415 144.482 40.8643 144.634 40.7553 144.762C40.6464 144.889 40.5086 144.99 40.3535 145.054C40.1983 145.119 40.0302 145.146 39.8625 145.133C39.6949 145.121 39.5327 145.069 39.3889 144.982ZM51.4775 149.743L48.6164 161.515C48.5773 161.678 48.5001 161.83 48.3912 161.958C48.2822 162.085 48.1446 162.185 47.9895 162.25C47.8344 162.315 47.6663 162.342 47.4986 162.329C47.331 162.317 47.1687 162.265 47.0249 162.178L42.1088 159.225C41.9111 159.105 41.7562 158.926 41.6658 158.713C41.5755 158.501 41.5543 158.265 41.6051 158.04C41.647 157.877 41.7265 157.725 41.8375 157.597C41.9485 157.47 42.0878 157.37 42.2443 157.306C42.4008 157.241 42.5703 157.214 42.7391 157.227C42.908 157.239 43.0716 157.291 43.217 157.377L45.6144 158.824C45.7582 158.91 45.9205 158.962 46.0881 158.975C46.2558 158.987 46.4242 158.96 46.5793 158.895C46.7344 158.831 46.872 158.73 46.9809 158.603C47.0899 158.475 47.1671 158.324 47.2062 158.161L49.3821 149.241C49.4212 149.078 49.4984 148.927 49.6073 148.799C49.7163 148.671 49.8539 148.571 50.009 148.507C50.1641 148.442 50.3325 148.415 50.5001 148.427C50.6678 148.44 50.83 148.491 50.9738 148.578C51.1647 148.699 51.3123 148.876 51.3956 149.086C51.4789 149.295 51.4935 149.525 51.4372 149.743H51.4775ZM55.5071 136.525C55.1041 135.36 55.5071 134.195 56.2525 133.913L86.998 123.287C87.8039 123.005 88.7709 123.708 89.194 124.874C89.6171 126.039 89.1941 127.204 88.4486 127.485L57.7031 138.132C56.9576 138.413 55.9705 137.69 55.5676 136.525H55.5071ZM61.5514 153.56C61.1484 152.415 61.5514 151.23 62.2767 150.969L93.0222 140.322C93.8281 140.041 94.8152 140.764 95.2182 141.909C95.6212 143.054 95.2182 144.239 94.4727 144.52L63.7474 155.167C62.9415 155.449 62.0148 154.725 61.5514 153.56ZM76.8031 197.976L74.9898 199.403L75.3727 197.113L76.8435 187.45L84.9026 192.372L76.8031 197.976ZM77.8105 184.356L135.836 90.8834L145.205 96.669L87.1591 190.122L77.8105 184.356Z" fill="#00483A"/>
</g>
<defs>
<clipPath id="clip0">
<rect width="150" height="163" fill="white" transform="translate(0 72)"/>
</clipPath>
</defs>
</svg>
