<svg width="273" height="237" viewBox="0 0 273 237" fill="none" xmlns="http://www.w3.org/2000/svg">
<path d="M42.9498 196.174C49.7762 203.809 61.6087 214.439 77.0819 222.224C82.6947 225.068 88.7626 227.613 94.9822 229.709C109.394 234.799 124.867 237.943 141.098 236.746C151.869 235.997 162.184 233.302 172.348 228.661C175.837 227.014 179.933 226.565 183.422 224.918C188.732 222.373 197.682 214.738 201.474 210.995C210.273 202.462 219.223 193.778 226.049 183.598C239.095 164.135 246.529 141.978 248.501 120.719C249.107 114.731 250.928 97.5139 249.411 88.3815C248.501 82.2434 246.225 79.3989 245.315 74.4584C241.522 53.9479 230.6 37.1802 214.369 22.8079C184.787 -3.39155 139.885 -1.14588 118.495 1.54892C113.186 2.29748 107.118 5.29171 102.112 4.54315C97.106 3.7946 91.0381 8.88478 87.2457 11.2802C80.8743 15.0229 74.0479 19.0652 67.6766 23.5565C52.6585 34.186 37.9438 45.2647 28.6902 61.2838C14.1272 86.4353 5.48044 113.234 12.4585 140.93C12.7619 142.278 13.217 143.625 13.6721 144.823C17.4646 157.099 17.768 169.525 42.9498 196.174Z" fill="#AC6AA0"/>
<g clip-path="url(#clip0)">
<path d="M254.293 163.778C260.659 161.149 263.689 153.856 261.059 147.489C258.429 141.123 251.136 138.094 244.77 140.723C238.403 143.353 235.374 150.646 238.004 157.012C240.633 163.379 247.926 166.408 254.293 163.778Z" fill="#00483A"/>
<path d="M255.53 166.57C253.276 166.57 251.043 167.014 248.961 167.877C246.878 168.74 244.986 170.005 243.393 171.6C241.799 173.194 240.535 175.087 239.673 177.17C238.812 179.253 238.369 181.486 238.37 183.74V195.92H247.44L249.86 225.11H261.02L262.89 195.92H272.7V183.74C272.7 179.186 270.891 174.819 267.671 171.599C264.451 168.379 260.084 166.57 255.53 166.57V166.57Z" fill="#00483A"/>
<path d="M208.53 131.95C213.798 129.87 218.175 126.017 220.907 121.056C223.639 116.095 224.555 110.336 223.496 104.772C222.438 99.2085 219.471 94.1883 215.108 90.5771C210.745 86.9659 205.259 84.99 199.595 84.99C193.931 84.99 188.445 86.9659 184.082 90.5771C179.719 94.1883 176.752 99.2085 175.694 104.772C174.635 110.336 175.551 116.095 178.283 121.056C181.015 126.017 185.392 129.87 190.66 131.95C185.222 133.815 180.503 137.332 177.161 142.009C173.819 146.687 172.022 152.291 172.02 158.04V177.62H186.6L190.48 224.52H208.42L211.42 177.62H227.19V158.04C227.188 152.288 225.389 146.681 222.043 142.003C218.697 137.325 213.972 133.81 208.53 131.95V131.95ZM187.93 102.74C187.93 102.74 192.03 109.39 212.12 108.95C212.12 108.95 213.42 123.39 198.35 122.27C183.28 121.15 187.53 105.71 187.91 102.74H187.93Z" fill="#00483A"/>
</g>
<path d="M158.031 85.7499V46.9895C158.031 40.3686 152.701 35 146.127 35H77.9035C71.3299 35 66 40.3686 66 46.9895V85.7499C66 92.3707 71.3299 97.7393 77.9035 97.7393H79.476V110.878C79.476 112.449 80.4094 113.87 81.853 114.496C82.3578 114.714 82.8903 114.82 83.4188 114.82C84.4022 114.82 85.3712 114.454 86.118 113.753L103.216 97.7393H146.129C152.701 97.7393 158.031 92.3707 158.031 85.7499Z" fill="white"/>
<path d="M160.12 105.862H120.685C116.885 105.862 113.805 108.965 113.805 112.792V135.196C113.805 139.024 116.887 142.127 120.685 142.127H145.488L155.373 151.384C155.804 151.788 156.364 152 156.933 152C157.238 152 157.547 151.938 157.838 151.812C158.673 151.451 159.212 150.63 159.212 149.722V142.127H160.12C163.921 142.127 167 139.024 167 135.196V112.793C167 108.965 163.92 105.862 160.12 105.862Z" fill="white"/>
<g clip-path="url(#clip1)">
<path d="M25.89 181.77C25.7522 180.178 25.4162 178.609 24.89 177.1C24.3185 175.324 23.3 173.724 21.9324 172.454C20.5648 171.185 18.8939 170.288 17.08 169.85C17.08 169.85 9.33005 167.6 4.21005 172.63C-0.909952 177.66 0.0800434 184.84 0.0800434 184.84C0.0484953 185.577 0.166488 186.313 0.426906 187.004C0.687325 187.694 1.08478 188.325 1.59536 188.858C2.10594 189.391 2.71907 189.815 3.39785 190.105C4.07663 190.394 4.80705 190.544 5.54507 190.544C6.28309 190.544 7.01345 190.394 7.69223 190.105C8.37101 189.815 8.98414 189.391 9.49472 188.858C10.0053 188.325 10.4028 187.694 10.6632 187.004C10.9236 186.313 11.0416 185.577 11.01 184.84C11.01 184.84 11.28 180.16 13.01 179.84C14.74 179.52 15.01 181.7 15.01 181.7V219.35C15.0703 220.759 15.6725 222.09 16.6908 223.066C17.7091 224.041 19.0648 224.586 20.4751 224.586C21.8853 224.586 23.2411 224.041 24.2594 223.066C25.2777 222.09 25.8797 220.759 25.94 219.35V182.35C25.9 182.18 25.9 182.03 25.89 181.77Z" fill="#00483A"/>
<path d="M55.27 137.79C57.9207 137.792 60.5125 137.008 62.7174 135.537C64.9223 134.065 66.6414 131.973 67.6571 129.525C68.6729 127.077 68.9397 124.382 68.4238 121.782C67.9079 119.182 66.6324 116.793 64.7588 114.918C62.8852 113.043 60.4975 111.766 57.8979 111.248C55.2983 110.73 52.6035 110.995 50.1544 112.009C47.7052 113.023 45.6119 114.74 44.139 116.944C42.6662 119.148 41.88 121.739 41.88 124.39C41.8826 127.941 43.2939 131.347 45.8042 133.859C48.3145 136.371 51.7187 137.785 55.27 137.79V137.79Z" fill="#00483A"/>
<path d="M75.8799 154.21C75.8773 150.41 74.3667 146.767 71.6799 144.08C68.993 141.393 65.3497 139.883 61.55 139.88H49.03C45.232 139.885 41.5912 141.397 38.9065 144.084C36.2218 146.77 34.7126 150.412 34.71 154.21V180.03C34.7162 181.555 35.24 183.032 36.1956 184.22C37.1512 185.409 38.482 186.237 39.97 186.57L42.59 187.14V218.21C42.5926 219.984 43.2983 221.684 44.5523 222.938C45.8064 224.192 47.5065 224.897 49.28 224.9H61.28C63.0535 224.897 64.7535 224.192 66.0076 222.938C67.2616 221.684 67.9673 219.984 67.97 218.21V187.11L70.6 186.54C72.0871 186.205 73.4168 185.376 74.3721 184.189C75.3275 183.001 75.852 181.524 75.86 180V154.21H75.8799Z" fill="#00483A"/>
</g>
<defs>
<clipPath id="clip0">
<rect width="100.68" height="140.1" fill="white" transform="translate(172 85)"/>
</clipPath>
<clipPath id="clip1">
<rect width="75.88" height="113.87" fill="white" transform="translate(0 111)"/>
</clipPath>
</defs>
</svg>
