<svg width="240" height="237" viewBox="0 0 240 237" fill="none" xmlns="http://www.w3.org/2000/svg">
<path d="M32.9498 196.174C39.7762 203.809 51.6087 214.439 67.0819 222.224C72.6947 225.068 78.7626 227.613 84.9822 229.709C99.3936 234.799 114.867 237.943 131.098 236.746C141.869 235.997 152.184 233.302 162.348 228.661C165.837 227.014 169.933 226.565 173.422 224.918C178.732 222.373 187.682 214.738 191.474 210.995C200.273 202.462 209.223 193.778 216.049 183.598C229.095 164.135 236.529 141.978 238.501 120.719C239.107 114.731 240.928 97.5139 239.411 88.3815C238.501 82.2434 236.225 79.3989 235.315 74.4584C231.522 53.9479 220.6 37.1802 204.369 22.8079C174.787 -3.39155 129.885 -1.14588 108.495 1.54892C103.186 2.29748 97.1181 5.29171 92.1121 4.54315C87.106 3.7946 81.0381 8.88478 77.2457 11.2802C70.8743 15.0229 64.0479 19.0652 57.6766 23.5565C42.6585 34.186 27.9438 45.2647 18.6902 61.2838C4.12722 86.4353 -4.51956 113.234 2.45855 140.93C2.76194 142.278 3.21704 143.625 3.67213 144.823C7.46458 157.099 7.76798 169.525 32.9498 196.174Z" fill="#56C3F0"/>
<path d="M106 172V175.833C106 179.347 108.903 182.222 112.452 182.222H109.226V184.139C109.226 186.694 111.161 188.611 113.742 188.611H113.097V191.486C113.097 193.403 114.71 195 116.645 195H125.355C127.29 195 128.903 193.403 128.903 191.486V188.611H128.258C130.839 188.611 132.774 186.694 132.774 184.139V182.222H129.548C133.097 182.222 136 179.347 136 175.833V172H106Z" stroke="#004030" stroke-width="5" stroke-miterlimit="10"/>
<path d="M121 70C140.862 70 157 86.8197 157 107.377C156.069 131.049 142.414 127.311 137.138 160.639C136.828 163.131 134.655 165 131.862 165C127.207 165 120.69 165 120.69 165C120.69 165 114.172 165 109.517 165C107.034 165 104.862 163.131 104.241 160.639C99.5862 127 85.6207 131.049 85 107.377C85 86.5082 101.138 70 121 70Z" stroke="#004030" stroke-width="5" stroke-miterlimit="10"/>
<path d="M120.371 142.66C121.303 143.281 121.924 144.211 121.924 145.453C121.924 146.073 121.614 146.694 121.303 147.314C120.992 147.935 119.75 147.935 119.439 147.314C119.129 146.694 118.818 145.763 119.129 144.832C119.439 143.281 120.682 142.04 122.235 142.04C124.409 141.729 125.962 143.281 125.962 145.453C125.962 146.073 125.651 146.694 125.341 147.314C125.03 147.935 123.788 147.935 123.477 147.314C123.167 146.694 122.856 145.763 123.167 144.832C123.477 143.281 124.72 142.04 126.273 142.04C128.447 141.729 130 143.281 130 145.453V165" stroke="#004030" stroke-width="5" stroke-miterlimit="10"/>
<path d="M111 164C111 164 111 148.444 111 145.394C111 143.259 113.063 141.734 115.125 142.039C116.844 142.344 118.219 143.259 118.563 144.784C118.563 145.699 118.562 146.309 118.219 147.224C117.875 147.834 116.5 147.834 116.156 147.224C115.812 146.614 115.469 145.699 115.813 144.784C116.156 143.259 117.531 142.039 119.25 142.039C120.281 142.039 121.313 142.039 122 142.649" stroke="#004030" stroke-width="5" stroke-miterlimit="10"/>
<path d="M120 60V43" stroke="#004030" stroke-width="5" stroke-miterlimit="10" stroke-linecap="round"/>
<path d="M155 70L164 58" stroke="#004030" stroke-width="5" stroke-miterlimit="10" stroke-linecap="round"/>
<path d="M176 99L191 94" stroke="#004030" stroke-width="5" stroke-miterlimit="10" stroke-linecap="round"/>
<path d="M177 129L193 131" stroke="#004030" stroke-width="5" stroke-miterlimit="10" stroke-linecap="round"/>
<path d="M166 153L177 164" stroke="#004030" stroke-width="5" stroke-miterlimit="10" stroke-linecap="round"/>
<path d="M86 70L77 58" stroke="#004030" stroke-width="5" stroke-miterlimit="10" stroke-linecap="round"/>
<path d="M66 99L50 94" stroke="#004030" stroke-width="5" stroke-miterlimit="10" stroke-linecap="round"/>
<path d="M65 129L48 131" stroke="#004030" stroke-width="5" stroke-miterlimit="10" stroke-linecap="round"/>
<path d="M77 153L63 164" stroke="#004030" stroke-width="5" stroke-miterlimit="10" stroke-linecap="round"/>
</svg>
