<svg xmlns="http://www.w3.org/2000/svg" viewBox="0 0 24 24"><g id="Layer_24" data-name="Layer 24"><rect x="1.05" y="0.91" width="22" height="22" rx="3.1" style="fill:none;stroke:#00483a;stroke-miterlimit:10"/><path d="M9.31,6a2.94,2.94,0,0,1-.19-1,3.18,3.18,0,0,1,.11-.82A1.75,1.75,0,1,0,7.79,6.87,1.75,1.75,0,0,0,9.31,6Z" style="fill:#00483a"/><path d="M9.22,16.24a2,2,0,0,1-1.15-1.77V10.72A3.06,3.06,0,0,1,9,8.57a1.76,1.76,0,0,0-.33,0H7a1.88,1.88,0,0,0-1.88,1.88v3.45a.86.86,0,0,0,.68.83l.38.08V19a.86.86,0,0,0,.85.86H8.59a.86.86,0,0,0,.63-.28V16.24Z" style="fill:#00483a"/><path d="M14.77,6a1.74,1.74,0,1,0,.07-1.85A2.81,2.81,0,0,1,15,5,2.94,2.94,0,0,1,14.77,6Z" style="fill:#00483a"/><path d="M19,10.42a1.88,1.88,0,0,0-1.88-1.88H15.45l-.33,0A3,3,0,0,1,16,10.72v3.75a2,2,0,0,1-1.14,1.77v3.31a.84.84,0,0,0,.62.28h1.61A.87.87,0,0,0,18,19V14.78l.38-.08a.85.85,0,0,0,.67-.83V10.42Z" style="fill:#00483a"/><path d="M12,6.9A2,2,0,1,0,10.09,5,2,2,0,0,0,12,6.9Z" style="fill:#00483a"/><path d="M15,10.72A2.09,2.09,0,0,0,13,8.63H11.13A2.1,2.1,0,0,0,9,10.72v3.75a1,1,0,0,0,.77.95l.38.08V20a1,1,0,0,0,1,1h1.75a1,1,0,0,0,1-1V15.5l.38-.08a1,1,0,0,0,.76-.95V10.72Z" style="fill:#00483a"/></g></svg>