<?xml version="1.0" encoding="utf-8"?>
<!-- Generator: Adobe Illustrator 24.3.0, SVG Export Plug-In . SVG Version: 6.00 Build 0)  -->
<svg version="1.1" id="Layer_1" xmlns="http://www.w3.org/2000/svg" xmlns:xlink="http://www.w3.org/1999/xlink" x="0px" y="0px"
	 viewBox="0 0 92 95" style="enable-background:new 0 0 92 95;" xml:space="preserve">
<style type="text/css">
	.st0{fill:#818181;}
</style>
<g>
	<path class="st0" d="M46,14.3c-13.9,0-25.2,11.3-25.2,25.2S32.1,64.7,46,64.7s25.2-11.3,25.2-25.2S59.9,14.3,46,14.3z M46,63.3
		c-13.1,0-23.8-10.7-23.8-23.8S32.9,15.7,46,15.7s23.8,10.7,23.8,23.8S59.1,63.3,46,63.3z"/>
	<path class="st0" d="M35,32.7c0.8,0,1.5-0.1,2-0.2c0.5-0.1,0.9-0.3,1.2-0.5c0.3-0.2,0.5-0.5,0.6-0.9c0.1-0.4,0.2-0.8,0.2-1.4h2.8
		v17.9h-3V35.1H35V32.7z M44.8,35.7c0-0.8,0.1-1.6,0.4-2.4c0.3-0.8,0.7-1.4,1.3-2c0.5-0.6,1.2-1,2-1.4c0.8-0.3,1.6-0.5,2.6-0.5
		s1.8,0.2,2.6,0.5c0.8,0.3,1.5,0.8,2,1.4c0.6,0.6,1,1.3,1.3,2c0.3,0.8,0.5,1.5,0.5,2.4v6c0,0.9-0.2,1.7-0.5,2.4
		c-0.3,0.8-0.7,1.4-1.3,2c-0.5,0.6-1.2,1-2,1.4C52.8,47.8,52,48,51,48s-1.8-0.2-2.6-0.5c-0.8-0.3-1.4-0.8-2-1.4
		c-0.5-0.6-1-1.2-1.3-2c-0.3-0.8-0.4-1.6-0.4-2.4V35.7z M54.4,35.7c0-0.5-0.1-1-0.3-1.4c-0.2-0.4-0.4-0.8-0.7-1.2
		c-0.3-0.3-0.6-0.6-1.1-0.8c-0.4-0.2-0.9-0.3-1.4-0.3c-0.5,0-1,0.1-1.4,0.3c-0.4,0.2-0.8,0.5-1,0.8c-0.3,0.3-0.5,0.7-0.7,1.2
		c-0.2,0.4-0.2,0.9-0.2,1.4v6c0,0.5,0.1,1,0.2,1.4c0.2,0.4,0.4,0.8,0.7,1.2c0.3,0.3,0.6,0.6,1,0.8c0.4,0.2,0.9,0.3,1.4,0.3
		c0.5,0,1-0.1,1.4-0.3c0.4-0.2,0.8-0.5,1.1-0.8c0.3-0.3,0.5-0.7,0.7-1.2c0.2-0.4,0.3-0.9,0.3-1.4V35.7z"/>
</g>
</svg>
