<?xml version="1.0" encoding="utf-8"?>
<!-- Generator: Adobe Illustrator 24.3.0, SVG Export Plug-In . SVG Version: 6.00 Build 0)  -->
<svg version="1.1" id="Layer_1" xmlns="http://www.w3.org/2000/svg" xmlns:xlink="http://www.w3.org/1999/xlink" x="0px" y="0px"
	 viewBox="0 0 92 95" style="enable-background:new 0 0 92 95;" xml:space="preserve">
<style type="text/css">
	.st0{fill:#818181;}
</style>
<g>
	<path class="st0" d="M46,14.3c-13.9,0-25.2,11.3-25.2,25.2S32.1,64.7,46,64.7s25.2-11.3,25.2-25.2S59.9,14.3,46,14.3z M46,63.3
		c-13.1,0-23.8-10.7-23.8-23.8S32.9,15.7,46,15.7s23.8,10.7,23.8,23.8S59.1,63.3,46,63.3z"/>
</g>
<path class="st0" d="M33.4,47.9c0-1.4,0.1-2.6,0.4-3.6c0.2-1,0.6-1.8,1-2.5s0.9-1.2,1.5-1.7c0.6-0.5,1.2-0.9,1.9-1.4
	c0.4-0.2,0.8-0.5,1.2-0.7c0.4-0.3,0.8-0.5,1.2-0.9c0.3-0.3,0.6-0.7,0.9-1.1c0.2-0.4,0.3-0.9,0.3-1.4c0-0.9-0.2-1.5-0.7-1.9
	c-0.5-0.4-1.1-0.6-1.9-0.6c-0.8,0-1.4,0.2-2,0.7c-0.6,0.5-0.8,1.2-0.8,2.3h-3c0-0.9,0.2-1.7,0.5-2.4c0.3-0.7,0.8-1.3,1.3-1.8
	c0.6-0.5,1.2-0.8,1.9-1.1c0.7-0.3,1.4-0.4,2.2-0.4c0.8,0,1.5,0.1,2.2,0.3c0.7,0.2,1.3,0.6,1.8,1c0.5,0.4,0.9,1,1.2,1.7
	c0.3,0.7,0.4,1.5,0.4,2.3c0,0.8-0.2,1.6-0.6,2.2c-0.4,0.7-0.9,1.2-1.4,1.7c-0.5,0.5-1.1,0.9-1.6,1.2c-0.5,0.3-0.9,0.6-1.2,0.8
	c-0.7,0.5-1.2,0.9-1.6,1.2c-0.4,0.3-0.7,0.7-0.9,1c-0.2,0.3-0.4,0.6-0.5,1c-0.1,0.3-0.1,0.7-0.1,1.1h7.8v2.7H33.4z M46.9,35.8
	c0-0.8,0.1-1.6,0.4-2.4c0.3-0.8,0.7-1.5,1.3-2c0.6-0.6,1.2-1,2-1.4c0.8-0.3,1.6-0.5,2.6-0.5s1.8,0.2,2.6,0.5c0.8,0.3,1.5,0.8,2,1.4
	c0.6,0.6,1,1.3,1.3,2c0.3,0.8,0.5,1.6,0.5,2.4v6c0,0.9-0.2,1.7-0.5,2.4c-0.3,0.8-0.7,1.4-1.3,2c-0.6,0.6-1.2,1-2,1.4
	c-0.8,0.3-1.6,0.5-2.6,0.5s-1.8-0.2-2.6-0.5c-0.8-0.3-1.4-0.8-2-1.4c-0.6-0.6-1-1.3-1.3-2c-0.3-0.8-0.4-1.6-0.4-2.4V35.8z
	 M56.6,35.8c0-0.5-0.1-1-0.3-1.4c-0.2-0.4-0.4-0.8-0.7-1.2c-0.3-0.3-0.7-0.6-1.1-0.8c-0.4-0.2-0.9-0.3-1.4-0.3s-1,0.1-1.4,0.3
	c-0.4,0.2-0.8,0.5-1.1,0.8c-0.3,0.3-0.5,0.7-0.7,1.2c-0.2,0.4-0.2,0.9-0.2,1.4v6c0,0.5,0.1,1,0.2,1.4c0.2,0.4,0.4,0.8,0.7,1.2
	c0.3,0.3,0.6,0.6,1.1,0.8c0.4,0.2,0.9,0.3,1.4,0.3s1-0.1,1.4-0.3c0.4-0.2,0.8-0.5,1.1-0.8c0.3-0.3,0.5-0.7,0.7-1.2
	c0.2-0.4,0.3-0.9,0.3-1.4V35.8z"/>
</svg>
