<?xml version="1.0" encoding="utf-8"?>
<!-- Generator: Adobe Illustrator 24.3.0, SVG Export Plug-In . SVG Version: 6.00 Build 0)  -->
<svg version="1.1" id="Layer_1" xmlns="http://www.w3.org/2000/svg" xmlns:xlink="http://www.w3.org/1999/xlink" x="0px" y="0px"
	 viewBox="0 0 92 95" style="enable-background:new 0 0 92 95;" xml:space="preserve">
<style type="text/css">
	.st0{fill:none;}
	.st1{fill:#818181;}
</style>
<path class="st0" d="M1,32.5h90v23H1V32.5z"/>
<g>
	<path class="st1" d="M46,14.2c-13.9,0-25.2,11.3-25.2,25.2S32.1,64.6,46,64.6s25.2-11.3,25.2-25.2S59.9,14.2,46,14.2z M46,63.2
		c-13.1,0-23.8-10.7-23.8-23.8S32.9,15.6,46,15.6s23.8,10.7,23.8,23.8S59.1,63.2,46,63.2z"/>
	<g>
		<path class="st1" d="M35.3,46.4c-0.8,0-1.5-0.1-2.1-0.4c-0.6-0.3-1.2-0.7-1.6-1.1c-0.4-0.5-0.8-1-1.1-1.6c-0.2-0.6-0.4-1.3-0.4-2
			c0-0.6,0.1-1.1,0.3-1.6c0.2-0.5,0.4-1,0.7-1.4l4.2-6.8h2.8L35,36.1c0.1,0,0.2,0,0.3,0c0.8,0,1.5,0.1,2.1,0.4
			c0.6,0.3,1.2,0.6,1.6,1.1c0.5,0.5,0.8,1,1,1.7c0.3,0.6,0.4,1.3,0.4,2c0,0.7-0.1,1.4-0.4,2c-0.2,0.6-0.6,1.2-1,1.6
			c-0.4,0.5-1,0.9-1.6,1.1C36.8,46.2,36.1,46.4,35.3,46.4z M35.3,44.2c0.4,0,0.8-0.1,1.1-0.2c0.4-0.2,0.6-0.4,0.9-0.7
			c0.2-0.3,0.4-0.6,0.5-0.9c0.1-0.4,0.2-0.7,0.2-1.2c0-0.4-0.1-0.8-0.2-1.1c-0.1-0.4-0.3-0.7-0.5-0.9c-0.2-0.3-0.5-0.5-0.9-0.7
			c-0.3-0.2-0.7-0.3-1.1-0.3c-0.4,0-0.8,0.1-1.1,0.3c-0.3,0.2-0.6,0.4-0.9,0.7c-0.2,0.3-0.4,0.6-0.5,0.9c-0.1,0.4-0.2,0.7-0.2,1.1
			c0,0.4,0.1,0.8,0.2,1.2c0.1,0.3,0.3,0.7,0.5,0.9c0.2,0.3,0.5,0.5,0.9,0.7C34.6,44.1,34.9,44.2,35.3,44.2z M41.3,36.3
			c0-0.7,0.1-1.3,0.4-2c0.3-0.6,0.6-1.2,1-1.7c0.4-0.5,1-0.8,1.6-1.1c0.6-0.3,1.3-0.4,2.1-0.4s1.5,0.1,2.1,0.4
			c0.6,0.3,1.2,0.6,1.6,1.1c0.5,0.5,0.8,1,1,1.7c0.3,0.6,0.4,1.3,0.4,2v4.9c0,0.7-0.1,1.4-0.4,2c-0.2,0.6-0.6,1.2-1,1.6
			c-0.4,0.5-1,0.9-1.6,1.1c-0.6,0.3-1.3,0.4-2.1,0.4s-1.5-0.1-2.1-0.4c-0.6-0.3-1.2-0.7-1.6-1.1c-0.4-0.5-0.8-1-1-1.6
			c-0.2-0.6-0.4-1.3-0.4-2V36.3z M49.2,36.3c0-0.4-0.1-0.8-0.2-1.1c-0.1-0.4-0.3-0.7-0.5-0.9c-0.2-0.3-0.5-0.5-0.9-0.7
			c-0.3-0.2-0.7-0.3-1.1-0.3c-0.4,0-0.8,0.1-1.1,0.3c-0.3,0.2-0.6,0.4-0.9,0.7c-0.2,0.3-0.4,0.6-0.5,0.9c-0.1,0.3-0.2,0.7-0.2,1.1
			v4.9c0,0.4,0.1,0.8,0.2,1.2c0.1,0.3,0.3,0.7,0.5,0.9c0.2,0.3,0.5,0.5,0.9,0.7c0.3,0.2,0.7,0.2,1.1,0.2c0.4,0,0.8-0.1,1.1-0.2
			c0.3-0.2,0.6-0.4,0.9-0.7c0.2-0.3,0.4-0.6,0.5-0.9c0.1-0.4,0.2-0.7,0.2-1.2V36.3z M56.4,44.4v-3.2h-3.1v-2h3.1v-3.2h2.3v3.2h3.1v2
			h-3.1v3.2H56.4z"/>
	</g>
</g>
</svg>
