<?xml version="1.0" encoding="utf-8"?>
<!-- Generator: Adobe Illustrator 24.3.0, SVG Export Plug-In . SVG Version: 6.00 Build 0)  -->
<svg version="1.1" id="Layer_1" xmlns="http://www.w3.org/2000/svg" xmlns:xlink="http://www.w3.org/1999/xlink" x="0px" y="0px"
	 viewBox="0 0 92 95" style="enable-background:new 0 0 92 95;" xml:space="preserve">
<style type="text/css">
	.st0{fill:#818181;}
</style>
<g id="Unsettled">
	<path class="st0" d="M46,23.9c-8.3,0-15,6.7-15,14.9s6.7,15,14.9,15c8.3,0,15-6.7,15-14.9c0,0,0,0,0,0C60.9,30.6,54.2,23.9,46,23.9
		z"/>
	<path class="st0" d="M30.4,54.6h31.3c3.4,0,6.2,2.8,6.2,6.2v6.4c0,3.4-2.8,6.2-6.2,6.2H30.4c-3.4,0-6.2-2.8-6.2-6.2v-6.4
		C24.2,57.4,26.9,54.6,30.4,54.6z"/>
	<path class="st0" d="M26.6,10.2L30,8.1c0.3-0.2,0.6-0.1,0.8,0.2c0,0,0.1,0.1,0.1,0.1l1.3,6.4c0.1,0.3,0.4,0.5,0.7,0.4
		c0,0,0.1,0,0.1-0.1l2.1-1.4c0.3-0.2,0.6-0.1,0.8,0.2c0,0.1,0.1,0.1,0.1,0.2l1.6,9.3c0.1,0.3-0.1,0.6-0.4,0.7
		c-0.3,0.1-0.5-0.1-0.6-0.3l-2.2-4c-0.1-0.2-0.4-0.4-0.7-0.3l-1.3,0.4c-0.3,0.1-0.6,0-0.7-0.3L26.4,11
		C26.2,10.7,26.3,10.4,26.6,10.2z"/>
	<path class="st0" d="M63.7,9.6l3.4,2.4c0.3,0.2,0.3,0.6,0.1,0.8c0,0-0.1,0.1-0.1,0.1l-5.5,3.5c-0.3,0.2-0.3,0.5-0.1,0.8
		c0,0.1,0.1,0.1,0.1,0.1l2,1.5c0.3,0.2,0.3,0.6,0.2,0.8c0,0.1-0.1,0.1-0.2,0.2l-8,4.8c-0.3,0.2-0.6,0.1-0.8-0.2
		c-0.1-0.2-0.1-0.5,0.1-0.7l2.9-3.5c0.2-0.2,0.2-0.5,0-0.7l-0.8-1.1c-0.2-0.2-0.2-0.5,0-0.8c0,0,0,0,0,0l6.1-8
		C63.2,9.5,63.5,9.4,63.7,9.6z"/>
	<path class="st0" d="M45.3,6.5h3.4c0.3,0,0.5,0.2,0.5,0.5c0,0,0,0.1,0,0.1l-1.9,5c-0.1,0.3,0.1,0.5,0.4,0.6c0,0,0.1,0,0.1,0h2.1
		c0.3,0,0.5,0.2,0.5,0.5c0,0.1,0,0.1,0,0.2l-2.9,7.1c-0.1,0.2-0.4,0.3-0.7,0.2c-0.2-0.1-0.3-0.3-0.3-0.4l0.1-3.8
		c0-0.2-0.2-0.5-0.4-0.5l-1.1-0.3c-0.2,0-0.4-0.3-0.4-0.5V6.9C44.7,6.7,45,6.5,45.3,6.5C45.2,6.5,45.2,6.5,45.3,6.5z"/>
</g>
</svg>
