<?xml version="1.0" encoding="utf-8"?>
<!-- Generator: Adobe Illustrator 24.3.0, SVG Export Plug-In . SVG Version: 6.00 Build 0)  -->
<svg version="1.1" id="Layer_1" xmlns="http://www.w3.org/2000/svg" xmlns:xlink="http://www.w3.org/1999/xlink" x="0px" y="0px"
	 viewBox="0 0 92 95" style="enable-background:new 0 0 92 95;" xml:space="preserve">
<style type="text/css">
	.st0{fill:#818181;}
</style>
<g id="Arts_and_crafts">
	<g>
		<path class="st0" d="M80.4,18.5c-1.8-0.8-7.8,10.2-13.4,24.5c-0.8,2.1-1.6,4.2-2.4,6.2c-1.7,4.7-3.3,9.1-4.5,12.9l0,0
			c-0.7,1.6-1.9,1.2-3.2,4.5c-1.5,3.6,0.2,5.6,0.3,10.1c3.1-3.1,5.6-3.2,7.1-6.9c1.3-3.3,0.2-3.8,0.8-5.6l0,0
			c1.7-3.6,3.6-7.8,5.6-12.4c0.8-1.9,1.7-4,2.5-6.1C79,31.5,82.2,19.3,80.4,18.5z M64.4,62.4L62,61.3c1-3.1,2.2-6.4,3.5-10l3.3,1.4
			C67.3,56.2,65.8,59.4,64.4,62.4z"/>
		<path class="st0" d="M42.1,56.2c0.3-0.4,0.5-0.9,0.6-1.3l2.5-12.7L68.9,29c2-0.9,2.9-3.1,2.3-5.1L70,20.1l-4.6,2.5L47,32.8l4-20.6
			l1-5.1h-4c-2.2,0-3.9,1.7-4.1,3.8l-5.2,26.6l-11.3,6.3c-0.4,0.2-0.8,0.6-1.1,0.9c-3.9-3.3-9.8-2.8-13.1,1.2s-2.8,9.8,1.2,13.1
			c3.9,3.3,9.8,2.8,13.1-1.2c1.7-2,2.5-4.7,2.1-7.4c0.5,0,1-0.2,1.4-0.4l6-3.3l-1.3,6.7c-0.1,0.5-0.1,1,0,1.4
			c-5.1,0.9-8.5,5.7-7.6,10.8c0.9,5.1,5.7,8.5,10.8,7.6c5.1-0.9,8.5-5.7,7.6-10.8C45.9,59.9,44.4,57.5,42.1,56.2L42.1,56.2z
			 M23.3,57.1c-2.9,1.6-6.6,0.6-8.3-2.4s-0.6-6.6,2.4-8.3c2.9-1.6,6.6-0.6,8.3,2.4c0,0,0,0,0,0C27.3,51.8,26.2,55.5,23.3,57.1
			L23.3,57.1z M43.2,65.2c-0.6,3.3-3.8,5.4-7.1,4.8c-3.3-0.6-5.4-3.8-4.8-7.1c0.6-3.3,3.8-5.4,7.1-4.8
			C41.6,58.7,43.8,61.9,43.2,65.2C43.2,65.2,43.2,65.2,43.2,65.2L43.2,65.2z"/>
	</g>
</g>
</svg>
