<?xml version="1.0" encoding="utf-8"?>
<!-- Generator: Adobe Illustrator 24.3.0, SVG Export Plug-In . SVG Version: 6.00 Build 0)  -->
<svg version="1.1" id="Layer_1" xmlns="http://www.w3.org/2000/svg" xmlns:xlink="http://www.w3.org/1999/xlink" x="0px" y="0px"
	 viewBox="0 0 92 95" style="enable-background:new 0 0 92 95;" xml:space="preserve">
<style type="text/css">
	.st0{fill:#818181;}
</style>
<g id="Movement">
	<path class="st0" d="M64.3,61.1l-5-14.1c0.5-0.6,0.6-1.4,0.5-2.2l-4-21.7L44.7,5.8c-0.9-1.4-2.7-1.8-4-0.9c-1.4,0.9-1.8,2.7-0.9,4
		l10.4,16.3l2.6,14c-0.2,0-0.5,0.1-0.7,0.2l-20.5,7.1c-0.5,0.2-0.9,0.4-1.3,0.7c-0.6,0-1.2,0.2-1.6,0.6c-1,0.7-1.4,2-1.1,3.2
		c0.2,1.9,0.1,12.2-0.1,21.4c-0.1,1.6,1.2,3,2.8,3c0,0,0,0,0,0l0,0c1.6,0,2.9-1.3,2.9-2.9c0-2.9,0.1-5.5,0.2-7.7l2.1,6
		c0.8,2.2,3.2,3.4,5.5,2.6l20.5-7.2C63.8,65.8,65,63.3,64.3,61.1z"/>
	<path class="st0" d="M41.7,41.5c5.4-1.9,8.2-7.8,6.3-13.2c-1.9-5.4-7.8-8.2-13.2-6.3c-5.4,1.9-8.2,7.8-6.3,13.2c0,0,0,0,0,0
		C30.4,40.6,36.3,43.4,41.7,41.5z"/>
</g>
</svg>
