<?xml version="1.0" encoding="utf-8"?>
<!-- Generator: Adobe Illustrator 24.3.0, SVG Export Plug-In . SVG Version: 6.00 Build 0)  -->
<svg version="1.1" id="Layer_1" xmlns="http://www.w3.org/2000/svg" xmlns:xlink="http://www.w3.org/1999/xlink" x="0px" y="0px"
	 viewBox="0 0 92 95" style="enable-background:new 0 0 92 95;" xml:space="preserve">
<style type="text/css">
	.st0{fill:#818181;}
</style>
<g id="Read_and_Write">
	<path class="st0" d="M73.2,18.9l-5.3-3.3L59,29.8l-6.7-19.5L18.8,22l16.6,47.7L68.8,58l-7.1-20.5L73.2,18.9z M31.4,28.5l16.1-5.8
		c0.4-0.1,0.9,0.2,1,0.6c0.1,0.4-0.1,0.7-0.4,0.9l-16.1,5.6c-0.4,0.1-0.9-0.1-1-0.5C30.9,29,31.1,28.6,31.4,28.5z M32.6,31.6
		l16.1-5.6c0.4-0.1,0.9,0.1,1,0.5c0.1,0.4-0.1,0.9-0.5,1l-16.1,5.6c-0.4,0.1-0.9-0.1-1-0.5C31.9,32.3,32.2,31.8,32.6,31.6z
		 M33.2,35.9c-0.2-0.4,0.1-0.9,0.5-1c0,0,0,0,0,0l9.2-3.2c0.4-0.1,0.9,0.1,1,0.5c0.1,0.4-0.1,0.9-0.5,1l0,0l-9.2,3.2
		C33.8,36.6,33.4,36.4,33.2,35.9C33.2,36,33.2,36,33.2,35.9L33.2,35.9z M46.8,56.1l-0.7,0.5l0.1-0.8l0.5-3.5l2.9,1.8L46.8,56.1z
		 M47.2,51.1l21.1-34l3.4,2.1l-21.1,34L47.2,51.1z"/>
</g>
</svg>
