<svg enable-background="new 0 0 92 95" viewBox="0 0 92 95" xmlns="http://www.w3.org/2000/svg"><g fill="#818181"><path d="m46.3 55.2v.7c0 2 1.6 3.6 3.7 3.6h28c2 0 3.6-1.6 3.6-3.6v-.7z"/><path d="m56.9 54.2h14.1c1.5 0 2.8-1.4 2.8-3l.3-3c.4.2.9.3 1.4.3 2.3 0 4.2-1.9 4.2-4.2s-1.9-4.2-4.2-4.2c-.2 0-.4 0-.6.1v-.2c0-.1 0-.1 0-.2h-21.8v.2l1.1 11.2c0 1.7 1.2 3 2.7 3zm17.7-12.5c.2-.1.5-.1.8-.1 1.5 0 2.7 1.2 2.7 2.7s-1.2 2.7-2.7 2.7c-.5 0-.9-.1-1.3-.3z"/><path d="m61.9 37.3c-.1.4.1.8.5.9h.2c.3 0 .6-.2.7-.5.5-1.8.1-2.9-2-5.7-1.9-2.5.1-6.7.1-6.8.2-.4 0-.8-.4-.9-.4-.2-.8 0-.9.3-.1.2-2.3 5.1.1 8.2 2 2.9 2 3.5 1.7 4.5z"/><path d="m66.2 36.5c-.1.4.1.8.5.9h.2c.3 0 .6-.2.7-.5.2-.9 0-1.4-.9-2.6-.5-.6-.1-1.8.1-2.1.2-.4 0-.8-.4-.9-.4-.2-.8 0-.9.4-.1.2-1 2.2.1 3.6.7.8.6.9.6 1.2z"/><path d="m10.4 50.4c0 2 1.6 3.6 3.6 3.6h28c2 0 3.7-1.6 3.7-3.6v-.7h-35.3z"/><path d="m16.6 42.9c.5 0 1-.1 1.4-.3l.3 3c0 1.7 1.2 3 2.8 3h14.1c1.5 0 2.8-1.4 2.8-3l1.1-11.2c0-.1 0-.1 0-.2h-21.9v.2.2c-.2 0-.4-.1-.6-.1-2.3 0-4.2 1.9-4.2 4.2s1.9 4.2 4.2 4.2zm0-6.9c.3 0 .5 0 .8.1l.5 5c-.4.2-.8.3-1.3.3-1.5 0-2.7-1.2-2.7-2.7s1.2-2.7 2.7-2.7z"/><path d="m25.3 32.6c-.1.4.1.8.5.9h.2c.3 0 .6-.2.7-.5.5-1.8.1-2.9-2-5.7-1.9-2.5.1-6.7.1-6.8.2-.4 0-.8-.3-.9-.4-.2-.8 0-.9.4-.1.2-2.3 5.1.1 8.2 2 2.7 1.9 3.3 1.6 4.4z"/><path d="m29.6 31.7c-.1.4.1.8.5.9h.2c.3 0 .6-.2.7-.5.2-.9 0-1.4-.9-2.6-.5-.6-.1-1.8.1-2.1.2-.4 0-.8-.4-.9-.4-.2-.8 0-.9.4-.1.1-.9 2.1.1 3.5.7.9.7 1.1.6 1.3z"/></g></svg>