<?xml version="1.0" encoding="utf-8"?>
<!-- Generator: Adobe Illustrator 24.3.0, SVG Export Plug-In . SVG Version: 6.00 Build 0)  -->
<svg version="1.1" id="Layer_1" xmlns="http://www.w3.org/2000/svg" xmlns:xlink="http://www.w3.org/1999/xlink" x="0px" y="0px"
	 viewBox="0 0 92 95" style="enable-background:new 0 0 92 95;" xml:space="preserve">
<style type="text/css">
	.st0{fill:#818181;}
</style>
<g id="Daily_Tasks">
	<path class="st0" d="M78.5,8.3c-0.2-0.4-0.6-0.5-0.9-0.4c0,0,0,0,0,0c-3.1,1.4-6.3,2.6-9.6,3.6V9.9h-2.2v2.2
		c-4.4,1.2-8.9,2-13.4,2.3v-2.7h-2.2v2.9c-1.4,0.1-2.8,0.1-4.2,0.1c-6.1,0-12.3-0.7-18.2-2.2V9.9h-2.2v2.1c-3.8-1-7.4-2.4-11-4
		c-0.4-0.2-0.8,0-0.9,0.3c0,0,0,0,0,0c-0.2,0.4,0,0.8,0.3,1c0,0,0,0,0,0c3.8,1.7,7.6,3.1,11.6,4.2v2.6l-2.3-0.2
		c0.9,2.4,1.2,4.9,1.1,7.5c-0.2,4.1-1.8,8-4.5,11.1L18,64.9L54.1,67l1.8-30.4c-2.3-3.4-3.5-7.4-3.2-11.5c0.1-2.5,0.8-5,1.9-7.3
		l-2.3-0.1v-1.8c4.5-0.4,9-1.1,13.4-2.3v1.9c-0.3,0.8-5.3,12.6-6.2,13.9c-1.1,2-0.9,4.4,0.5,6.3c1.8,1.7,1.8,1.7,4.3,4.4
		c2.5,2.6,3.7,4,5.9,4.7c2.2,0.7,6.8-2.2,3.5-5.8c-3.3-3.5-5.1-5.3-4.6-7c1.7-4.2,3.6-8.3,5.8-12.2l-6.8-3.2V13
		c3.5-1,6.9-2.3,10.2-3.8C78.5,9,78.6,8.6,78.5,8.3z M47.8,17.5c-2.2,4.8-7.9,6.9-12.7,4.7c-2.4-1.1-4.3-3.2-5.1-5.8l-2.3-0.1V14
		c6,1.4,12.2,2.2,18.3,2.2c1.4,0,2.8,0,4.2-0.1v1.5L47.8,17.5z"/>
</g>
</svg>
