<?xml version="1.0" encoding="utf-8"?>
<!-- Generator: Adobe Illustrator 24.3.0, SVG Export Plug-In . SVG Version: 6.00 Build 0)  -->
<svg version="1.1" id="Layer_1" xmlns="http://www.w3.org/2000/svg" xmlns:xlink="http://www.w3.org/1999/xlink" x="0px" y="0px"
	 viewBox="0 0 92 95" style="enable-background:new 0 0 92 95;" xml:space="preserve">
<style type="text/css">
	.st0{fill:#818181;}
</style>
<g id="Discussion">
	<path class="st0" d="M69.1,34.9V14.4c-0.1-3.6-3-6.4-6.6-6.3h-38C21,8,18,10.9,17.9,14.4v20.5c0.1,3.6,3,6.4,6.6,6.3c0,0,0,0,0,0
		h0.9v6.9c0,0.8,0.5,1.6,1.3,1.9c0.8,0.3,1.7,0.2,2.4-0.4l9.6-8.5h23.8C66.1,41.3,69,38.5,69.1,34.9C69.1,34.9,69.1,34.9,69.1,34.9z
		"/>
	<path class="st0" d="M70.3,45.5H48.3c-2.1,0-3.7,1.6-3.8,3.7V61c0.1,2,1.8,3.7,3.8,3.7h13.8l5.5,5c0.2,0.2,0.5,0.3,0.9,0.3
		c0.2,0,0.3,0,0.5,0c0.4-0.2,0.7-0.6,0.7-1.1v-4.2h0.5c2.1,0,3.7-1.6,3.8-3.7V49.2C74,47.2,72.3,45.5,70.3,45.5z"/>
</g>
</svg>
