<?xml version="1.0" encoding="utf-8"?>
<!-- Generator: Adobe Illustrator 24.3.0, SVG Export Plug-In . SVG Version: 6.00 Build 0)  -->
<svg version="1.1" id="Layer_1" xmlns="http://www.w3.org/2000/svg" xmlns:xlink="http://www.w3.org/1999/xlink" x="0px" y="0px"
	 viewBox="0 0 92 95" style="enable-background:new 0 0 92 95;" xml:space="preserve">
<style type="text/css">
	.st0{fill:#818181;}
</style>
<g id="Event">
	<path class="st0" d="M25.4,37.5l9.7-15.6h1.3L47.8,37l7.3-17.6h-0.2l1.1-0.3l13.4,12.7l4.3-18.4l4-1.6l-0.5-1.3
		c-0.2,0-19.7,7.9-31.8,9.4c-13.4,1.7-32.9-1-33.1-1l-0.2,1.4c0,0,1.7,0.2,4.3,0.5L25.4,37.5z"/>
	<path class="st0" d="M79.7,55.7v-1.3c-0.2,0-21.2,0.2-33.1-2.7c-13-3.2-30.3-12.8-30.6-12.9L15.4,40c0,0,1.5,0.8,3.8,2l2.3,18.8
		l14.9-11.1l1.1,0.4l5.3,18.2l13.1-13.7h-0.2l1.1,0.1l8,16.7l10.7-15.7H79.7L79.7,55.7z"/>
</g>
</svg>
