<?xml version="1.0" encoding="utf-8"?>
<!-- Generator: Adobe Illustrator 24.3.0, SVG Export Plug-In . SVG Version: 6.00 Build 0)  -->
<svg version="1.1" id="Layer_1" xmlns="http://www.w3.org/2000/svg" xmlns:xlink="http://www.w3.org/1999/xlink" x="0px" y="0px"
	 viewBox="0 0 70 70" style="enable-background:new 0 0 70 70;" xml:space="preserve">
<style type="text/css">
	.st0{fill:#818181;}
</style>
<path class="st0" d="M34.8,47.6c7.1,0,12.8-5.1,12.8-11.7c0-4.9-2.6-8.1-8-9.9c3.6-1.3,6.1-3.9,6.1-7.3c0-4.4-3.7-7.3-10-7.3
	c-6.5,0-11.4,3.2-12.1,8c-0.2,1.3,1.1,1.7,1.7,0.7c1.8-2.7,4-4,6.6-4c3.4,0,5.2,1.9,5.2,5.1c0,2.7-1.8,5-5.6,6
	c-1.3,0.3-1.3,2.1,0,2.3c4.9,0.6,7.5,3.4,7.5,6.9c0,4-2.7,6.6-7.7,6.6c-3.6,0-5.6-1.5-7.3-4.1c-0.7-1.1-2.1-0.3-1.8,0.9
	C23.9,44.7,28.3,47.6,34.8,47.6z"/>
</svg>
