<?xml version="1.0" encoding="utf-8"?>
<!-- Generator: Adobe Illustrator 24.3.0, SVG Export Plug-In . SVG Version: 6.00 Build 0)  -->
<svg version="1.1" id="Layer_1" xmlns="http://www.w3.org/2000/svg" xmlns:xlink="http://www.w3.org/1999/xlink" x="0px" y="0px"
	 viewBox="0 0 92 95" style="enable-background:new 0 0 92 95;" xml:space="preserve">
<style type="text/css">
	.st0{fill:#818181;}
</style>
<g id="food">
	<path class="st0" d="M78.9,66.8L36.3,44.4c0.6-4.4-2.8-9.7-8.6-12.8c-6.8-3.6-14.4-2.7-16.9,2c-2.5,4.7,1,11.5,7.9,15.1
		c5.8,3.1,12.1,2.9,15.3-0.1L76.7,71c1.1,0.6,2.4,0.2,3-0.9c0,0,0,0,0,0l0.1-0.2C80.4,68.8,80,67.4,78.9,66.8z"/>
	<path class="st0" d="M81.3,62.1L58.1,40.8c-0.3-0.3-0.7-0.5-1.2-0.6l0,0c-0.1-0.1-10.7-13.1-14.6-19.2c-1.9-3-8.7-12.6-13.7-12.4
		c-1.7,0-3.7,2.1-4.7,3.2l-0.4,0.4l-0.4,0.5c-1,1.1-2.8,3.3-2.8,5c0.2,4.9,10.4,10.9,13.4,12.6c6.3,3.5,20.1,12.9,20.2,13l0,0
		c0.1,0.4,0.3,0.8,0.7,1.1l23.2,21.3c0.9,0.8,2.3,0.8,3.2-0.1l0.2-0.3C82.2,64.4,82.2,63,81.3,62.1z M24,13.3c1.2,1,2.7,2.7,7.1,6.5
		s13.4,12.1,19.2,17.3c-4.1-2.9-11.1-7.6-14.2-9.2c-5.9-3.2-12.3-8.4-12.5-12.1C23.5,14.9,23.7,14.1,24,13.3z M24.9,12.5
		c0.6-0.3,1.2-0.5,1.9-0.5c3.8-0.2,9.4,5.8,13.1,11.4c0.9,1.4,9.1,11.3,10.6,13.2c-4-3.9-14.9-14.1-19.9-18.5
		C28.6,16.3,26.7,14.5,24.9,12.5z M54.3,42.4c-2.9-2-14.2-9.6-19.7-12.5c-6.2-3.4-13.2-8.9-13.4-12.5c0-0.6,1.1-1.9,1.6-2.8
		c0,0.3,0,0.7,0,1c0.2,4.1,6.6,9.4,12.9,12.7c6.6,4,13,8.4,19.2,13.1L54.3,42.4z M55.2,40.7c-5.1-5.7-10-11.6-14.5-17.7
		C36.7,16.9,31,11,26.8,11.1c-0.3,0-0.7,0.1-1,0.1c0.8-0.7,1.7-1.2,2.7-1.6c3.6-0.2,9.6,6.6,13.4,12.5c3.5,5.3,11.7,15.3,14,18.1
		L55.2,40.7z"/>
</g>
</svg>
