<?xml version="1.0" encoding="utf-8"?>
<!-- Generator: Adobe Illustrator 24.3.0, SVG Export Plug-In . SVG Version: 6.00 Build 0)  -->
<svg version="1.1" id="Layer_1" xmlns="http://www.w3.org/2000/svg" xmlns:xlink="http://www.w3.org/1999/xlink" x="0px" y="0px"
	 viewBox="0 0 92 95" style="enable-background:new 0 0 92 95;" xml:space="preserve">
<style type="text/css">
	.st0{fill:#818181;}
</style>
<g id="Games">
	<path class="st0" d="M83.8,47.7L70.9,20.2c-0.5-1-1.7-1.5-2.8-1l-21.3,10l0.9-4.5c0.2-1.1-0.5-2.2-1.6-2.4l-29.8-6
		c-1.1-0.2-2.2,0.5-2.4,1.6c0,0,0,0,0,0l-6,29.8c-0.2,1.1,0.5,2.2,1.6,2.4c0,0,0.1,0,0.1,0l29.8,6c1.1,0.2,2.2-0.5,2.4-1.6
		c0,0,0,0,0,0l2.2-10.7l8.7,18.5c0.5,1,1.7,1.5,2.8,1l27.4-12.9C83.8,49.9,84.3,48.7,83.8,47.7z M23.6,41.7c-0.4,1.8-2.2,3-4,2.6
		c-1.8-0.4-3-2.2-2.6-4c0.4-1.8,2.2-3,4-2.6c0,0,0,0,0.1,0C22.8,38.1,24,39.8,23.6,41.7z M26.1,29.1c-0.4,1.8-2.1,3-4,2.6
		c-1.8-0.4-3-2.1-2.6-4c0.4-1.8,2.1-3,4-2.6c0,0,0,0,0,0C25.3,25.5,26.5,27.3,26.1,29.1z M36.1,44.2c-0.4,1.8-2.1,3-4,2.7
		c-1.8-0.4-3-2.1-2.7-4c0.4-1.8,2.1-3,4-2.7c0,0,0,0,0,0C35.3,40.6,36.5,42.3,36.1,44.2C36.1,44.2,36.1,44.2,36.1,44.2z M38.7,31.6
		c-0.4,1.8-2.1,3-4,2.7c-1.8-0.4-3-2.1-2.7-4c0.4-1.8,2.1-3,4-2.7c0,0,0,0,0,0C37.8,28,39,29.8,38.7,31.6
		C38.7,31.6,38.7,31.6,38.7,31.6z M61.1,53.6c-0.6,1.7-2.6,2.6-4.3,2c-1.7-0.6-2.6-2.6-2-4.3c0.6-1.7,2.6-2.6,4.3-2
		C60.8,49.9,61.7,51.8,61.1,53.6C61.1,53.6,61.1,53.6,61.1,53.6z M65,42.7c-0.6,1.8-2.6,2.7-4.3,2c-1.8-0.6-2.7-2.6-2-4.3
		c0.6-1.8,2.6-2.7,4.3-2c0,0,0,0,0,0C64.8,39,65.7,40.9,65,42.7C65,42.7,65,42.7,65,42.7z M69,31.7c-0.6,1.8-2.6,2.7-4.3,2
		c-1.8-0.6-2.7-2.6-2-4.3c0.6-1.8,2.6-2.7,4.3-2c0,0,0,0,0,0C68.7,28.1,69.6,30,69,31.7L69,31.7z"/>
</g>
</svg>
