<svg enable-background="new 0 0 92 95" viewBox="0 0 92 95" xmlns="http://www.w3.org/2000/svg"><g fill="#818181"><path d="m37.3 48.4h-21.5c-2.2 0-3.9 1.8-3.9 3.9v4.4c0 2.2 1.8 3.9 3.9 3.9h21.5c2.2 0 3.9-1.8 3.9-3.9v-4.4c0-2.1-1.7-3.9-3.9-3.9z"/><path d="m63.9 47h3.2c4.8-.8 8.3-4.9 8.3-9.8 0-5.5-4.5-9.9-9.9-9.9-2.7 0-5.2 1-7 2.9-1.9 1.9-2.9 4.4-2.9 7-.1 4.9 3.4 9 8.3 9.8z"/><path d="m80.1 52.3c0-2.2-1.8-3.9-3.9-3.9h-21.5c-2.2 0-3.9 1.8-3.9 3.9v4.4c0 2.2 1.8 3.9 3.9 3.9v.4-.4h21.5c1 0 2-.4 2.8-1.2.7-.7 1.1-1.7 1.1-2.8z"/><path d="m25 47h3.1c4.8-.8 8.4-4.9 8.4-9.8 0-5.5-4.5-9.9-9.9-9.9-5.5 0-9.9 4.5-9.9 9.9-.1 4.9 3.4 9 8.3 9.8z"/><path d="m54.7 47h5c-2.9-1.7-4.9-4.6-5.5-7.9h-16.5c-.6 3.3-2.6 6.2-5.5 7.9h5c2.6 0 4.8 1.9 5.3 4.4h6.9c.5-2.5 2.7-4.4 5.3-4.4z"/><path d="m44.5 37.7h3.1c4.9-.8 8.4-4.9 8.4-9.8 0-5.5-4.5-9.9-9.9-9.9-5.5 0-9.9 4.5-9.9 9.9-.1 4.9 3.5 9 8.3 9.8z"/></g></svg>