<?xml version="1.0" encoding="utf-8"?>
<!-- Generator: Adobe Illustrator 24.3.0, SVG Export Plug-In . SVG Version: 6.00 Build 0)  -->
<svg version="1.1" id="Layer_1" xmlns="http://www.w3.org/2000/svg" xmlns:xlink="http://www.w3.org/1999/xlink" x="0px" y="0px"
	 viewBox="0 0 92 95" style="enable-background:new 0 0 92 95;" xml:space="preserve">
<style type="text/css">
	.st0{fill:#818181;}
</style>
<g id="In_the_garden">
	<path class="st0" d="M67.6,35.5H49.5v-7.8c1.3,1,4,2.7,5.8,1.9c2.5-1.1,10.6-10.2,10.6-10.2s-12.2,0-14.7,1.1
		c-0.8,0.5-1.4,1.2-1.7,2.1v-6.8c0.7,0.2,1.4,0,1.9-0.5c1.2-1.3,2.7-9.1,2.7-9.1s-7.7,2.4-8.8,3.7s0.7,4.5,0.9,5v6
		c-0.2-0.2-0.4-0.5-0.6-0.7c-3.5-3.1-23-9.2-23-9.2S31,29.7,34.5,32.8c3.5,3.1,11-0.3,11.8-0.7v3.3H28.1c-1,0-1.7,0.8-1.7,1.7v4.9
		c0,1,0.8,1.7,1.7,1.7h1.2l3.6,28.4c0,0.8,0.7,1.5,1.5,1.5c0,0,0,0,0,0h26.9c0.8,0,1.5-0.7,1.5-1.5c0,0,0,0,0,0l3.5-28.5h1.2
		c1,0,1.7-0.8,1.7-1.7v-4.9C69.4,36.2,68.6,35.5,67.6,35.5L67.6,35.5z"/>
</g>
</svg>
