<?xml version="1.0" encoding="utf-8"?>
<!-- Generator: Adobe Illustrator 24.3.0, SVG Export Plug-In . SVG Version: 6.00 Build 0)  -->
<svg version="1.1" id="Layer_1" xmlns="http://www.w3.org/2000/svg" xmlns:xlink="http://www.w3.org/1999/xlink" x="0px" y="0px"
	 viewBox="0 0 92 95" style="enable-background:new 0 0 92 95;" xml:space="preserve">
<style type="text/css">
	.st0{fill:#818181;}
</style>
<g id="Media">
	<path class="st0" d="M71.5,23.6H49.8l0,0c0-1-0.4-1.9-1-2.6l8.1-8.2c0.3-0.3,0.4-0.8,0.1-1.1c-0.3-0.3-0.8-0.4-1.1-0.1
		c-0.1,0-0.1,0.1-0.1,0.1L47.5,20c-0.5-0.2-1.1-0.4-1.6-0.4c-0.5,0-1,0.1-1.4,0.3l-7-8.3c-0.3-0.3-0.8-0.4-1.1-0.1
		c-0.3,0.3-0.3,0.8,0,1.1c0,0,0,0,0,0l6.9,8.1c-0.8,0.7-1.2,1.7-1.2,2.8l0,0H20.5c-2.5,0-4.5,2-4.5,4.4c0,0,0,0,0,0.1v30
		c0,2.5,2,4.4,4.4,4.4c0,0,0,0,0,0h3.2v2.2h5v-2.2h34.7v2.2h5v-2.2h3.2c2.5,0,4.5-2,4.5-4.4c0,0,0,0,0,0V28
		C76,25.6,74,23.6,71.5,23.6C71.5,23.6,71.5,23.6,71.5,23.6z M61.2,56.1c0,1.2-1,2.2-2.2,2.2H22c-1.2,0-2.2-1-2.2-2.2V29.9
		c0-1.2,1-2.2,2.2-2.2h36.9c1.2,0,2.2,1,2.2,2.2L61.2,56.1z M68.2,47c-2.2,0-3.9-1.8-3.9-3.9c0-2.2,1.8-3.9,3.9-3.9
		c2.2,0,3.9,1.8,3.9,3.9C72.1,45.2,70.4,46.9,68.2,47L68.2,47z M68.2,37c-2.2,0-3.9-1.8-3.9-3.9c0-2.2,1.8-3.9,3.9-3.9
		s3.9,1.8,3.9,3.9c0,0,0,0.1,0,0.1C72.1,35.3,70.3,37,68.2,37L68.2,37z"/>
</g>
</svg>
