<svg xmlns="http://www.w3.org/2000/svg" viewBox="0 0 48 48"><g id="Movement"><path d="M48,45.92A2.14,2.14,0,0,1,45.81,48H2.19A2.14,2.14,0,0,1,0,45.92V2.08A2.14,2.14,0,0,1,2.19,0H45.81A2.14,2.14,0,0,1,48,2.08Z" style="fill:#fff"/><path d="M21.75,25.3A5.41,5.41,0,1,0,14.85,22,5.41,5.41,0,0,0,21.75,25.3Z" style="fill:#818181"/><path d="M33.52,35l-2.59-7.35a1.52,1.52,0,0,0,.26-1.16L29.08,15.18l-5.77-9a1.52,1.52,0,1,0-2.57,1.64l5.45,8.52,1.37,7.29a1.56,1.56,0,0,0-.37.1L16.52,27.46a2.25,2.25,0,0,0-.68.38,1.54,1.54,0,0,0-.86.3,1.51,1.51,0,0,0-.55,1.68c.11,1,.05,6.36-.07,11.15a1.52,1.52,0,0,0,1.48,1.57h0a1.53,1.53,0,0,0,1.53-1.49c0-1.52.07-2.85.09-4l1.11,3.15a2.25,2.25,0,0,0,2.86,1.38l10.67-3.74A2.26,2.26,0,0,0,33.52,35Z" style="fill:#818181"/></g></svg>