<?xml version="1.0" encoding="utf-8"?>
<!-- Generator: Adobe Illustrator 24.3.0, SVG Export Plug-In . SVG Version: 6.00 Build 0)  -->
<svg version="1.1" id="Layer_1" xmlns="http://www.w3.org/2000/svg" xmlns:xlink="http://www.w3.org/1999/xlink" x="0px" y="0px"
	 viewBox="0 0 92 95" style="enable-background:new 0 0 92 95;" xml:space="preserve">
<style type="text/css">
	.st0{fill:#818181;}
</style>
<g>
	<g>
		<path class="st0" d="M46.1,35c-2.2,0-4,1.8-4,4s1.8,4,4,4c2.2,0,4-1.8,4-4C50.1,36.8,48.3,35,46.1,35z"/>
		<path class="st0" d="M74.4,26L71,43.8l-7.9,10.4l1.1,0.8l-6.5,8.9l-5.5-4l6.5-8.9l1.2,0.9l7.4-9.6l4.1-21.4
			C61.3,6.7,41.7,3.5,27.6,13.6s-17.3,29.7-7.1,43.8s29.7,17.3,43.8,7.1C76.5,55.8,80.7,39.6,74.4,26z M23.4,24.4
			c-0.1,0-0.3,0-0.4-0.1c-0.3-0.2-0.4-0.6-0.2-0.9c0,0,0,0,0,0c2.5-3.7,5.8-6.7,9.7-8.9c0.3-0.2,0.7,0,0.9,0.3
			c0.2,0.3,0.1,0.7-0.3,0.9c-3.7,2-6.9,4.9-9.3,8.5C23.8,24.3,23.6,24.4,23.4,24.4z M28.1,26.1c-0.1,0.2-0.3,0.3-0.5,0.3
			c-0.1,0-0.3,0-0.4-0.1c-0.3-0.2-0.4-0.6-0.2-0.9c1.8-2.7,4.3-5,7.2-6.5c0.3-0.2,0.7,0,0.9,0.3c0.2,0.3,0.1,0.7-0.2,0.9
			c0,0,0,0,0,0C32.2,21.5,29.8,23.6,28.1,26.1z M46.1,50.6c-6.4,0-11.5-5.2-11.5-11.5s5.2-11.5,11.5-11.5s11.5,5.2,11.5,11.5
			S52.4,50.6,46.1,50.6z"/>
	</g>
</g>
</svg>
