<svg enable-background="new 0 0 70 70" height="70" viewBox="0 0 70 70" width="70" xmlns="http://www.w3.org/2000/svg"><path d="m45.248 11.527-1.918 4.423h-11.524l-2.261 5.136c2.556.344 4.849.946 6.88 1.806s3.678 1.938 4.939 3.231c1.131 1.13 1.998 2.42 2.605 3.871.605 1.45.908 2.928.908 4.435 0 1.605-.322 3.17-.971 4.693-.646 1.523-1.543 2.859-2.689 4.006-1.246 1.245-2.65 2.18-4.215 2.801-1.565.623-3.501.934-5.812.934-2.015 0-3.592-.205-4.73-.613-1.139-.409-1.708-.935-1.708-1.573 0-.344.283-.855.848-1.535s1.086-1.021 1.561-1.021c.295 0 .983.222 2.064.664 1.081.443 1.994.779 2.739 1.008.746.229 1.594.344 2.544.344 1.409 0 2.678-.375 3.809-1.13 1.131-.753 2.002-1.74 2.617-2.96s.922-2.496.922-3.822c0-2.081-.869-3.988-2.605-5.726-1-.999-2.248-1.838-3.748-2.518-1.499-.68-3.039-1.22-4.62-1.622-1.581-.401-3.337-.766-5.271-1.094l5.996-13.491h11.82l.443-.909z" fill="#818181"/></svg>