<svg enable-background="new 0 0 92 95" viewBox="0 0 92 95" xmlns="http://www.w3.org/2000/svg"><g fill="#818181"><path d="m33 66.8v-20.2l.2-.4c2.9-.3 5.5-1.7 7.7-3.8 1.5.6 3.1.9 4.9.9 6.4 0 11.5-4.3 11.5-9.5 0-3.5-2.3-6.6-5.7-8.2.3-.6.4-1.3.4-2 0-2.9-2.3-5.2-5.2-5.2-.6 0-1.1.1-1.6.3-2.5-6.2-7.5-10.5-13.3-10.5-8.2 0-14.9 8.6-14.9 19.1v.5c-3.4 1.5-5.8 4.8-5.8 8.8 0 5.3 4.3 9.5 9.5 9.5 1.8 0 3.5-.5 4.9-1.4 1 .6 2.1 1.1 3.2 1.4v20.8h-13.4v4.1h65.5v-4.1h-47.9z"/><path d="m69.6 27.7c2.7 0 4.8-2.2 4.8-4.8s-2.1-4.8-4.8-4.8-4.8 2.2-4.8 4.8 2.2 4.8 4.8 4.8z"/><path d="m69.6 17c.3 0 .5-.2.5-.5v-3.3c0-.3-.2-.5-.5-.5s-.5.2-.5.5v3.3c.1.3.3.5.5.5z"/><path d="m69.2 29.1v3.3c0 .3.2.5.5.5s.5-.2.5-.5v-3.3c0-.3-.2-.5-.5-.5-.3.1-.5.3-.5.5z"/><path d="m60 23.3h3.3c.3 0 .5-.2.5-.5s-.2-.5-.5-.5h-3.3c-.3 0-.5.2-.5.5s.3.5.5.5z"/><path d="m75.5 22.9c0 .3.2.5.5.5h3.3c.3 0 .5-.2.5-.5s-.2-.5-.5-.5h-3.3c-.3 0-.5.2-.5.5z"/><path d="m64.8 18.3c.2.2.5.2.6 0 .2-.2.2-.5 0-.6l-2.4-2.4c-.2-.2-.5-.2-.6 0-.2.2-.2.5 0 .6z"/><path d="m73.8 26.5c-.2.2-.2.5 0 .6l2.4 2.4c.2.2.5.2.6 0 .2-.2.2-.5 0-.6l-2.4-2.4c-.2-.1-.5-.1-.6 0z"/><path d="m64.9 26.6-2.4 2.4c-.2.2-.2.5 0 .6.2.2.5.2.6 0l2.4-2.4c.2-.2.2-.5 0-.6-.2-.2-.4-.2-.6 0z"/><path d="m74.4 18.3 2.4-2.4c.2-.2.2-.5 0-.6-.2-.2-.5-.2-.6 0l-2.4 2.4c-.2.2-.2.5 0 .6.2.2.5.2.6 0z"/></g></svg>