<?xml version="1.0" encoding="utf-8"?>
<!-- Generator: Adobe Illustrator 24.3.0, SVG Export Plug-In . SVG Version: 6.00 Build 0)  -->
<svg version="1.1" id="Layer_1" xmlns="http://www.w3.org/2000/svg" xmlns:xlink="http://www.w3.org/1999/xlink" x="0px" y="0px"
	 viewBox="0 0 70 70" style="enable-background:new 0 0 70 70;" xml:space="preserve">
<style type="text/css">
	.st0{fill:#818181;}
</style>
<path class="st0" d="M47.4,29.7c-0.8,1.1-1.6,1.7-2.9,2V12.3c0-2.1-2.7-2.3-4.2-0.6L21,35c-0.8,1-0.4,2.1,0.9,2.1h14.1v4.3
	c0,3.1-3.3,2.6-3.3,4.1c0,0.6,0.4,1,1.7,1h10.8c1.2,0,1.7-0.4,1.7-1c0-1.5-2.4-1-2.4-4.1v-4.3h0.7c1.4,0,2.1-0.4,2.6-1.8l1.5-4.7
	C49.8,29.1,48.2,28.7,47.4,29.7z M27.5,32l8.6-10.2V32H27.5z"/>
</svg>
