<?xml version="1.0" encoding="utf-8"?>
<!-- Generator: Adobe Illustrator 24.3.0, SVG Export Plug-In . SVG Version: 6.00 Build 0)  -->
<svg version="1.1" id="Layer_1" xmlns="http://www.w3.org/2000/svg" xmlns:xlink="http://www.w3.org/1999/xlink" x="0px" y="0px"
	 viewBox="0 0 92 95" style="enable-background:new 0 0 92 95;" xml:space="preserve">
<style type="text/css">
	.st0{fill:#818181;}
</style>
<g id="Puzzles_and_Quizzes">
	<path class="st0" d="M60.2,11.2H18.3v55.4h55.4V11.2H60.2z M58.7,38.2h-12v-12h12V38.2z M58.7,51.6h-12V39.7h12V51.6z M33.3,51.6
		V39.7h12v12L33.3,51.6z M45.3,38.2h-12v-12h12V38.2z M46.7,12.7h12v12h-12L46.7,12.7z M33.3,12.7h12v12H33.3L33.3,12.7z M19.9,12.7
		h12v12H19.8L19.9,12.7z M19.9,39.7h12v12H19.8L19.9,39.7z M32,65.2H19.8v-12h12L32,65.2z M58.9,65.2H46.7v-12h12L58.9,65.2z
		 M72.3,65.2H60.2v-12h12L72.3,65.2z M72.3,51.8H60.2V39.7h12L72.3,51.8z M72.3,38.4H60.2V26.2h12L72.3,38.4z"/>
</g>
</svg>
