<svg xmlns="http://www.w3.org/2000/svg" viewBox="0 0 48 48"><g id="Read_and_Write"><path d="M48,45.92A2.14,2.14,0,0,1,45.81,48H2.19A2.14,2.14,0,0,1,0,45.92V2.08A2.14,2.14,0,0,1,2.19,0H45.81A2.14,2.14,0,0,1,48,2.08Z" style="fill:#fff"/><path d="M38.2,13l-2.78-1.72-4.64,7.41L27.27,8.52,9.8,14.59l8.64,24.89,17.47-6.07L32.18,22.7ZM16.39,18,24.78,15a.42.42,0,0,1,.27.79l-8.38,2.92a.43.43,0,0,1-.54-.27A.41.41,0,0,1,16.39,18ZM17,19.64l8.39-2.91a.42.42,0,0,1,.27.8l-8.38,2.91a.42.42,0,0,1-.28-.8Zm.33,2.24a.42.42,0,0,1,.26-.54l4.79-1.66a.42.42,0,0,1,.28.8l-4.79,1.66A.42.42,0,0,1,17.31,21.88ZM24.43,32.4l-.34.27.07-.43.28-1.84,1.51.93Zm.19-2.59,11-17.75,1.77,1.1-11,17.75Z" style="fill:#818181"/></g></svg>