<?xml version="1.0" encoding="utf-8"?>
<!-- Generator: Adobe Illustrator 24.3.0, SVG Export Plug-In . SVG Version: 6.00 Build 0)  -->
<svg version="1.1" id="Layer_1" xmlns="http://www.w3.org/2000/svg" xmlns:xlink="http://www.w3.org/1999/xlink" x="0px" y="0px"
	 viewBox="0 0 92 95" style="enable-background:new 0 0 92 95;" xml:space="preserve">
<style type="text/css">
	.st0{fill:#818181;}
</style>
<g id="Reminiscence">
	<path class="st0" d="M50.8,9.9l-3.5,5.2L46,11.2L8.4,23.5L22.5,67l20.9-6.8L57.8,70l25.7-37.9L50.8,9.9z M22.2,57.6L11.6,24.9
		l32.7-10.6l1.1,3.5L25.1,47.8l8.8,6L22.2,57.6z M54.4,56.7L54.4,56.7l-9.6-6.5l0,0l-12.5-8.5L46.4,21l0,0l1.9-2.7l0,0l3.4-4.9
		L80,32.7L60.7,61L54.4,56.7z"/>
</g>
</svg>
