<?xml version="1.0" encoding="utf-8"?>
<!-- Generator: Adobe Illustrator 24.3.0, SVG Export Plug-In . SVG Version: 6.00 Build 0)  -->
<svg version="1.1" id="Layer_1" xmlns="http://www.w3.org/2000/svg" xmlns:xlink="http://www.w3.org/1999/xlink" x="0px" y="0px"
	 viewBox="0 0 70 70" style="enable-background:new 0 0 70 70;" xml:space="preserve">
<style type="text/css">
	.st0{fill:#818181;}
</style>
<path class="st0" d="M24.5,47.2h18.6c1.4,0,2.2-0.5,2.6-1.8l2.9-9.6c0.4-1.3-1.1-1.8-1.9-0.6c-2.5,3.7-3.6,4.1-8.1,4.1h-4.7
	c-1.1,0-1.5-0.9-0.7-1.6l4.1-3.8c6.4-6,8.5-9.2,8.5-13.3c0-5.8-4.4-9.4-11.4-9.4c-7,0-12.3,3.9-13.1,9.3c-0.2,1.4,1.2,1.7,1.8,0.6
	c1.6-2.9,4.1-4.5,7.4-4.5c4.1,0,6.3,2.4,6.3,7c0,4.1-1.7,7.5-6.3,12.6l-6.9,7.6C22.1,45.5,22.6,47.2,24.5,47.2z"/>
</svg>
