<?xml version="1.0" encoding="utf-8"?>
<!-- Generator: Adobe Illustrator 24.3.0, SVG Export Plug-In . SVG Version: 6.00 Build 0)  -->
<svg version="1.1" id="Layer_1" xmlns="http://www.w3.org/2000/svg" xmlns:xlink="http://www.w3.org/1999/xlink" x="0px" y="0px"
	 viewBox="0 0 92 95" style="enable-background:new 0 0 92 95;" xml:space="preserve">
<style type="text/css">
	.st0{fill:#818181;}
</style>
<g id="Sensory">
	<path class="st0" d="M66.2,33.3c-2.5,0-4.5,2-4.5,4.4v-1.6c0.2-2.5-1.7-4.6-4.2-4.7c-2.5-0.2-4.6,1.7-4.7,4.2c0,0.2,0,0.4,0,0.6
		v-1.6c0.2-2.5-1.7-4.6-4.2-4.7c-2.5-0.2-4.6,1.7-4.7,4.2c0,0.2,0,0.4,0,0.6V20.6c0-0.1,0-0.2,0-0.4c1.5-4-0.6-8.4-4.5-9.9
		S31,11,29.6,15c-1.5,4,0.6,8.4,4.5,9.9c0.3,0.1,0.6,0.2,1,0.3v21.6L29.3,39c-1.5-2-4.2-2.4-6.2-0.9s-2.4,4.2-0.9,6.2
		c0,0,14.9,26,18.7,25.6h25.4c0.3,0,0.6,0,0.9,0c2.1-0.4,3.6-2.2,3.6-4.4V37.7C70.7,35.3,68.7,33.3,66.2,33.3
		C66.3,33.3,66.3,33.3,66.2,33.3z M30.7,17.7c-0.2-3.4,2.4-6.3,5.8-6.5c3.4-0.2,6.3,2.4,6.5,5.8c0,0.2,0,0.5,0,0.7l0,0
		c-1.6-1.9-4.4-2.2-6.3-0.6c-1,0.9-1.6,2.1-1.6,3.5v2.9C32.5,22.8,30.7,20.4,30.7,17.7z M44,48.4L44,48.4L44,48.4z"/>
</g>
</svg>
