<?xml version="1.0" encoding="utf-8"?>
<!-- Generator: Adobe Illustrator 24.3.0, SVG Export Plug-In . SVG Version: 6.00 Build 0)  -->
<svg version="1.1" id="Layer_1" xmlns="http://www.w3.org/2000/svg" xmlns:xlink="http://www.w3.org/1999/xlink" x="0px" y="0px"
	 viewBox="0 0 92 95" style="enable-background:new 0 0 92 95;" xml:space="preserve">
<style type="text/css">
	.st0{fill:#818181;}
</style>
<g id="Trips_Out">
	<path class="st0" d="M32.2,70.7V49.5l0.2-0.4c3.1-0.4,6-1.8,8.1-4.1c1.6,0.6,3.4,0.9,5.1,0.9c6.7,0,12.2-4.5,12.2-10.1
		c-0.2-3.8-2.5-7.2-6-8.7c1.2-2.8-0.1-6-3-7.2c-1.2-0.5-2.6-0.6-3.8-0.2C42.5,13.2,37.2,8.6,31,8.6c-8.7,0-15.8,9.1-15.8,20.2
		c0,0.2,0,0.3,0,0.5c-5.1,2.2-7.5,8.1-5.3,13.2c1.6,3.8,5.3,6.2,9.4,6.1c1.8,0,3.6-0.5,5.2-1.5c1.1,0.6,2.2,1.1,3.4,1.4v22H13.5v4.4
		h69.3v-4.4H32.2z"/>
	<path class="st0" d="M70.9,29.4c2.8,0,5.1-2.3,5.1-5.1s-2.3-5.1-5.1-5.1c-2.8,0-5.1,2.3-5.1,5.1c0,0,0,0,0,0
		C65.8,27.1,68.1,29.4,70.9,29.4z"/>
	<path class="st0" d="M70.9,18.1c0.3,0,0.5-0.2,0.5-0.5V14c0-0.3-0.2-0.5-0.5-0.5c-0.3,0-0.5,0.2-0.5,0.5v3.5
		C70.4,17.8,70.6,18.1,70.9,18.1z"/>
	<path class="st0" d="M70.4,30.9v3.5c0,0.3,0.2,0.5,0.5,0.5c0.3,0,0.5-0.2,0.5-0.5v-3.5c0-0.3-0.2-0.5-0.5-0.5
		C70.6,30.4,70.4,30.6,70.4,30.9z"/>
	<path class="st0" d="M60.7,24.8h3.5c0.3,0,0.5-0.2,0.5-0.5c0-0.3-0.2-0.5-0.5-0.5h-3.5c-0.3,0-0.5,0.2-0.5,0.5
		C60.2,24.6,60.4,24.8,60.7,24.8z"/>
	<path class="st0" d="M77.1,24.3c0,0.3,0.2,0.5,0.5,0.5h3.5c0.3,0,0.5-0.2,0.5-0.5c0-0.3-0.2-0.5-0.5-0.5h-3.5
		C77.3,23.8,77.1,24,77.1,24.3z"/>
	<path class="st0" d="M65.8,19.4c0.2,0.2,0.5,0.2,0.7,0c0.2-0.2,0.2-0.5,0-0.7l0,0L64,16.2c-0.2-0.2-0.5-0.2-0.7,0
		c-0.2,0.2-0.2,0.5,0,0.7L65.8,19.4z"/>
	<path class="st0" d="M75.2,28.2c-0.2,0.2-0.2,0.5,0,0.6c0,0,0,0,0,0l2.5,2.5c0.2,0.2,0.5,0.2,0.7,0s0.2-0.5,0-0.7l-2.5-2.5
		C75.7,28,75.4,28,75.2,28.2C75.2,28.1,75.2,28.2,75.2,28.2z"/>
	<path class="st0" d="M65.8,28.2l-2.5,2.5c-0.2,0.2-0.2,0.5,0,0.7c0,0,0,0,0,0c0.2,0.2,0.5,0.2,0.6,0c0,0,0,0,0,0l2.5-2.5
		c0.2-0.2,0.2-0.5,0-0.7S66,28,65.8,28.2z"/>
	<path class="st0" d="M75.9,19.4l2.5-2.4c0.2-0.2,0.2-0.5,0-0.6c0,0,0,0,0,0c-0.2-0.2-0.5-0.2-0.7,0c0,0,0,0,0,0l-2.5,2.5
		c-0.2,0.2-0.2,0.5,0,0.7C75.4,19.7,75.8,19.7,75.9,19.4L75.9,19.4z"/>
</g>
</svg>
