<svg xmlns="http://www.w3.org/2000/svg" viewBox="0 0 48 48"><g id="Unsettled"><path d="M48,45.92A2.14,2.14,0,0,1,45.81,48H2.19A2.14,2.14,0,0,1,0,45.92V2.08A2.14,2.14,0,0,1,2.19,0H45.81A2.14,2.14,0,0,1,48,2.08Z" style="fill:#fff"/><path d="M24,15.59a7.81,7.81,0,1,0,7.8,7.8A7.81,7.81,0,0,0,24,15.59Z" style="fill:#818181"/><rect x="12.6" y="31.64" width="22.8" height="9.82" rx="3.24" style="fill:#818181"/><path d="M13.85,8.47l1.8-1.13a.3.3,0,0,1,.45.16l.68,3.34a.3.3,0,0,0,.45.16l1.09-.72a.31.31,0,0,1,.47.2l.81,4.83a.3.3,0,0,1-.56.2l-1.16-2.07a.31.31,0,0,0-.37-.14l-.68.21a.31.31,0,0,1-.38-.15l-2.7-4.51A.29.29,0,0,1,13.85,8.47Z" style="fill:#818181"/><path d="M33.25,8.13,35,9.39a.31.31,0,0,1,0,.48l-2.86,1.85a.29.29,0,0,0,0,.48L33.2,13a.31.31,0,0,1,0,.51L29,16a.3.3,0,0,1-.39-.45l1.51-1.84a.3.3,0,0,0,0-.39l-.44-.56a.28.28,0,0,1,0-.4l3.21-4.17A.29.29,0,0,1,33.25,8.13Z" style="fill:#818181"/><path d="M23.61,6.54l1.79,0a.26.26,0,0,1,.26.31l-1,2.63a.26.26,0,0,0,.26.32h1.11a.26.26,0,0,1,.25.35l-1.53,3.73a.26.26,0,0,1-.49-.12l.06-2a.26.26,0,0,0-.21-.26l-.58-.17a.25.25,0,0,1-.21-.27V6.76A.25.25,0,0,1,23.61,6.54Z" style="fill:#818181"/></g></svg>