<?xml version="1.0" encoding="utf-8"?>
<!-- Generator: Adobe Illustrator 24.3.0, SVG Export Plug-In . SVG Version: 6.00 Build 0)  -->
<svg version="1.1" id="Layer_1" xmlns="http://www.w3.org/2000/svg" xmlns:xlink="http://www.w3.org/1999/xlink" x="0px" y="0px"
	 viewBox="0 0 92 95" style="enable-background:new 0 0 92 95;" xml:space="preserve">
<style type="text/css">
	.st0{fill:#818181;}
</style>
<g>
	<path class="st0" d="M75.6,41.2c0,0-13.2-14.3-29.6-14.3c-1.6,0-3.2,0.1-4.8,0.4l-2.3-5.1l-3.1,1.4l2,4.5
		c-8.1,2.6-15.4,7.1-21.3,13.1c0,0,13.2,14.3,29.6,14.3c1.4,0,2.7-0.1,4-0.3l2.1,4.6l3.1-1.4l-1.8-3.8
		C66.2,51.3,75.6,41.2,75.6,41.2z M46,52.8c-6.4,0.1-11.6-4.9-11.7-11.3c-0.1-3.9,1.9-7.6,5.1-9.8l1.9,4.2
		c-3.1,2.9-3.3,7.7-0.4,10.8c1.4,1.5,3.4,2.4,5.5,2.4c0.3,0,0.6,0,0.9,0l1.5,3.4C47.9,52.7,46.9,52.8,46,52.8z M41.7,44.8
		c-1.8-2.6-1.2-6.2,1.4-8c0,0,0.1,0,0.1-0.1l6.5,9.6C47.1,48.2,43.5,47.5,41.7,44.8C41.7,44.9,41.7,44.9,41.7,44.8z M51.9,51.1
		l-1.4-3.2c3.5-2.4,4.4-7.1,2-10.6c-1.4-2-3.7-3.3-6.1-3.4c-0.7,0-1.4,0.1-2.1,0.3l-1.9-4c1.2-0.4,2.4-0.5,3.6-0.5
		c6.4-0.1,11.6,4.9,11.7,11.3C57.8,45.2,55.6,49.1,51.9,51.1L51.9,51.1z"/>
</g>
</svg>
