<?xml version="1.0" encoding="utf-8"?>
<!-- Generator: Adobe Illustrator 16.0.4, SVG Export Plug-In . SVG Version: 6.00 Build 0)  -->
<!DOCTYPE svg PUBLIC "-//W3C//DTD SVG 1.1//EN" "http://www.w3.org/Graphics/SVG/1.1/DTD/svg11.dtd">
<svg version="1.1" id="Layer_1" focusable="false" xmlns="http://www.w3.org/2000/svg" xmlns:xlink="http://www.w3.org/1999/xlink"
	 x="0px" y="0px" width="88px" height="88px" viewBox="0 0 88 88" enable-background="new 0 0 88 88" xml:space="preserve">
<path fill="#C5C5C5" d="M44,1.375C20.453,1.375,1.375,20.453,1.375,44S20.453,86.625,44,86.625S86.625,67.547,86.625,44
	S67.547,1.375,44,1.375z M44,78.375C25.042,78.375,9.625,62.958,9.625,44S25.042,9.625,44,9.625S78.375,25.042,78.375,44
	S62.958,78.375,44,78.375z M30.25,41.25c3.042,0,5.5-2.458,5.5-5.5s-2.458-5.5-5.5-5.5s-5.5,2.458-5.5,5.5S27.208,41.25,30.25,41.25
	z M57.75,30.25c-3.042,0-5.5,2.458-5.5,5.5s2.458,5.5,5.5,5.5s5.5-2.458,5.5-5.5S60.792,30.25,57.75,30.25z M59.125,55h-30.25
	c-2.269,0-4.125,1.856-4.125,4.125s1.856,4.125,4.125,4.125h30.25c2.269,0,4.125-1.856,4.125-4.125S61.394,55,59.125,55z"/>
</svg>
