<svg height="24" viewBox="0 0 652 184.3" xmlns="http://www.w3.org/2000/svg"><path d="M602.8 168.6c1.5 1.5 3.1 2.9 4.9 4 3.3 2 7.2 3 11.2 2.9 1.6 0 4.7-.2 6.5-.8 1.2-.4 1.8-.9 2.8-1.2 4.1-1.4 7.5-4 10.2-7.1 4.2-4.7 5.9-10.1 2.9-14.6-.1-.1-.1-.2-.2-.3-.6-.8-1.3-1.7-1.5-2.5-.3-.9-1.4-1.9-2.1-2.6-.7-.8-1.3-1.6-2-2.4-.4-.4-.7-.9-1.1-1.3-2.3-2.8-4.4-5.6-6.9-7.5-2.9-2.3-5.7-4-9-4.2-2.3-.1-4.5.2-6.7 1-2.3.8-4.8 1.4-9.1 5.7-1.9 1.9-3.4 4.4-4.3 7.1-1 2.8-1.6 5.7-1.6 8.7 0 3.4.7 6.7 2.3 9.8.3.7.5 1.4.9 2 .6 1 2 2.5 2.8 3.3z" fill="#c48cb7"></path><g fill="#004131"><path d="M292.2 17.4c-1.3 1.7-2.3 3.8-2.8 6-.4 1.5-.6 3.1-.7 4.6-.1 3.6.6 6.9 2.2 10 .3.5.5 1.1.8 1.6.5.9 1.6 2 2.2 2.7 1.3 1.3 2.7 2.6 4.4 3.5 2.9 1.7 6.3 2.7 9.9 2.6 1.1 0 3.1-.1 4.2-.4.8-.2 1.2-.5 1.8-.8 2.6-.9 4.6-2.7 6.3-4.8 3.4-4.3 5.2-10 7.5-14.7.5-1 .5-2.2.8-3.2.2-1.1-.4-2.3-.9-3.2-.7-1.3-1.6-2.7-2.7-4-2.1-2.4-4.8-4.7-8.1-6.2-2.9-1.3-5.9-2.1-8.8-2.1-2.7 0-5.4.5-7.8 1.7-2.6 1.2-5 2.6-8.3 6.7zm-93.3 102c4.3 0 7.2-2.4 7.2-7.3 0-25.9-16.6-49.4-47.4-49.4-38.3 0-55.6 28.2-55.6 57.9 0 30.8 21.8 53.8 57.4 53.8 22.3 0 36.4-9.6 43.8-21.7 3.9-6.5-4-13-9.2-7-6.5 7.5-16.9 14-30.3 13.4-17.3-.8-28.9-8.2-26.7-39.7zm-40.2-42.8c12.8 0 17.1 12.8 17.8 24.7.1 2-.9 3.3-3.6 3.3h-33.8c1.4-15.4 5.3-28 19.6-28zm222.8 5.9c.1-6.9 6-10.4 14.9-10.2 17.6.5 28.5 13.4 32.3 21.8.8 1.7 1.4 2.3 3.4 2.3h4.9c1.4 0 1.9-.8 1.9-2.6V65c0-2-.8-2.3-3.1-2.3h-3.3c-1.8 0-2.5.9-3.3 2.3-1.3 2.3-3.2 5.5-3.2 5.5-10.2-8.6-21.9-11.1-34.7-11.1-23 0-42.2 12.3-43 34.2-1.6 41.3 65.5 32.2 65.1 55.7-.1 6.7-7.9 10.5-17.5 10.5-20.5 0-30.3-15.4-35-23.7-.6-1-1-2-3.1-2h-4.2c-1.4 0-2.3 1.1-2.3 2.5V170c0 2 .8 2.3 3.1 2.3h3.5c1.8 0 2.8-.7 3.3-2.3 1-3 1.5-4.4 2-5.8 9.5 6.9 20.6 10.7 34.9 10.7 29.3 0 45.9-13.9 46.4-35.5 1-43.3-63.4-33.5-63-56.9zM80.4 62.7c-8 0-16.7 2.6-24.9 12.7-.5.6-1.5.5-1.5-.6V69c0-3.5-1.3-5.9-4.4-6.3-6.4-.8-12.5 9.5-39.5 18.5-2 .7-2.7 1.6-2.7 3.4V88c0 1.9 1.4 3 3.2 3h3.2c4.5 0 6 .9 6 9.2V152c0 9.2-5.4 9.3-9.2 10.2-1.9.4-3.2 1.6-3.2 3.4v3.4c0 2.1 1.3 3.4 3.6 3.4h51.9c2.3 0 3.6-1.3 3.6-3.4v-3.4c0-1.7-1.3-2.9-3.2-3.4-3.8-.9-9.2-1-9.2-10.2V98.4c0-2.6.4-5.2 2-7.3 1.8-2.4 4.6-3.9 7.8-3.9 9.8 0 9.3 10.8 21.5 10.8 11.4 0 15.2-9.3 15.2-17.6-.1-10-7.8-17.7-20.2-17.7zm135.4-24.8h3.2c4.5 0 6 .9 6 9.2V152c0 9.2-5.4 9.3-9.2 10.2-1.9.4-3.2 1.6-3.2 3.4v3.4c0 2.1 1.3 3.4 3.6 3.4h51.9c2.3 0 3.6-1.3 3.6-3.4v-3.4c0-1.7-1.3-2.9-3.2-3.4-3.8-.9-9.2-1-9.2-10.2V15.8c0-3.5-1.3-5.9-4.4-6.3-6.4-.8-12.5 9.5-39.5 18.5-2 .7-2.7 1.6-2.7 3.4v3.4c0 1.9 1.3 3 3.1 3.1z"></path><path d="M10.1 81.2c-2 .7-2.7 1.6-2.7 3.4V88c0 1.9 1.4 3 3.2 3m273.7.2c-1.8 0-3.2-1.2-3.2-3v-3.4c0-1.8.7-2.8 2.7-3.4 27-9 33.1-19.3 39.5-18.5 3.2.4 4.4 2.8 4.4 6.3v82.9c0 9.2 5.4 9.3 9.2 10.2 1.9.4 3.2 1.6 3.2 3.4v3.4c0 2.1-1.3 3.4-3.6 3.4h-51.9c-2.3 0-3.6-1.3-3.6-3.4v-3.4c0-1.7 1.3-2.9 3.2-3.4 3.8-.9 9.2-1 9.2-10.2v-51.6c0-8.4-1.6-9.2-6-9.2-.2-.1-2.9-.1-3.1-.1zm168.4-53.6h3.2c4.5 0 6 .9 6 9.2V152c0 9.2-5.4 9.3-9.2 10.2-1.9.4-3.2 1.6-3.2 3.4v3.4c0 2.1 1.3 3.4 3.6 3.4H505c2.3 0 3.6-1.3 3.6-3.4v-3.4c0-1.7-1.3-2.9-3.2-3.4-3.8-.9-9.2-1-9.2-10.2V97.9c0-7 .3-7.2 4.8-10.1 4.7-3.1 10.4-5.4 16.3-5.1 5.2.2 9.6 2.4 12.3 6 2.1 2.8 3.1 6.5 3.1 10.2V152c0 9.2-5.4 9.3-9.2 10.2-1.9.4-3.2 1.6-3.2 3.4v3.4c0 2.1 1.3 3.4 3.6 3.4h51.9c2.3 0 3.6-1.3 3.6-3.4v-3.4c0-1.7-1.3-2.9-3.2-3.4-3.8-.9-9.2-1-9.2-10.2V98.9c0-21.3-12.2-36.2-37.3-36.2-11.9 0-21.8 3.8-29.9 10.2-1.4 1.1-3.5.6-3.5-1.6V15.8c0-3.5-1.3-5.9-4.4-6.3-6.4-.8-12.5 9.2-39.5 18.2-2 .7-2.7 1.6-2.7 3.4v3.4c-.2 1.9 1.1 3 3 3.1z"></path></g><g fill="#004539"><path d="M292.2 17.4c-1.3 1.7-2.3 3.8-2.8 6-.4 1.5-.6 3.1-.7 4.6-.1 3.6.6 6.9 2.2 10 .3.5.5 1.1.8 1.6.5.9 1.6 2 2.2 2.7 1.3 1.3 2.7 2.6 4.4 3.5 2.9 1.7 6.3 2.7 9.9 2.6 1.1 0 3.1-.1 4.2-.4.8-.2 1.2-.5 1.8-.8 2.6-.9 4.6-2.7 6.3-4.8 3.4-4.3 5.2-10 7.5-14.7.5-1 .5-2.2.8-3.2.2-1.1-.4-2.3-.9-3.2-.7-1.3-1.6-2.7-2.7-4-2.1-2.4-4.8-4.7-8.1-6.2-2.9-1.3-5.9-2.1-8.8-2.1-2.7 0-5.4.5-7.8 1.7-2.6 1.2-5 2.6-8.3 6.7zm-93.3 102c4.3 0 7.2-2.4 7.2-7.3 0-25.9-16.6-49.4-47.4-49.4-38.3 0-55.6 28.2-55.6 57.9 0 30.8 21.8 53.8 57.4 53.8 22.3 0 36.4-9.6 43.8-21.7 3.9-6.5-4-13-9.2-7-6.5 7.5-16.9 14-30.3 13.4-17.3-.8-28.9-8.2-26.7-39.7zm-40.2-42.8c12.8 0 17.1 12.8 17.8 24.7.1 2-.9 3.3-3.6 3.3h-33.8c1.4-15.4 5.3-28 19.6-28zm222.8 5.9c.1-6.9 6-10.4 14.9-10.2 17.6.5 28.5 13.4 32.3 21.8.8 1.7 1.4 2.3 3.4 2.3h4.9c1.4 0 1.9-.8 1.9-2.6V65c0-2-.8-2.3-3.1-2.3h-3.3c-1.8 0-2.5.9-3.3 2.3-1.3 2.3-3.2 5.5-3.2 5.5-10.2-8.6-21.9-11.1-34.7-11.1-23 0-42.2 12.3-43 34.2-1.6 41.3 65.5 32.2 65.1 55.7-.1 6.7-7.9 10.5-17.5 10.5-20.5 0-30.3-15.4-35-23.7-.6-1-1-2-3.1-2h-4.2c-1.4 0-2.3 1.1-2.3 2.5V170c0 2 .8 2.3 3.1 2.3h3.5c1.8 0 2.8-.7 3.3-2.3 1-3 1.5-4.4 2-5.8 9.5 6.9 20.6 10.7 34.9 10.7 29.3 0 45.9-13.9 46.4-35.5 1-43.3-63.4-33.5-63-56.9zM80.4 62.7c-8 0-16.7 2.6-24.9 12.7-.5.6-1.5.5-1.5-.6V69c0-3.5-1.3-5.9-4.4-6.3-6.4-.8-12.5 9.5-39.5 18.5-2 .7-2.7 1.6-2.7 3.4V88c0 1.9 1.4 3 3.2 3h3.2c4.5 0 6 .9 6 9.2V152c0 9.2-5.4 9.3-9.2 10.2-1.9.4-3.2 1.6-3.2 3.4v3.4c0 2.1 1.3 3.4 3.6 3.4h51.9c2.3 0 3.6-1.3 3.6-3.4v-3.4c0-1.7-1.3-2.9-3.2-3.4-3.8-.9-9.2-1-9.2-10.2V98.4c0-2.6.4-5.2 2-7.3 1.8-2.4 4.6-3.9 7.8-3.9 9.8 0 9.3 10.8 21.5 10.8 11.4 0 15.2-9.3 15.2-17.6-.1-10-7.8-17.7-20.2-17.7zm135.4-24.8h3.2c4.5 0 6 .9 6 9.2V152c0 9.2-5.4 9.3-9.2 10.2-1.9.4-3.2 1.6-3.2 3.4v3.4c0 2.1 1.3 3.4 3.6 3.4h51.9c2.3 0 3.6-1.3 3.6-3.4v-3.4c0-1.7-1.3-2.9-3.2-3.4-3.8-.9-9.2-1-9.2-10.2V15.8c0-3.5-1.3-5.9-4.4-6.3-6.4-.8-12.5 9.5-39.5 18.5-2 .7-2.7 1.6-2.7 3.4v3.4c0 1.9 1.3 3 3.1 3.1z"></path><path d="M10.1 81.2c-2 .7-2.7 1.6-2.7 3.4V88c0 1.9 1.4 3 3.2 3m273.7.2c-1.8 0-3.2-1.2-3.2-3v-3.4c0-1.8.7-2.8 2.7-3.4 27-9 33.1-19.3 39.5-18.5 3.2.4 4.4 2.8 4.4 6.3v82.9c0 9.2 5.4 9.3 9.2 10.2 1.9.4 3.2 1.6 3.2 3.4v3.4c0 2.1-1.3 3.4-3.6 3.4h-51.9c-2.3 0-3.6-1.3-3.6-3.4v-3.4c0-1.7 1.3-2.9 3.2-3.4 3.8-.9 9.2-1 9.2-10.2v-51.6c0-8.4-1.6-9.2-6-9.2-.2-.1-2.9-.1-3.1-.1zm168.4-53.6h3.2c4.5 0 6 .9 6 9.2V152c0 9.2-5.4 9.3-9.2 10.2-1.9.4-3.2 1.6-3.2 3.4v3.4c0 2.1 1.3 3.4 3.6 3.4H505c2.3 0 3.6-1.3 3.6-3.4v-3.4c0-1.7-1.3-2.9-3.2-3.4-3.8-.9-9.2-1-9.2-10.2V97.9c0-7 .3-7.2 4.8-10.1 4.7-3.1 10.4-5.4 16.3-5.1 5.2.2 9.6 2.4 12.3 6 2.1 2.8 3.1 6.5 3.1 10.2V152c0 9.2-5.4 9.3-9.2 10.2-1.9.4-3.2 1.6-3.2 3.4v3.4c0 2.1 1.3 3.4 3.6 3.4h51.9c2.3 0 3.6-1.3 3.6-3.4v-3.4c0-1.7-1.3-2.9-3.2-3.4-3.8-.9-9.2-1-9.2-10.2V98.9c0-21.3-12.2-36.2-37.3-36.2-11.9 0-21.8 3.8-29.9 10.2-1.4 1.1-3.5.6-3.5-1.6V15.8c0-3.5-1.3-5.9-4.4-6.3-6.4-.8-12.5 9.2-39.5 18.2-2 .7-2.7 1.6-2.7 3.4v3.4c-.2 1.9 1.1 3 3 3.1z"></path></g></svg>
