<svg width="491" height="512" viewBox="0 0 491 512" fill="none" xmlns="http://www.w3.org/2000/svg">
<g clip-path="url(#clip0)">
<path d="M134.848 18.9236C138.226 17.5182 141.64 16.232 145.091 15.0649C141.673 16.2402 138.258 17.5265 134.848 18.9236Z" fill="white"/>
<path d="M63.418 64.5872C65.1313 62.9105 66.7953 61.3818 68.3484 59.9641C66.7953 61.3818 65.1313 62.9105 63.418 64.5872Z" fill="white"/>
<path d="M490.803 232.447C490.901 230.388 490.963 228.342 490.988 226.283C490.988 225.05 490.988 223.817 490.988 222.523C490.988 223.756 490.988 224.989 490.988 226.283C490.963 228.342 490.901 230.388 490.803 232.447Z" fill="white"/>
<path d="M0.111084 205.559C0.111084 204.24 0.185041 202.921 0.22202 201.59C0.185041 202.921 0.135736 204.24 0.111084 205.559Z" fill="white"/>
<path d="M0.936768 189.804C2.67461 168.696 8.41392 148.111 17.8483 129.15C8.41392 148.111 2.67461 168.696 0.936768 189.804V189.804Z" fill="white"/>
<path d="M0.0246582 210.737C0.0246582 210.145 0.0246582 209.504 0.0246582 208.962C0.0369844 209.554 0.0246582 210.145 0.0246582 210.737Z" fill="white"/>
<path d="M456.561 373.013C456.561 373.333 456.499 373.654 456.462 373.962C456.462 373.654 456.487 373.333 456.561 373.013Z" fill="white"/>
<path d="M461.146 339.665L459.914 341.872L461.146 339.665Z" fill="white"/>
<path d="M464.388 333.18C463.87 334.278 463.328 335.375 462.786 336.472C463.34 335.375 463.87 334.29 464.388 333.18Z" fill="white"/>
<path d="M468.221 324.6C467.383 326.659 466.496 328.668 465.583 330.678C466.496 328.681 467.383 326.659 468.221 324.6Z" fill="white"/>
<path d="M455.427 383.516L455.242 385.045L455.427 383.516Z" fill="white"/>
<path d="M456.019 378.178L455.871 379.67L456.019 378.178Z" fill="white"/>
<path d="M245.229 507.488C249.642 506.588 254.091 505.367 258.418 504.418C254.067 505.367 249.629 506.588 245.229 507.488Z" fill="white"/>
<path d="M151.193 502.088C149.171 501.546 147.15 500.954 145.153 500.338C147.174 500.954 149.171 501.546 151.193 502.088Z" fill="white"/>
<path d="M274.035 505.898C285.955 506.933 298.687 506.415 310.742 509.522C298.724 506.415 285.955 506.933 274.035 505.898Z" fill="white"/>
<path d="M172.616 506.76C167.455 505.939 162.348 504.903 157.294 503.654C162.348 504.878 167.455 505.914 172.616 506.76Z" fill="white"/>
<path d="M129.067 494.654L128.784 494.543L129.067 494.654Z" fill="white"/>
<path d="M177.164 507.463C189.514 509.205 201.979 510.001 214.45 509.843C201.979 510.001 189.514 509.205 177.164 507.463Z" fill="white"/>
<path d="M452.58 401.552C453.352 397.854 454.009 394.085 454.552 390.247V389.988V390.247C454.009 394.085 453.352 397.854 452.58 401.552Z" fill="white"/>
<path d="M244.415 507.661L243.084 507.907L244.415 507.661Z" fill="white"/>
<path d="M407.811 480.995C411.188 478.019 414.414 474.876 417.475 471.576C414.414 474.876 411.188 478.019 407.811 480.995V480.995Z" fill="white"/>
<path d="M241.753 508.117L240.816 508.265L241.753 508.117Z" fill="white"/>
<path d="M335.086 510.927C341.126 509.818 346.858 508.154 351.875 507.229C356.3 506.341 360.725 505.281 365.125 503.999C360.725 505.232 356.3 506.341 351.875 507.229C346.858 508.117 341.126 509.818 335.086 510.927Z" fill="white"/>
<path d="M22.3228 384.478C19.2782 375.404 14.2985 369.684 10.8472 357.787C6.15089 341.65 5.91669 309.35 6.2988 294.519C6.2988 293.348 6.2988 292.202 6.40973 291.055C6.40973 292.189 6.32345 293.348 6.2988 294.519C5.96599 309.313 6.15089 341.65 10.8472 357.787C14.2985 369.684 19.2782 375.404 22.3228 384.478C35.6843 424.52 61.9884 455.229 96.2797 477.58C98.0054 478.702 99.7557 479.787 101.518 480.859C99.7557 479.787 98.0054 478.702 96.2797 477.58C62.0007 455.229 35.6843 424.52 22.3228 384.478Z" fill="white"/>
<path d="M134.848 18.9238C125.406 22.894 116.296 27.6144 107.607 33.0396C105.142 34.5682 102.677 36.1586 100.212 37.7859C102.677 36.1586 105.142 34.5682 107.607 33.0396C116.296 27.6144 125.406 22.894 134.848 18.9238V18.9238Z" fill="white"/>
<path d="M63.3564 64.6365C54.5294 73.4691 46.5713 83.1294 39.5916 93.4843C46.5713 83.1294 54.5294 73.4691 63.3564 64.6365V64.6365Z" fill="white"/>
<path d="M467.322 128.065C458.36 108.34 446.059 84.4108 400.514 43.617C385.168 30.7206 367.547 20.8069 348.559 14.387C367.547 20.8069 385.168 30.7206 400.514 43.617C446.059 84.4108 458.36 108.278 467.322 128.065Z" fill="#56C3F0"/>
<path d="M490.988 222.535C490.919 193.55 484.49 164.932 472.153 138.704C471.821 138.013 471.5 137.311 471.18 136.62C471.5 137.311 471.821 138.013 472.153 138.704C484.49 164.932 490.919 193.55 490.988 222.535V222.535Z" fill="#56C3F0"/>
<path d="M468.221 324.6V324.526C480.794 293.964 489.361 262.639 490.766 232.447C489.361 262.639 480.794 293.964 468.221 324.526V324.6Z" fill="#56C3F0"/>
<path d="M467.321 128.065C468.653 130.999 469.91 133.834 471.179 136.633C469.91 133.834 468.653 130.999 467.321 128.065Z" fill="#56C3F0"/>
<path d="M457.917 345.533C458.607 344.3 459.272 343.068 459.95 341.835C459.272 343.068 458.607 344.3 457.917 345.533Z" fill="#56C3F0"/>
<path d="M465.584 330.678C465.189 331.516 464.795 332.342 464.351 333.143C464.795 332.342 465.189 331.516 465.584 330.678Z" fill="#56C3F0"/>
<path d="M462.785 336.472C462.243 337.544 461.701 338.605 461.146 339.665C461.701 338.605 462.243 337.544 462.785 336.472Z" fill="#56C3F0"/>
<path d="M259.108 18.6895C291.809 27.7013 319.383 48.5236 349.188 69.2965C353.884 72.5634 358.519 75.966 363.116 79.4179C371.634 85.8039 380.028 92.3624 388.483 98.4649C396.224 103.519 411.632 111.446 414.208 120.483C416.464 128.41 425.671 136.386 432.192 143.906C432.993 144.831 433.72 145.768 434.423 146.668C462.576 183.356 467.617 229.599 453.146 277.716C456.696 300.137 458.292 322.824 457.917 345.521C458.607 344.288 459.273 343.055 459.95 341.822L461.183 339.616C461.738 338.555 462.28 337.495 462.822 336.423C463.365 335.35 463.907 334.228 464.425 333.131C464.832 332.293 465.226 331.467 465.657 330.665C466.57 328.656 467.457 326.646 468.295 324.588V324.514C480.868 293.952 489.435 262.626 490.84 232.435C490.938 230.376 491 228.329 491.025 226.271C491.025 225.038 491.025 223.805 491.025 222.511C490.956 193.525 484.527 164.908 472.19 138.679C471.857 137.989 471.537 137.286 471.217 136.596C469.984 133.797 468.69 130.962 467.358 128.028C458.397 108.303 446.096 84.3738 400.551 43.58C385.205 30.6835 367.584 20.7699 348.596 14.35C343.025 12.4144 337.305 10.6515 331.463 9.2831C328.073 8.44478 324.671 7.68044 321.269 6.94075C306.846 3.77802 292.214 1.65622 277.486 0.591758C275.983 0.480805 274.479 0.394509 272.987 0.32054L271.755 0.258898L268.316 0.197258H267.083C265.727 0.197258 264.384 0.123289 263.04 0.0986328H262.633C259.445 0.0986328 256.257 0.119179 253.068 0.160273H252.859C235.197 0.581697 217.651 3.14833 200.608 7.80372C219.64 8.82696 238.979 13.1048 259.108 18.6895Z" fill="#70C2EE"/>
<g style="mix-blend-mode:multiply">
<path d="M4.01148e-05 215.816C-0.114268 237.833 2.25501 259.793 7.06293 281.279C7.06293 281.217 7.06293 281.156 7.06293 281.106C2.28 259.675 -0.0890475 237.775 4.01148e-05 215.816V215.816Z" fill="#C48CB7"/>
</g>
<g style="mix-blend-mode:multiply">
<path d="M36.5718 97.9224C31.9865 104.801 27.1177 112.642 21.9407 121.654C20.4985 124.12 19.1426 126.585 17.8484 129.15C19.1426 126.598 20.4985 124.095 21.9407 121.654C27.1177 112.642 31.9865 104.801 36.5718 97.9224Z" fill="#C48CB7"/>
</g>
<g style="mix-blend-mode:multiply">
<path d="M36.5718 97.9225C37.5907 96.3938 38.6015 94.9144 39.604 93.4844C38.6097 94.9144 37.599 96.3938 36.5718 97.9225Z" fill="#C48CB7"/>
</g>
<g style="mix-blend-mode:multiply">
<path d="M100.335 37.7859C98.7079 38.8831 97.0808 39.9926 95.4661 41.1391C88.243 46.243 79.5653 50.2373 68.4595 59.9642C79.553 50.2373 88.243 46.243 95.4661 41.1391C97.0315 39.9926 98.6585 38.8831 100.335 37.7859Z" fill="#C48CB7"/>
</g>
<g style="mix-blend-mode:multiply">
<path d="M0.0493164 208.962C0.0493164 207.828 0.0493178 206.694 0.110949 205.559C0.0739701 206.694 0.0616426 207.828 0.0493164 208.962Z" fill="#C48CB7"/>
</g>
<g style="mix-blend-mode:multiply">
<path d="M0.936854 189.804C0.616374 193.289 0.394502 196.794 0.27124 200.32C0.27124 200.739 0.27124 201.171 0.27124 201.553C0.27124 201.134 0.27124 200.702 0.27124 200.32C0.419154 196.761 0.641026 193.256 0.936854 189.804Z" fill="#C48CB7"/>
</g>
<path d="M29.1391 220.797C31.6345 209.877 34.8798 199.143 38.8521 188.67C42.7338 160.069 52.4325 132.567 67.3501 107.859C78.5916 89.2063 94.3321 73.34 109.419 57.5107C115.582 51.0507 131.335 36.4049 140.506 31.5106C146.546 28.293 153.609 27.2574 159.636 24.1137C172.635 17.1798 186.353 11.6898 200.547 7.74196C196.956 7.52828 193.381 7.43376 189.823 7.45842H189.613C187.875 7.45842 186.137 7.45842 184.412 7.5817L184.153 7.59403C180.701 7.74196 177.25 8.02551 173.799 8.44467H173.38C171.765 8.65425 170.138 8.88848 168.523 9.14737L167.734 9.27065C166.144 9.54187 164.567 9.82542 162.976 10.1583L162.249 10.3062C160.61 10.6514 158.958 11.0336 157.319 11.4404C155.679 11.8472 154.077 12.291 152.475 12.7472L150.564 13.2896C148.752 13.8321 146.965 14.3992 145.19 15.0032C141.738 16.1785 138.324 17.4648 134.947 18.8619C125.504 22.8322 116.395 27.5525 107.706 32.9777C105.241 34.5064 102.776 36.0967 100.31 37.724C98.6832 38.8212 97.0562 39.9307 95.4415 41.0773C88.2183 46.1811 79.5407 50.1754 68.4349 59.9023C66.8201 61.3201 65.1561 62.8488 63.5044 64.5254C54.6774 73.358 46.7193 83.0183 39.7396 93.3732C38.7453 94.8033 37.7345 96.2827 36.7073 97.8114C32.122 104.69 27.2532 112.531 22.0762 121.543C20.634 124.009 19.2781 126.474 17.9839 129.039C8.54957 148 2.81026 168.585 1.07242 189.693C0.751942 193.178 0.530073 196.683 0.406811 200.209C0.406811 200.628 0.406811 201.06 0.406811 201.442C0.406811 202.773 0.320528 204.092 0.295876 205.411C0.295876 206.546 0.295877 207.68 0.234246 208.814C0.234246 209.406 0.234246 210.047 0.234246 210.589C0.234246 212.081 0.234246 213.573 0.234246 215.052V215.668C0.151964 237.615 2.52513 259.502 7.30946 280.921C9.42955 256.622 16.7636 238.217 29.1391 220.797Z" fill="white"/>
<path d="M29.1391 220.797C31.6345 209.877 34.8798 199.143 38.8521 188.67C42.7338 160.069 52.4325 132.567 67.3501 107.859C78.5916 89.2063 94.3321 73.34 109.419 57.5107C115.582 51.0507 131.335 36.4049 140.506 31.5106C146.546 28.293 153.609 27.2574 159.636 24.1137C172.635 17.1798 186.353 11.6898 200.547 7.74196C196.956 7.52828 193.381 7.43376 189.823 7.45842H189.613C187.875 7.45842 186.137 7.45842 184.412 7.5817L184.153 7.59403C180.701 7.74196 177.25 8.02551 173.799 8.44467H173.38C171.765 8.65425 170.138 8.88848 168.523 9.14737L167.734 9.27065C166.144 9.54187 164.567 9.82542 162.976 10.1583L162.249 10.3062C160.61 10.6514 158.958 11.0336 157.319 11.4404C155.679 11.8472 154.077 12.291 152.475 12.7472L150.564 13.2896C148.752 13.8321 146.965 14.3992 145.19 15.0032C141.738 16.1785 138.324 17.4648 134.947 18.8619C125.504 22.8322 116.395 27.5525 107.706 32.9777C105.241 34.5064 102.776 36.0967 100.31 37.724C98.6832 38.8212 97.0562 39.9307 95.4415 41.0773C88.2183 46.1811 79.5407 50.1754 68.4349 59.9023C66.8201 61.3201 65.1561 62.8488 63.5044 64.5254C54.6774 73.358 46.7193 83.0183 39.7396 93.3732C38.7453 94.8033 37.7345 96.2827 36.7073 97.8114C32.122 104.69 27.2532 112.531 22.0762 121.543C20.634 124.009 19.2781 126.474 17.9839 129.039C8.54957 148 2.81026 168.585 1.07242 189.693C0.751942 193.178 0.530073 196.683 0.406811 200.209C0.406811 200.628 0.406811 201.06 0.406811 201.442C0.406811 202.773 0.320528 204.092 0.295876 205.411C0.295876 206.546 0.295877 207.68 0.234246 208.814C0.234246 209.406 0.234246 210.047 0.234246 210.589C0.234246 212.081 0.234246 213.573 0.234246 215.052V215.668C0.151964 237.615 2.52513 259.502 7.30946 280.921C9.42955 256.622 16.7636 238.217 29.1391 220.797Z" fill="#C68EB9"/>
<path d="M74.068 125.537C80.305 115.934 93.5803 99.1059 102.862 91.1419C108.618 86.2107 115.533 83.1656 121.474 78.5303C151.834 54.9835 185.928 41.7308 221.945 39.7952C250.887 38.2419 278.337 45.6264 304.407 57.6587C330.067 69.6518 352.685 87.2887 370.574 109.252C415.885 155.803 421.493 185.686 431.268 208.432C439.699 228.034 446.453 246.538 450.373 263.551C451.347 267.755 452.284 272.514 453.147 277.704C467.617 229.624 462.576 183.344 434.423 146.656C433.721 145.756 432.993 144.819 432.192 143.894C425.672 136.349 416.464 128.373 414.208 120.471C411.632 111.434 396.224 103.507 388.484 98.4525C380.028 92.2885 371.634 85.7915 363.116 79.4056C358.519 75.9537 353.884 72.5511 349.188 69.2841C319.383 48.5112 291.81 27.689 259.108 18.7388C238.98 13.1911 219.665 8.95023 200.608 7.82837C186.418 11.7565 172.699 17.2258 159.698 24.1385C153.67 27.3438 146.607 28.3794 140.568 31.5354C131.397 36.4666 115.607 51.0755 109.481 57.5354C94.3938 73.4141 78.6657 89.2311 67.4119 107.884C52.4942 132.591 42.7955 160.094 38.9138 188.695C39.2713 187.758 39.6287 186.808 39.9985 185.871C48.3557 164.285 61.4953 144.905 74.068 125.537Z" fill="#56C3F0"/>
<g style="mix-blend-mode:multiply">
<path d="M157.294 503.654C155.248 503.161 153.194 502.639 151.131 502.088C153.194 502.647 155.248 503.169 157.294 503.654Z" fill="#FBCE53"/>
</g>
<g style="mix-blend-mode:multiply">
<path d="M245.229 507.488L244.415 507.661L245.229 507.488Z" fill="#FBCE53"/>
</g>
<g style="mix-blend-mode:multiply">
<path d="M243.084 507.907L241.753 508.129L243.084 507.907Z" fill="#FBCE53"/>
</g>
<g style="mix-blend-mode:multiply">
<path d="M145.153 500.338C139.705 498.694 134.343 496.799 129.067 494.654C134.343 496.791 139.705 498.686 145.153 500.338Z" fill="#FBCE53"/>
</g>
<g style="mix-blend-mode:multiply">
<path d="M7.06296 281.279C6.76713 284.443 6.54936 287.731 6.40967 291.141C6.54526 287.8 6.79178 284.583 7.08761 281.427L7.06296 281.279Z" fill="#FBCE53"/>
</g>
<g style="mix-blend-mode:multiply">
<path d="M128.784 494.556C119.363 490.719 110.262 486.139 101.568 480.859C110.262 486.139 119.363 490.719 128.784 494.556V494.556Z" fill="#FBCE53"/>
</g>
<g style="mix-blend-mode:multiply">
<path d="M214.45 509.843C222.388 509.752 230.413 509.341 238.523 508.61C239.288 508.536 240.052 508.437 240.816 508.339C240.052 508.437 239.288 508.536 238.523 508.61C230.413 509.35 222.388 509.76 214.45 509.843Z" fill="#FBCE53"/>
</g>
<path d="M140.567 471.441C106.806 452.961 77.4083 427.984 58.1178 393.465C53.6681 385.575 47.9857 380.582 42.7718 370.288C39.8505 364.543 37.2496 356.592 34.9816 348.171C22.9115 329.32 13.9549 308.649 8.45574 286.95C7.97502 285.088 7.51895 283.251 7.08753 281.341C6.79171 284.497 6.54518 287.714 6.4096 291.055C6.4096 292.202 6.32331 293.348 6.29866 294.519C5.96586 309.313 6.15075 341.65 10.847 357.787C14.2983 369.684 19.2781 375.404 22.3227 384.478C35.6842 424.52 62.0006 455.229 96.2796 477.58C98.0052 478.702 99.7556 479.787 101.518 480.859C110.228 486.142 119.346 490.722 128.784 494.556L129.067 494.667C134.343 496.804 139.705 498.698 145.153 500.35C147.15 500.966 149.171 501.583 151.193 502.101C153.214 502.618 155.248 503.173 157.356 503.666C162.409 504.891 167.517 505.926 172.677 506.773C174.197 507.02 175.713 507.254 177.225 507.476C189.576 509.218 202.041 510.013 214.512 509.855C222.45 509.765 230.474 509.354 238.585 508.622C239.349 508.548 240.113 508.45 240.878 508.351L241.814 508.203L243.146 507.981L244.477 507.735L245.29 507.562C249.691 506.662 254.128 505.441 258.442 504.48C221.378 500.51 179.876 493.089 140.567 471.441Z" fill="white"/>
<g style="mix-blend-mode:multiply">
<path d="M140.567 471.441C106.806 452.961 77.4083 427.984 58.1178 393.465C53.6681 385.575 47.9857 380.582 42.7718 370.288C39.8505 364.543 37.2496 356.592 34.9816 348.171C22.9115 329.32 13.9549 308.649 8.45574 286.95C7.97502 285.088 7.51895 283.251 7.08753 281.341C6.79171 284.497 6.54518 287.714 6.4096 291.055C6.4096 292.202 6.32331 293.348 6.29866 294.519C5.96586 309.313 6.15075 341.65 10.847 357.787C14.2983 369.684 19.2781 375.404 22.3227 384.478C35.6842 424.52 62.0006 455.229 96.2796 477.58C98.0052 478.702 99.7556 479.787 101.518 480.859C110.228 486.142 119.346 490.722 128.784 494.556L129.067 494.667C134.343 496.804 139.705 498.698 145.153 500.35C147.15 500.966 149.171 501.583 151.193 502.101C153.214 502.618 155.248 503.173 157.356 503.666C162.409 504.891 167.517 505.926 172.677 506.773C174.197 507.02 175.713 507.254 177.225 507.476C189.576 509.218 202.041 510.013 214.512 509.855C222.45 509.765 230.474 509.354 238.585 508.622C239.349 508.548 240.113 508.45 240.878 508.351L241.814 508.203L243.146 507.981L244.477 507.735L245.29 507.562C249.691 506.662 254.128 505.441 258.442 504.48C221.378 500.51 179.876 493.089 140.567 471.441Z" fill="#FBCE53"/>
</g>
<g style="mix-blend-mode:multiply">
<path d="M7.09996 281.168C7.09996 281.168 7.09996 281.094 7.09996 281.069C7.09996 281.045 7.09996 281.18 7.09996 281.242V281.341C7.08763 281.279 7.09996 281.279 7.09996 281.168Z" fill="#C48CB7"/>
</g>
<g style="mix-blend-mode:multiply">
<path d="M7.09996 281.168C7.09996 281.168 7.09996 281.094 7.09996 281.069C7.09996 281.045 7.09996 281.18 7.09996 281.242V281.341C7.08763 281.279 7.09996 281.279 7.09996 281.168Z" fill="#FBCE53"/>
</g>
<path d="M29.139 220.797C16.8129 238.217 9.41716 256.647 7.0752 281.069C7.0752 281.069 7.0752 281.069 7.0752 281.168C7.0752 281.267 7.0752 281.279 7.0752 281.341C7.50661 283.214 7.96268 285.039 8.4434 286.95C13.9528 308.655 22.922 329.331 35.0063 348.184C31.5303 335.252 28.8432 321.222 27.2038 312.432C21.5157 282.081 22.1746 250.881 29.139 220.797V220.797Z" fill="white"/>
<g style="mix-blend-mode:multiply">
<path d="M29.139 220.797C16.8129 238.217 9.41716 256.647 7.0752 281.069C7.0752 281.069 7.0752 281.069 7.0752 281.168C7.0752 281.267 7.0752 281.279 7.0752 281.341C7.50661 283.214 7.96268 285.039 8.4434 286.95C13.9528 308.655 22.922 329.331 35.0063 348.184C31.5303 335.252 28.8432 321.222 27.2038 312.432C21.5157 282.081 22.1746 250.881 29.139 220.797V220.797Z" fill="#C48CB7"/>
</g>
<g style="mix-blend-mode:multiply">
<path d="M29.139 220.797C16.8129 238.217 9.41716 256.647 7.0752 281.069C7.0752 281.069 7.0752 281.069 7.0752 281.168C7.0752 281.267 7.0752 281.279 7.0752 281.341C7.50661 283.214 7.96268 285.039 8.4434 286.95C13.9528 308.655 22.922 329.331 35.0063 348.184C31.5303 335.252 28.8432 321.222 27.2038 312.432C21.5157 282.081 22.1746 250.881 29.139 220.797V220.797Z" fill="#FBCE53"/>
</g>
<g style="mix-blend-mode:multiply">
<path d="M452.579 401.552C447.378 426.455 436.975 448.473 421.924 466.46C436.975 448.473 447.378 426.455 452.579 401.552Z" fill="#99C860"/>
</g>
<g style="mix-blend-mode:multiply">
<path d="M455.871 379.67L455.427 383.516L455.871 379.67Z" fill="#99C860"/>
</g>
<g style="mix-blend-mode:multiply">
<path d="M258.418 504.418L266.282 505.195L258.418 504.418Z" fill="#99C860"/>
</g>
<g style="mix-blend-mode:multiply">
<path d="M454.588 389.988C454.823 388.336 455.044 386.697 455.242 385.057C455.044 386.697 454.823 388.336 454.588 389.988Z" fill="#99C860"/>
</g>
<g style="mix-blend-mode:multiply">
<path d="M457.904 345.546C457.769 354.533 457.337 363.742 456.524 373.013C457.337 363.742 457.757 354.52 457.917 345.533L457.904 345.546Z" fill="#99C860"/>
</g>
<g style="mix-blend-mode:multiply">
<path d="M402.622 485.297C391.473 493.946 378.733 500.317 365.125 504.048C378.733 500.317 391.473 493.946 402.622 485.297Z" fill="#99C860"/>
</g>
<g style="mix-blend-mode:multiply">
<path d="M313.996 510.447C312.924 510.101 311.827 509.793 310.742 509.522C311.827 509.793 312.924 510.101 313.996 510.447C321.022 512.703 328.258 512.185 335.086 510.927C328.258 512.185 320.973 512.703 313.996 510.447Z" fill="#99C860"/>
</g>
<g style="mix-blend-mode:multiply">
<path d="M274.035 505.898L266.307 505.195L274.035 505.898Z" fill="#99C860"/>
</g>
<g style="mix-blend-mode:multiply">
<path d="M456.425 373.962C456.302 375.367 456.166 376.773 456.019 378.178C456.166 376.773 456.302 375.367 456.425 373.962Z" fill="#99C860"/>
</g>
<path d="M455.427 383.516L455.87 379.67L456.018 378.178C456.166 376.773 456.302 375.367 456.425 373.962C456.425 373.654 456.487 373.333 456.524 373.013C457.337 363.742 457.756 354.52 457.904 345.545C442.312 372.667 420.544 394.574 398.283 414.065C384.747 425.696 370.098 435.966 354.549 444.725C351.468 446.476 347.943 448.695 344.196 450.791C341.788 453.322 339.38 455.812 336.972 458.262C325.958 469.309 313.964 479.336 301.14 488.219C293.745 493.705 282.121 504.085 271.779 503.013C267.27 502.771 262.75 503.228 258.381 504.369V504.369L266.245 505.146L273.973 505.848C285.893 506.884 298.626 506.366 310.681 509.473C311.765 509.744 312.862 510.052 313.935 510.397C320.961 512.653 328.196 512.136 335.025 510.878C341.065 509.769 346.796 508.104 351.813 507.18C356.238 506.292 360.663 505.232 365.064 503.95C378.671 500.219 391.411 493.847 402.56 485.199C404.335 483.781 406.06 482.338 407.749 480.834C411.126 477.859 414.352 474.716 417.413 471.416C418.929 469.764 420.42 468.087 421.863 466.361C436.913 448.374 447.316 426.356 452.518 401.454C453.29 397.755 453.948 393.987 454.49 390.149V389.89C454.724 388.238 454.946 386.598 455.143 384.958L455.427 383.516Z" fill="white"/>
<path d="M455.427 383.516L455.87 379.67L456.018 378.178C456.166 376.773 456.302 375.367 456.425 373.962C456.425 373.654 456.487 373.333 456.524 373.013C457.337 363.742 457.756 354.52 457.904 345.545C442.312 372.667 420.544 394.574 398.283 414.065C384.747 425.696 370.098 435.966 354.549 444.725C351.468 446.476 347.943 448.695 344.196 450.791C341.788 453.322 339.38 455.812 336.972 458.262C325.958 469.309 313.964 479.336 301.14 488.219C293.745 493.705 282.121 504.085 271.779 503.013C267.27 502.771 262.75 503.228 258.381 504.369V504.369L266.245 505.146L273.973 505.848C285.893 506.884 298.626 506.366 310.681 509.473C311.765 509.744 312.862 510.052 313.935 510.397C320.961 512.653 328.196 512.136 335.025 510.878C341.065 509.769 346.796 508.104 351.813 507.18C356.238 506.292 360.663 505.232 365.064 503.95C378.671 500.219 391.411 493.847 402.56 485.199C404.335 483.781 406.06 482.338 407.749 480.834C411.126 477.859 414.352 474.716 417.413 471.416C418.929 469.764 420.42 468.087 421.863 466.361C436.913 448.374 447.316 426.356 452.518 401.454C453.29 397.755 453.948 393.987 454.49 390.149V389.89C454.724 388.238 454.946 386.598 455.143 384.958L455.427 383.516Z" fill="#98C662"/>
<path d="M457.904 345.533L457.916 345.521L457.904 345.533Z" fill="#56C3F0"/>
<g style="mix-blend-mode:multiply">
<path d="M457.904 345.533L457.916 345.521L457.904 345.533Z" fill="#99C860"/>
</g>
<path d="M453.146 277.704C450.857 285.287 448.166 292.744 445.085 300.042C433.363 327.916 417.228 353.731 395.509 375.244L394.683 377.253C381.741 408.185 363.289 430.708 344.146 450.803C347.844 448.707 351.418 446.488 354.5 444.738C370.049 435.978 384.697 425.709 398.233 414.078C420.494 394.587 442.262 372.643 457.855 345.558C458.253 322.846 456.678 300.143 453.146 277.704V277.704Z" fill="#56C3F0"/>
<path d="M453.146 277.704C450.857 285.287 448.166 292.744 445.085 300.042C433.363 327.916 417.228 353.731 395.509 375.244L394.683 377.253C381.741 408.185 363.289 430.708 344.146 450.803C347.844 448.707 351.418 446.488 354.5 444.738C370.049 435.978 384.697 425.709 398.233 414.078C420.494 394.587 442.262 372.643 457.855 345.558C458.253 322.846 456.678 300.143 453.146 277.704V277.704Z" fill="#63AF2F"/>
<path d="M36.5595 211.082L36.9416 210.639C37.2087 203.288 37.8463 195.956 38.8522 188.67C34.8799 199.143 31.6346 209.877 29.1392 220.797C31.4483 217.559 33.9135 214.345 36.5349 211.156L36.5595 211.082Z" fill="white"/>
<g style="mix-blend-mode:multiply">
<path d="M36.5595 211.082L36.9416 210.639C37.2087 203.288 37.8463 195.956 38.8522 188.67C34.8799 199.143 31.6346 209.877 29.1392 220.797C31.4483 217.559 33.9135 214.345 36.5349 211.156L36.5595 211.082Z" fill="#C48CB7"/>
</g>
<path d="M48.6759 197.67L50.8823 195.401L51.5726 194.698C51.6146 194.65 51.6599 194.605 51.7081 194.563L51.9423 194.329C65.082 181.039 81.7593 168.23 98.905 153.498C105.068 148.197 120.205 134.66 129.277 129.372C134.823 126.129 141.356 124.786 146.915 121.223C158.477 113.826 170.409 107.366 182.39 100.968C223.806 78.8632 264.593 77.1619 303.679 86.8395C328.058 92.7338 350.065 105.909 366.777 124.613C411.151 171.213 410.979 195.845 416.082 216.174C424.71 250.693 426.251 284.583 416.291 317.561C410.264 337.471 403.188 356.678 395.497 375.232C417.216 353.731 433.351 327.916 445.073 300.03C448.154 292.732 450.844 285.275 453.134 277.691C452.271 272.501 451.334 267.743 450.361 263.539C446.441 246.526 439.686 228.021 431.255 208.42C421.48 185.699 415.872 155.791 370.561 109.24C352.673 87.2765 330.054 69.6396 304.394 57.6465C278.324 45.6142 250.874 38.2297 221.932 39.783C185.915 41.7185 151.821 54.9713 121.462 78.518C115.521 83.1534 108.606 86.1985 102.849 91.1297C93.5678 99.0937 80.2925 115.922 74.0555 125.525C61.4951 144.905 48.3554 164.285 39.9367 185.847C39.5669 186.784 39.2094 187.733 38.852 188.67C37.8461 195.956 37.2084 203.288 36.9414 210.639C40.5283 206.349 44.448 202.046 48.6759 197.67Z" fill="#56C3F0"/>
<path d="M434.374 146.656C433.671 145.756 432.944 144.819 432.143 143.894C425.622 136.349 416.415 128.373 414.159 120.471C411.583 111.434 396.175 103.507 388.434 98.4525C379.978 92.2885 371.584 85.7915 363.067 79.4056C358.469 75.9537 353.835 72.5511 349.138 69.2841C319.334 48.5112 291.76 27.689 259.059 18.7388C238.93 13.1911 219.615 8.95023 200.559 7.82837C186.368 11.7565 172.65 17.2258 159.648 24.1385C153.621 27.3438 146.558 28.3794 140.518 31.5354C131.348 36.4666 115.558 51.0755 109.432 57.5354C94.3444 73.4141 78.6163 89.2311 67.3625 107.884C52.34 132.69 42.534 160.301 38.5439 189.027C37.6515 196.208 37.1208 203.429 36.9539 210.663C40.5408 206.373 44.4605 202.034 48.6884 197.694L50.8947 195.426L51.585 194.723C51.6271 194.675 51.6724 194.629 51.7206 194.587L51.9548 194.353C65.0945 181.063 81.7718 168.254 98.9174 153.522C105.081 148.221 120.217 134.685 129.289 129.396C134.836 126.154 141.369 124.81 146.928 121.247C158.49 113.85 170.421 107.39 182.402 100.992C223.818 78.8878 264.606 77.1865 303.692 86.8641C328.07 92.7584 350.078 105.933 366.789 124.638C411.164 171.238 410.991 195.87 416.094 216.199C424.722 250.717 426.263 284.607 416.304 317.585C410.276 337.495 403.201 356.702 395.509 375.256C417.228 353.756 433.363 327.941 445.085 300.055C448.166 292.757 450.857 285.3 453.147 277.716C467.654 229.587 462.576 183.344 434.374 146.656Z" fill="#A25995"/>
<path d="M319.629 456.881C307.994 453.676 294.496 456.314 283.045 452.911C276.882 451.087 270.658 449.213 264.359 447.413L263.422 447.622L262.806 447.45C229.104 454.741 194.12 453.55 160.992 443.986C140.309 438.019 121.265 426.726 102.122 416.531C94.1348 412.278 74.3267 399.863 67.1282 391.875C62.2717 386.487 59.4983 379.349 54.6541 373.999C51.1412 370.103 47.8871 366.097 44.7932 362.041C41.3049 357.528 38.0631 352.905 35.0186 348.196C37.2866 356.616 39.949 364.568 42.8087 370.313C48.0227 380.607 53.705 385.6 58.1547 393.49C77.4452 428.008 106.843 452.973 140.604 471.453C179.912 493.101 221.415 500.523 258.418 504.418C262.787 503.277 267.307 502.82 271.816 503.062C282.158 504.098 293.818 493.717 301.177 488.268C313.999 479.369 325.988 469.326 336.997 458.262C339.413 455.796 341.821 453.306 344.22 450.791C336.319 455.192 327.469 459.038 319.629 456.881Z" fill="white"/>
<g style="mix-blend-mode:multiply">
<path d="M319.629 456.881C307.994 453.676 294.496 456.314 283.045 452.911C276.882 451.087 270.658 449.213 264.359 447.413L263.422 447.622L262.806 447.45C229.104 454.741 194.12 453.55 160.992 443.986C140.309 438.019 121.265 426.726 102.122 416.531C94.1348 412.278 74.3267 399.863 67.1282 391.875C62.2717 386.487 59.4983 379.349 54.6541 373.999C51.1412 370.103 47.8871 366.097 44.7932 362.041C41.3049 357.528 38.0631 352.905 35.0186 348.196C37.2866 356.616 39.949 364.568 42.8087 370.313C48.0227 380.607 53.705 385.6 58.1547 393.49C77.4452 428.008 106.843 452.973 140.604 471.453C179.912 493.101 221.415 500.523 258.418 504.418C262.787 503.277 267.307 502.82 271.816 503.062C282.158 504.098 293.818 493.717 301.177 488.268C313.999 479.369 325.988 469.326 336.997 458.262C339.413 455.796 341.821 453.306 344.22 450.791C336.319 455.192 327.469 459.038 319.629 456.881Z" fill="#FBCE53"/>
</g>
<path d="M319.629 456.881C307.994 453.676 294.496 456.314 283.045 452.911C276.882 451.087 270.658 449.213 264.359 447.413L263.422 447.622L262.806 447.45C229.104 454.741 194.12 453.55 160.992 443.986C140.309 438.019 121.265 426.726 102.122 416.531C94.1348 412.278 74.3267 399.863 67.1282 391.875C62.2717 386.487 59.4983 379.349 54.6541 373.999C51.1412 370.103 47.8871 366.097 44.7932 362.041C41.3049 357.528 38.0631 352.905 35.0186 348.196C37.2866 356.616 39.949 364.568 42.8087 370.313C48.0227 380.607 53.705 385.6 58.1547 393.49C77.4452 428.008 106.843 452.973 140.604 471.453C179.912 493.101 221.415 500.523 258.418 504.418C262.787 503.277 267.307 502.82 271.816 503.062C282.158 504.098 293.818 493.717 301.177 488.268C313.999 479.369 325.988 469.326 336.997 458.262C339.413 455.796 341.821 453.306 344.22 450.791C336.319 455.192 327.469 459.038 319.629 456.881Z" fill="#F7AA55"/>
<path d="M395.509 375.232C393.254 377.463 390.949 379.645 388.57 381.778C381.454 388.245 373.865 394.171 365.865 399.506C357.335 405.226 353.539 412.204 342.26 419.588C327.099 429.537 292.413 439.819 279.286 443.628C274.356 445.075 269.38 446.336 264.359 447.413C270.658 449.262 276.907 451.111 283.046 452.911C294.497 456.314 307.994 453.676 319.63 456.881C327.469 459.038 336.319 455.192 344.196 450.791C363.289 430.696 381.741 408.173 394.733 377.241L395.509 375.232Z" fill="#56C3F0"/>
<g style="mix-blend-mode:multiply">
<path d="M395.509 375.232C393.254 377.463 390.949 379.645 388.57 381.778C381.454 388.245 373.865 394.171 365.865 399.506C357.335 405.226 353.539 412.204 342.26 419.588C327.099 429.537 292.413 439.819 279.286 443.628C274.356 445.075 269.38 446.336 264.359 447.413C270.658 449.262 276.907 451.111 283.046 452.911C294.497 456.314 307.994 453.676 319.63 456.881C327.469 459.038 336.319 455.192 344.196 450.791C363.289 430.696 381.741 408.173 394.733 377.241L395.509 375.232Z" fill="#FBCE53"/>
</g>
<path d="M395.509 375.232C393.254 377.463 390.949 379.645 388.57 381.778C381.454 388.245 373.865 394.171 365.865 399.506C357.335 405.226 353.539 412.204 342.26 419.588C327.099 429.537 292.413 439.819 279.286 443.628C274.356 445.075 269.38 446.336 264.359 447.413C270.658 449.262 276.907 451.111 283.046 452.911C294.497 456.314 307.994 453.676 319.63 456.881C327.469 459.038 336.319 455.192 344.196 450.791C363.289 430.696 381.741 408.173 394.733 377.241L395.509 375.232Z" fill="#00ABE5"/>
<path d="M54.6541 373.987C59.4983 379.337 62.2717 386.475 67.1282 391.862C74.3266 399.863 94.1348 412.278 102.122 416.519C121.265 426.689 140.333 438.007 160.992 443.973C194.12 453.538 229.104 454.728 262.806 447.438C213.501 433.001 160.24 416.975 116.889 385.55C87.4786 364.247 63.9727 338.321 52.2628 303.063C49.6004 295.086 44.7439 290.735 41.2802 279.874C37.0277 266.547 36.6826 235.973 36.473 224.212C36.3867 219.823 36.473 215.484 36.6209 211.156C33.9667 214.345 31.5015 217.559 29.2252 220.797C22.2527 250.879 21.5854 282.079 27.2654 312.432C28.9417 321.222 31.5919 335.252 35.0678 348.184C38.1124 352.893 41.3542 357.516 44.8425 362.028C47.887 366.084 51.1411 370.042 54.6541 373.987Z" fill="white"/>
<g style="mix-blend-mode:multiply">
<path d="M54.6541 373.987C59.4983 379.337 62.2717 386.475 67.1282 391.862C74.3266 399.863 94.1348 412.278 102.122 416.519C121.265 426.689 140.333 438.007 160.992 443.973C194.12 453.538 229.104 454.728 262.806 447.438C213.501 433.001 160.24 416.975 116.889 385.55C87.4786 364.247 63.9727 338.321 52.2628 303.063C49.6004 295.086 44.7439 290.735 41.2802 279.874C37.0277 266.547 36.6826 235.973 36.473 224.212C36.3867 219.823 36.473 215.484 36.6209 211.156C33.9667 214.345 31.5015 217.559 29.2252 220.797C22.2527 250.879 21.5854 282.079 27.2654 312.432C28.9417 321.222 31.5919 335.252 35.0678 348.184C38.1124 352.893 41.3542 357.516 44.8425 362.028C47.887 366.084 51.1411 370.042 54.6541 373.987Z" fill="#C48CB7"/>
</g>
<g style="mix-blend-mode:multiply">
<path d="M54.6541 373.987C59.4983 379.337 62.2717 386.475 67.1282 391.862C74.3266 399.863 94.1348 412.278 102.122 416.519C121.265 426.689 140.333 438.007 160.992 443.973C194.12 453.538 229.104 454.728 262.806 447.438C213.501 433.001 160.24 416.975 116.889 385.55C87.4786 364.247 63.9727 338.321 52.2628 303.063C49.6004 295.086 44.7439 290.735 41.2802 279.874C37.0277 266.547 36.6826 235.973 36.473 224.212C36.3867 219.823 36.473 215.484 36.6209 211.156C33.9667 214.345 31.5015 217.559 29.2252 220.797C22.2527 250.879 21.5854 282.079 27.2654 312.432C28.9417 321.222 31.5919 335.252 35.0678 348.184C38.1124 352.893 41.3542 357.516 44.8425 362.028C47.887 366.084 51.1411 370.042 54.6541 373.987Z" fill="#FBCE53"/>
</g>
<path d="M48.676 197.669L50.8824 195.401L48.676 197.669Z" fill="#56C3F0"/>
<g style="mix-blend-mode:multiply">
<path d="M48.676 197.669L50.8824 195.401L48.676 197.669Z" fill="#C48CB7"/>
</g>
<g style="mix-blend-mode:multiply">
<path d="M48.676 197.669L50.8824 195.401L48.676 197.669Z" fill="#FBCE53"/>
</g>
<g style="mix-blend-mode:multiply">
<path d="M48.676 197.669L50.8824 195.401L48.676 197.669Z" fill="#99C860"/>
</g>
<path d="M416.094 216.174C410.979 195.845 411.163 171.213 366.789 124.613C350.084 105.913 328.086 92.7385 303.716 86.8395C264.63 77.1619 223.843 78.8632 182.427 100.968C170.446 107.366 158.514 113.813 146.952 121.223C141.393 124.786 134.86 126.154 129.314 129.372C120.242 134.66 105.117 148.197 98.942 153.498C81.7963 168.292 65.119 181.039 51.9793 194.329L51.7451 194.563C64.8601 181.335 81.4881 168.55 98.5845 153.88C104.748 148.579 119.884 135.03 128.956 129.741C134.503 126.499 141.036 125.155 146.595 121.593C158.144 114.196 170.089 107.736 182.07 101.35C223.485 79.2331 264.273 77.5441 303.359 87.2094C327.735 93.1166 349.74 106.294 366.456 124.995C410.831 171.595 410.658 196.227 415.761 216.556C424.389 251.075 425.93 284.965 415.958 317.931C410.001 337.474 403.065 356.705 395.176 375.552C393.04 377.673 390.85 379.727 388.607 381.716C390.986 379.584 393.291 377.401 395.546 375.17C403.238 356.678 410.338 337.409 416.34 317.499C426.263 284.583 424.772 250.644 416.094 216.174Z" fill="#56C3F0"/>
<g style="mix-blend-mode:multiply">
<path d="M416.094 216.174C410.979 195.845 411.163 171.213 366.789 124.613C350.084 105.913 328.086 92.7385 303.716 86.8395C264.63 77.1619 223.843 78.8632 182.427 100.968C170.446 107.366 158.514 113.813 146.952 121.223C141.393 124.786 134.86 126.154 129.314 129.372C120.242 134.66 105.117 148.197 98.942 153.498C81.7963 168.292 65.119 181.039 51.9793 194.329L51.7451 194.563C64.8601 181.335 81.4881 168.55 98.5845 153.88C104.748 148.579 119.884 135.03 128.956 129.741C134.503 126.499 141.036 125.155 146.595 121.593C158.144 114.196 170.089 107.736 182.07 101.35C223.485 79.2331 264.273 77.5441 303.359 87.2094C327.735 93.1166 349.74 106.294 366.456 124.995C410.831 171.595 410.658 196.227 415.761 216.556C424.389 251.075 425.93 284.965 415.958 317.931C410.001 337.474 403.065 356.705 395.176 375.552C393.04 377.673 390.85 379.727 388.607 381.716C390.986 379.584 393.291 377.401 395.546 375.17C403.238 356.678 410.338 337.409 416.34 317.499C426.263 284.583 424.772 250.644 416.094 216.174Z" fill="#C48CB7"/>
</g>
<g style="mix-blend-mode:multiply">
<path d="M416.094 216.174C410.979 195.845 411.163 171.213 366.789 124.613C350.084 105.913 328.086 92.7385 303.716 86.8395C264.63 77.1619 223.843 78.8632 182.427 100.968C170.446 107.366 158.514 113.813 146.952 121.223C141.393 124.786 134.86 126.154 129.314 129.372C120.242 134.66 105.117 148.197 98.942 153.498C81.7963 168.292 65.119 181.039 51.9793 194.329L51.7451 194.563C64.8601 181.335 81.4881 168.55 98.5845 153.88C104.748 148.579 119.884 135.03 128.956 129.741C134.503 126.499 141.036 125.155 146.595 121.593C158.144 114.196 170.089 107.736 182.07 101.35C223.485 79.2331 264.273 77.5441 303.359 87.2094C327.735 93.1166 349.74 106.294 366.456 124.995C410.831 171.595 410.658 196.227 415.761 216.556C424.389 251.075 425.93 284.965 415.958 317.931C410.001 337.474 403.065 356.705 395.176 375.552C393.04 377.673 390.85 379.727 388.607 381.716C390.986 379.584 393.291 377.401 395.546 375.17C403.238 356.678 410.338 337.409 416.34 317.499C426.263 284.583 424.772 250.644 416.094 216.174Z" fill="#FBCE53"/>
</g>
<g style="mix-blend-mode:multiply">
<path d="M416.094 216.174C410.979 195.845 411.163 171.213 366.789 124.613C350.084 105.913 328.086 92.7385 303.716 86.8395C264.63 77.1619 223.843 78.8632 182.427 100.968C170.446 107.366 158.514 113.813 146.952 121.223C141.393 124.786 134.86 126.154 129.314 129.372C120.242 134.66 105.117 148.197 98.942 153.498C81.7963 168.292 65.119 181.039 51.9793 194.329L51.7451 194.563C64.8601 181.335 81.4881 168.55 98.5845 153.88C104.748 148.579 119.884 135.03 128.956 129.741C134.503 126.499 141.036 125.155 146.595 121.593C158.144 114.196 170.089 107.736 182.07 101.35C223.485 79.2331 264.273 77.5441 303.359 87.2094C327.735 93.1166 349.74 106.294 366.456 124.995C410.831 171.595 410.658 196.227 415.761 216.556C424.389 251.075 425.93 284.965 415.958 317.931C410.001 337.474 403.065 356.705 395.176 375.552C393.04 377.673 390.85 379.727 388.607 381.716C390.986 379.584 393.291 377.401 395.546 375.17C403.238 356.678 410.338 337.409 416.34 317.499C426.263 284.583 424.772 250.644 416.094 216.174Z" fill="#99C860"/>
</g>
<path d="M36.9414 210.639L36.5593 211.082V211.156L36.9291 210.7C36.9272 210.679 36.9315 210.658 36.9414 210.639V210.639Z" fill="#004131"/>
<path d="M51.5726 194.698L50.8823 195.401L51.7082 194.563C51.6599 194.605 51.6146 194.65 51.5726 194.698V194.698Z" fill="#004131"/>
<path d="M48.6761 197.669C44.4482 202.046 40.5285 206.299 36.9416 210.639C36.9358 210.659 36.9358 210.68 36.9416 210.7C40.5285 206.385 44.4482 202.058 48.6761 197.669Z" fill="#004131"/>
<path d="M262.806 447.45L263.422 447.623L264.359 447.413L263.792 447.253L262.806 447.45Z" fill="#004131"/>
<path d="M342.63 419.218C327.469 429.167 292.783 439.437 279.668 443.246C274.38 444.787 269.08 446.106 263.792 447.253L264.359 447.413C269.339 446.328 274.314 445.066 279.286 443.628C292.413 439.819 327.099 429.537 342.26 419.588C353.526 412.191 357.335 405.226 365.865 399.506C373.864 394.171 381.454 388.245 388.57 381.778C381.554 388.097 374.09 393.898 366.235 399.136C357.705 404.844 353.896 411.822 342.63 419.218Z" fill="#004131"/>
<path d="M119.897 382.246C90.474 360.931 68.0527 337.138 56.2812 301.879C53.6065 293.903 52.2259 287.936 48.75 277.038C44.4974 263.699 42.8088 234.654 42.5869 222.893C42.5006 218.492 38.2604 213.24 38.4206 208.888L36.5347 211.156V211.082L36.9169 210.639C37.1839 203.288 37.8216 195.956 38.8274 188.67C34.8552 199.143 31.6098 209.877 29.1144 220.797C22.1418 250.879 21.4745 282.079 27.1545 312.432C28.8309 321.222 31.481 335.251 34.957 348.184C38.0016 352.893 41.2433 357.516 44.7316 362.028C47.8625 366.084 51.1166 370.091 54.5926 373.987C59.4367 379.337 62.2101 386.475 67.0666 391.862C74.2651 399.863 94.0732 412.278 102.061 416.519C121.203 426.689 140.272 438.007 160.93 443.973C194.059 453.538 229.043 454.728 262.744 447.438L263.73 447.24C214.352 432.767 163.432 413.794 119.897 382.246Z" fill="#EA7600"/>
<path d="M396.323 375.638C418.041 354.138 434.176 328.323 445.911 300.437C448.988 293.139 451.675 285.682 453.96 278.098C453.097 272.908 452.16 268.149 451.199 263.946C447.267 246.933 440.524 228.428 432.081 208.826C422.306 186.106 416.698 156.198 371.387 109.646C353.499 87.6832 330.88 70.0463 305.22 58.0532C279.15 46.021 251.7 38.6364 222.758 40.1898C186.741 42.1129 152.647 55.3904 122.288 78.9371C116.347 83.5725 109.444 86.6175 103.675 91.5488C94.3937 99.5128 81.1184 116.341 74.8814 125.944C62.3087 145.312 48.9964 162.707 40.5407 184.256C40.1709 185.193 38.9013 188.053 38.5315 189.003C38.5315 189.003 36.2882 203.981 36.5594 211.193C36.3991 215.545 36.3252 219.922 36.4114 224.323C36.621 236.084 38.1494 266.608 42.402 279.947C45.8779 290.846 50.7221 295.148 53.3969 303.124C65.156 338.383 88.662 364.321 118.072 385.637C161.608 417.172 215.165 433.211 264.606 447.696C269.906 446.55 275.194 445.231 280.482 443.69C293.597 439.88 328.282 429.611 343.444 419.662C354.71 412.265 358.518 405.288 367.061 399.58C374.909 394.339 382.37 388.538 389.383 382.222C391.627 380.183 393.821 378.108 395.965 375.996" fill="#004131"/>
<path d="M303.31 87.2092C264.224 77.5439 223.436 79.2329 182.02 101.35C170.039 107.736 158.095 114.195 146.546 121.592C140.987 125.155 134.454 126.524 128.907 129.741C119.835 135.03 104.711 148.579 98.5354 153.88C81.4513 168.55 64.8233 181.335 51.696 194.563L50.8701 195.401L51.5604 194.698C51.6024 194.65 51.6477 194.605 51.696 194.563L51.9302 194.328C65.0698 181.039 81.7471 168.23 98.8928 153.498C105.056 148.197 120.192 134.66 129.264 129.371C134.811 126.129 141.344 124.785 146.903 121.223C158.465 113.826 170.397 107.366 182.378 100.967" fill="#004131"/>
<path d="M29.139 220.797C16.8129 238.217 9.41716 256.647 7.0752 281.069C7.0752 281.069 7.0752 281.069 7.0752 281.168C7.0752 281.267 7.0752 281.291 7.0752 281.341C7.50661 283.214 7.96268 285.039 8.4434 286.95C13.9528 308.655 22.922 329.331 35.0063 348.184C31.5303 335.252 28.8432 321.222 27.2038 312.432C21.5157 282.081 22.1746 250.881 29.139 220.797V220.797Z" fill="#FAB400"/>
<path d="M304.949 124.872C287.693 124.872 268.723 130.506 250.85 152.425C249.716 153.806 247.472 153.72 247.472 151.192V138.704C247.472 131.11 244.711 125.784 237.833 124.921C223.942 123.183 210.716 145.521 151.994 165.123C147.655 166.566 146.077 168.563 146.077 172.582V179.979C146.077 184.035 149.048 186.512 152.992 186.599C153.547 186.599 159.229 186.599 159.846 186.599C169.522 186.685 172.985 188.522 172.985 206.681V319.028C172.985 339.049 161.214 339.246 152.943 341.12C148.826 342.057 146.09 344.683 146.09 348.418C146.09 349.047 146.09 355.531 146.09 355.815C146.09 360.315 148.9 363.15 153.892 363.15H266.615C271.545 363.15 274.405 360.315 274.405 355.815C274.405 355.581 274.405 349.096 274.405 348.418C274.405 344.72 271.669 342.057 267.552 341.12C259.281 339.246 247.509 339.049 247.509 319.028V202.502C247.509 196.868 248.384 191.222 251.762 186.71C253.722 184.066 256.279 181.923 259.224 180.455C262.169 178.988 265.42 178.237 268.71 178.265C290.059 178.265 289.011 201.688 315.55 201.688C340.276 201.688 348.67 181.384 348.67 163.471C348.645 141.774 331.833 124.872 304.949 124.872Z" fill="white"/>
</g>
<defs>
<clipPath id="clip0">
<rect width="491" height="512" fill="white"/>
</clipPath>
</defs>
</svg>
