<svg height="30" viewBox="0 0 23 30" width="23" xmlns="http://www.w3.org/2000/svg"><path d="m21.8749805 11.25h-1.875v-2.50001953c0-4.82478516-3.9251368-8.74998047-8.7499805-8.74998047-4.82484375 0-8.74998047 3.92519531-8.74998047 8.74998047v2.50001953h-1.875c-.34546875 0-.62501953.2795508-.62501953.6250195v15.6250196c0 1.3787695 1.12119141 2.4999609 2.50001953 2.4999609h17.50001957c1.3787695 0 2.4999609-1.1211914 2.4999609-2.5000195v-15.624961c0-.3454687-.2795508-.6250195-.6250195-.6250195zm-8.7536133 13.0560352c.0195117.1763671-.037207.3533789-.155625.4858593-.118418.1324219-.2881055.208125-.4657031.208125h-2.5000196c-.17759763 0-.34728513-.0757031-.46570309-.208125-.11841797-.1324218-.17519532-.3094336-.155625-.4858593l.39427734-3.5455079c-.64025391-.4657031-1.02292969-1.2024023-1.02292969-2.0105273 0-1.3787695 1.12119141-2.5000195 2.50001954-2.5000195 1.3788281 0 2.5000195 1.1211914 2.5000195 2.5000195 0 .808125-.3826758 1.5448242-1.0229297 2.0105273zm3.1286133-13.0560352h-9.99996097v-2.50001953c0-2.75695313 2.24302735-4.99998047 4.99998047-4.99998047 2.7569531 0 4.9999805 2.24302734 4.9999805 4.99998047z" fill="#4a4a4a"/></svg>