<?xml version="1.0" encoding="utf-8"?>
<!-- Generator: Adobe Illustrator 25.4.1, SVG Export Plug-In . SVG Version: 6.00 Build 0)  -->
<svg version="1.1" id="Layer_1" xmlns="http://www.w3.org/2000/svg" xmlns:xlink="http://www.w3.org/1999/xlink" x="0px" y="0px"
	 viewBox="0 0 602.6 653.6" style="enable-background:new 0 0 602.6 653.6;" xml:space="preserve">
<style type="text/css">
	.st0{fill:#FDEAE2;}
</style>
<path class="st0" d="M0,321.7c-0.3-32.4,2.6-61.5,9.8-90.1c9.6-38.3,25.5-73.9,49.4-105.5c8.9-11.8,18.5-22.9,28.4-33.9
	c7.3-8.1,14.6-16.1,22.1-24c14.1-14.6,29.7-26.4,49.5-32.4c5.8-1.7,11-5.5,16.5-8.2C201.5,15,228.6,6.4,257.1,2.7
	c13.7-1.8,27.4-2.9,41.1-2.6c16.8,0.4,33.5,1.8,50.2,4.4c19.6,3,38.8,7.2,57.6,13.4c27.4,9,52.2,22.9,73.8,42.2
	c15.1,13.4,28.3,28.5,41.7,43.6c10.5,11.8,19.8,24.4,28.3,37.7c10,15.5,17.6,32.1,24.6,49.1c7.6,18.6,15.4,37.1,19.7,56.9
	c4,18.3,7.5,36.7,7.7,55.6c0.1,5.5,1,11,0.8,16.5c-0.6,17-1.8,33.9-4.6,50.7c-4.2,25.5-10.6,50.3-18.9,74.7
	c-8.8,26.1-20,51.1-35.7,73.8c-10.4,15.1-21.8,29.3-34.1,43c-21.7,24.1-45.6,45.7-72.3,64c-12.8,8.8-25.9,17.3-39.8,24.4
	c-9.5,4.8-19,3.9-28.8,2.1c-6.9-1.2-13.8-2.1-20.8-1.8c-8.3,0.4-16.1-1.3-23.9-3.7c-40.4-12.8-80.9-25.1-120.1-41.3
	c-36.5-15-70.8-33.8-101.7-58.5c-19.6-15.7-37-33.5-51.6-54c-11.7-16.5-20.9-34.4-27.4-53.6c-2.7-8-5.7-15.9-9.8-23.3
	c-6.2-11.1-9-23.2-10.3-35.7C0.9,359.8-0.1,339.3,0,321.7z"/>
</svg>
